<?xml version="1.0" encoding="utf-8"?>
<!-- Generator: Adobe Illustrator 23.0.0, SVG Export Plug-In . SVG Version: 6.00 Build 0)  -->
<svg version="1.2" baseProfile="tiny" id="Слой_1"
	 xmlns="http://www.w3.org/2000/svg" xmlns:xlink="http://www.w3.org/1999/xlink" x="0px" y="0px" width="32px" height="13px"
	 xml:space="preserve">
<g>
	<path fill="#1F1F22" d="M14.9809256,12.7428379c-0.4292116-0.0514526-0.8323584-0.1963367-1.2224989-0.3680162
		c-1.9421272-0.8546257-3.165185-2.3208361-3.7174025-4.3479128C9.995636,7.8602962,9.9742651,7.6872377,9.9417353,7.5171742
		c0.0117168-0.0552254,0.0319796-0.1111579-0.0135937-0.1616364C9.886735,7.3279324,9.9053259,7.2889152,9.9083185,7.2528644
		c0.0096645-0.0767455,0.0345726-0.154386-0.0135679-0.2277389C9.8472757,6.9735799,9.8748817,6.9133873,9.8750219,6.8563576
		c0.0190592-0.2195897,0.0190697-0.4391789-0.0000057-0.6587677c0.0000629-0.0587215-0.0279379-0.1213031,0.0241346-0.1728711
		c0.0419912-0.0729461,0.0189247-0.14855,0.0092764-0.2236061c-0.0056019-0.0257339-0.0131741-0.0519118,0.0159397-0.06984
		C9.9765806,5.6822643,9.9525614,5.6253572,9.94135,5.569777c0.256568-1.578536,0.9949722-2.8905191,2.2273273-3.9195485
		c0.8670139-0.7239664,1.8627043-1.1861113,2.9837761-1.3732092c0.0263433-0.0043966,0.0517483-0.0143347,0.0775919-0.0216879
		c0.0556602,0.0147939,0.1111288,0.0241578,0.1651964-0.0057935c0.0204601-0.0143213,0.0372734-0.0375525,0.0677786-0.0273292
		c0.0750122,0.010266,0.1504736,0.030319,0.2231598-0.0100897c0.0408201-0.0496403,0.0938826-0.0244386,0.1430492-0.0230546
		c0.287796,0.0186864,0.5755882,0.0189384,0.8633766-0.0001774c0.0572548-0.0002685,0.1176186-0.0273219,0.1694241,0.0193749
		c0.0740261,0.0481834,0.1525097,0.0231678,0.2300396,0.0137919c0.0263157-0.0055824,0.0531368-0.0130868,0.0698795,0.017983
		c0.0503445,0.0480924,0.107235,0.0262178,0.1631222,0.0150363c0.81954,0.1448694,1.5914459,0.419523,2.2984257,0.8575381
		c1.5068226,0.9335625,2.4574966,2.2693305,2.8907604,3.9737632c0.0266857,0.1049881,0.0434895,0.2124519,0.0648918,0.3187633
		c-0.009697,0.0551553-0.0336857,0.111752,0.0164719,0.1608701c0.0202637,0.0058942,0.0243492,0.0190444,0.0169907,0.0373263
		c-0.0076542,0.0766015-0.0365601,0.154829,0.0175972,0.2267036c0.0196552,0.0066218,0.0229836,0.0199504,0.0156937,0.0376415
		c-0.0074635,0.109385-0.0373096,0.2197943,0.0151711,0.3264341c0.0353565,0.2346797,0.0474796,0.4691792-0.0055466,0.7031717
		c-0.0402412,0.095458-0.0211983,0.1927528-0.0091133,0.2898326c0.0052109,0.0260305,0.0123405,0.0525532-0.0181103,0.0694165
		c-0.0501614,0.0615253-0.0265465,0.1287055-0.0151691,0.1949482c0.0072308,0.0173178,0.003912,0.0303383-0.0152607,0.0368981
		c-0.0537338,0.0485334-0.0285492,0.1057291-0.0179729,0.1613216c-0.1223717,0.6281962-0.3166351,1.2322822-0.6205692,1.7984195
		c-0.9392128,1.7494459-2.3870697,2.8412075-4.3287926,3.292367c-0.0905285,0.0210333-0.1825523,0.0357294-0.27388,0.0533762
		c-0.0544949,0.0005474-0.1132298-0.0309725-0.1609249,0.0209723c-0.0058937,0.0201235-0.0191441,0.0241671-0.0375557,0.0169287
		c-0.0856056-0.0091772-0.1719284-0.0344515-0.2550831,0.01122c-0.0179539,0.0342722-0.0477924,0.0281811-0.0775146,0.0224915
		c-0.365612-0.0128307-0.7312222-0.0135641-1.0968285,0.0002689c-0.0382977,0.0022821-0.0801115,0.0201988-0.1079674-0.0239296
		c-0.0619278-0.0411062-0.1268883-0.0211887-0.1914473-0.0093756c-0.0262356,0.0051107-0.0529509,0.0120316-0.0698824-0.0181513
		c-0.0503044-0.0481691-0.1072264-0.0261135-0.1631031-0.0151377c-0.0181036,0.0070744-0.031127,0.0031004-0.036869-0.0167036
		C15.1104097,12.7228518,15.0359888,12.7758331,14.9809256,12.7428379z"/>
	<path fill="#1B1B1E" d="M15.7287521,12.8657465c0.1151896-0.0591841,0.2391014-0.0279408,0.3573704-0.0249233
		c0.2464504,0.0062895,0.4950066-0.0373898,0.7394581,0.0246544C16.4599781,12.8940144,16.094368,12.8921232,15.7287521,12.8657465z
		"/>
	<path fill="#141417" d="M16.692606,0.1888872c-0.2877827,0.0458126-0.5755749,0.0456127-0.8633766,0.0001774
		C16.1170216,0.1890055,16.4048138,0.1889463,16.692606,0.1888872z"/>
	<path fill="#151518" d="M9.8750162,6.1975899c0.0452223,0.2195888,0.0452309,0.4391785,0.0000057,0.6587677
		C9.8750191,6.6367683,9.8750181,6.4171786,9.8750162,6.1975899z"/>
	<path fill="#151518" d="M22.6610737,6.1941137c-0.0739975-0.1056552-0.0507565-0.2157621-0.0151711-0.3264341
		C22.6509609,5.976491,22.6560173,6.0853024,22.6610737,6.1941137z"/>
	<path fill="#141417" d="M22.6464138,7.1871181c-0.0504551-0.0955119-0.0262127-0.1957111-0.0181599-0.2947946
		c0.0001335-0.0016494,0.0092754-0.0043149,0.0135746-0.0034347c0.0049362,0.0010104,0.0091648,0.0054479,0.0136986,0.0083966
		C22.6524887,6.993896,22.6494503,7.0905075,22.6464138,7.1871181z"/>
	<path fill="#161619" d="M16.9030952,12.8429861c0.081913-0.0734663,0.1686039-0.0399694,0.2550831-0.01122
		C17.0731506,12.8355064,16.9881229,12.8392467,16.9030952,12.8429861z"/>
	<path fill="#17171A" d="M15.6861801,0.2121192c-0.071084,0.0753097-0.1472435,0.0400572-0.2231598,0.0100897
		C15.5374069,0.2188457,15.6117935,0.2154824,15.6861801,0.2121192z"/>
	<path fill="#161619" d="M9.9084272,5.8011127c0.0474186,0.0733132,0.0281,0.1519446,0.0179348,0.229691
		c-0.0002203,0.001689-0.0095873,0.0039454-0.013938,0.0028915C9.9075546,6.0325146,9.9035387,6.0278611,9.8991508,6.0247188
		C9.9022427,5.9501834,9.9053345,5.875648,9.9084272,5.8011127z"/>
	<path fill="#161619" d="M17.0920696,0.222054C17.0128231,0.2596487,16.9346695,0.27924,16.86203,0.2082621
		C16.9387112,0.2128594,17.0153885,0.2174567,17.0920696,0.222054z"/>
	<path fill="#151518" d="M22.630209,5.8300381c-0.0783997-0.0700212-0.0532532-0.1479607-0.0175972-0.2267036
		C22.6184769,5.6789026,22.624342,5.7544703,22.630209,5.8300381z"/>
	<path fill="#161619" d="M9.8947506,7.0251255c0.0709877,0.0720119,0.0518179,0.1493158,0.0135679,0.2277393
		C9.9037952,7.1769514,9.8992729,7.1010385,9.8947506,7.0251255z"/>
	<path fill="#151519" d="M15.4293375,12.8324413c0.062562-0.0471306,0.1312599-0.0285168,0.1990376-0.0176487
		c0.0015717,0.0002527,0.0033493,0.0098534,0.002058,0.0142298c-0.0014133,0.0047884-0.0062847,0.0085726-0.0096483,0.0127945
		C15.5569687,12.8386908,15.4931536,12.8355656,15.4293375,12.8324413z"/>
	<path fill="#161619" d="M22.6131325,7.4514828c-0.0377064-0.0682607-0.0545597-0.134923,0.0151672-0.1949482
		C22.6232452,7.3215175,22.6181889,7.3865004,22.6131325,7.4514828z"/>
	<path fill="#161619" d="M15.3952417,0.2495381c-0.0533524,0.0500572-0.1086493,0.0454922-0.1651964,0.0057936
		C15.2851105,0.2534006,15.3401766,0.2514693,15.3952417,0.2495381z"/>
	<path fill="#151518" d="M17.3250713,0.2550735c-0.0582371,0.0362686-0.1144867,0.0513216-0.1631222-0.0150363
		C17.2163239,0.2450493,17.2706966,0.2500614,17.3250713,0.2550735z"/>
	<path fill="#151518" d="M22.5956211,5.5660081c-0.0683517-0.0472822-0.0517845-0.1031308-0.0164719-0.1608701
		C22.5846386,5.4587612,22.5901318,5.5123849,22.5956211,5.5660081z"/>
	<path fill="#151518" d="M9.94135,5.569777c0.0366182,0.0582123,0.0534668,0.1143761-0.016983,0.1614957
		C9.930028,5.6774411,9.935689,5.6236091,9.94135,5.569777z"/>
	<path fill="#17171A" d="M9.9281416,7.3555379c0.0642233,0.0489335,0.0504961,0.1043248,0.0135918,0.1616368
		C9.9372025,7.4632955,9.9326725,7.4094162,9.9281416,7.3555379z"/>
	<path fill="#151518" d="M22.5799007,7.6497025c-0.0360661-0.0583901-0.053915-0.1147809,0.0179729-0.1613216
		C22.5918827,7.5421548,22.5858917,7.5959287,22.5799007,7.6497025z"/>
	<path fill="#151518" d="M14.9809256,12.7428379c0.0610905,0.0062256,0.1328182-0.0347929,0.1785574,0.0396109
		C15.1022701,12.7590046,15.030879,12.798522,14.9809256,12.7428379z"/>
	<path fill="#161619" d="M15.196352,12.7991524c0.0582466-0.0361328,0.1145191-0.0513039,0.1631031,0.0151377
		C15.305088,12.8092442,15.2507191,12.8041973,15.196352,12.7991524z"/>
	<path fill="#151519" d="M17.195734,12.8148375c0.045454-0.0688772,0.1026592-0.0489416,0.1609249-0.0209713
		C17.3030167,12.8008566,17.2493744,12.807847,17.195734,12.8148375z"/>
	<path fill="#FE4E00" d="M18.6238575,3.4216201c-0.540432-0.4004209-1.1410637-0.6498692-1.8132343-0.7344534
		C16.0244923,2.5882416,15.26437,2.679323,14.5562277,3.0305941c-0.9993591,0.495729-1.6945629,1.2728474-2.0214605,2.3416636
		c-0.3126698,1.022296-0.2147875,2.0125408,0.2680893,2.9748645c0.195673,0.3899527,0.438941,0.7318783,0.7570391,1.024807
		c0.0691671,0.063695,0.0490894,0.1023321-0.0009346,0.1589689c-0.1900206,0.2151461-0.380477,0.4301138-0.5630579,0.6514149
		c-0.0603008,0.0730886-0.0926104,0.0773325-0.1633692,0.0111799c-0.2716866-0.2540016-0.5031223-0.5400686-0.7262354-0.8360205
		c-0.502243-0.6662045-0.772727-1.417716-0.8700132-2.2375875c-0.1379099-1.1622066,0.1089039-2.2390714,0.7232418-3.2356834
		c0.4934711-0.8005342,1.168129-1.4121389,2.0033207-1.8395028c0.5151834-0.2636176,1.067255-0.4263349,1.6474838-0.5095402
		c0.9096766-0.1304487,1.7765093,0.0131294,2.6170416,0.3462678c0.4050426,0.1605361,0.7770996,0.3889158,1.1273422,0.6490457
		c0.0403328,0.0444276,0.0114155,0.0825009-0.0155773,0.1154904c-0.1828613,0.2234976-0.3543129,0.4561255-0.5432224,0.6745925
		C18.753109,3.3700583,18.7122478,3.4407487,18.6238575,3.4216201z"/>
	<path fill="#313134" d="M18.6238575,3.4216201c0.286581-0.2623386,0.5137119-0.5727077,0.730854-0.8911521
		c0.107893,0.0235558,0.1814919,0.1014607,0.2561607,0.170984c0.4701023,0.4377065,0.8912621,0.9120648,1.1861038,1.4903848
		c0.2589607,0.5079441,0.4455833,1.0340199,0.5270939,1.599102c0.0431995,0.2994852,0.0750294,0.5983071,0.0617371,0.9000554
		c-0.0272255,0.6179323-0.15238,1.2159033-0.3991489,1.7852907c-0.2443752,0.5638695-0.5653419,1.0777664-1.0046597,1.5167313
		c-0.0965881,0.096508-0.1775093,0.2071276-0.2922001,0.2872381c-0.048069,0.0335751-0.0831585,0.0531273-0.126791,0.0033064
		c-0.228075-0.2604151-0.4575424-0.5196552-0.6828156-0.7824373c-0.0557671-0.065052,0.0037518-0.1121826,0.0478115-0.1526432
		c0.2906971-0.2669506,0.5308533-0.5730801,0.72332-0.9161186c0.2696075-0.4805269,0.4218616-0.9932647,0.4753761-1.5431299
		c0.0568695-0.5843005-0.0177002-1.1472902-0.2142563-1.6940289c-0.2431755-0.6764121-0.6518536-1.2408085-1.2216415-1.6870816
		C18.66049,3.4843781,18.6230164,3.4682148,18.6238575,3.4216201z"/>
	<path fill="#FE4E00" d="M16.9664097,4.5395765c-0.2471161,0.3757315-0.4711018,0.7162895-0.6929684,1.053628
		c0.0117607,0.0456352,0.0459404,0.0325127,0.0692577,0.0332475c0.6769066,0.0213137,1.1889343,0.5023046,1.2097569,1.1378059
		c0.0219193,0.6690178-0.4477119,1.1966863-1.1282101,1.267632c-0.6957169,0.0725327-1.2861347-0.2911224-1.4436045-0.9007082
		c-0.0932674-0.3610468-0.0246096-0.7048697,0.17593-1.0162468c0.3160744-0.4907694,0.6431513-0.9745483,0.9618196-1.4636936
		c0.0502453-0.0771213,0.102375-0.117641,0.2004795-0.1139512C16.5209255,4.5448904,16.7234707,4.5395765,16.9664097,4.5395765z"/>
	<path fill="#1F1F22" d="M16.2835751,7.2563939c-0.2474365-0.0027223-0.4267664-0.1875572-0.4216843-0.4346247
		c0.0051088-0.2483611,0.1894321-0.4287276,0.4344635-0.4251356c0.2455959,0.0035996,0.4268341,0.1915803,0.4218655,0.4375529
		C16.7131405,7.0854316,16.5343037,7.2591524,16.2835751,7.2563939z"/>
</g>
</svg>
