<?xml version="1.0" encoding="utf-8"?>
<!-- Generator: Adobe Illustrator 23.0.0, SVG Export Plug-In . SVG Version: 6.00 Build 0)  -->
<svg version="1.2" baseProfile="tiny" id="Слой_1"
	 xmlns="http://www.w3.org/2000/svg" xmlns:xlink="http://www.w3.org/1999/xlink" x="0px" y="0px" width="32px" height="13px"
	 xml:space="preserve">
<g>
	<path fill="#1F1F22" d="M22.3349552,7.6233993c-0.1226597,0.6296897-0.3173847,1.2352109-0.6220436,1.8026919
		c-0.9414425,1.7535982-2.3927383,2.8479528-4.3390713,3.3001833c-0.090744,0.0210848-0.1829872,0.0358143-0.2745304,0.053503
		c-0.0546246,0.0005493-0.1134987-0.0310469-0.1613083,0.0210218c-0.0059052,0.0201712-0.0191879,0.0242243-0.0376434,0.0169687
		c-0.0858097-0.0091982-0.1723366-0.0345325-0.2556896,0.0112467c-0.0179958,0.0343542-0.047905,0.0282478-0.0776978,0.0225449
		c-0.3664818-0.0128613-0.7329588-0.0135956-1.0994329,0.0002699c-0.0383892,0.0022869-0.0803032,0.0202465-0.1082249-0.0239868
		c-0.0620747-0.0412035-0.1271896-0.0212393-0.1919012-0.0093975c-0.0262985,0.0051231-0.0530767,0.0120602-0.0700483-0.0181952
		c-0.0504246-0.0482826-0.107481-0.0261745-0.1634903-0.015173c-0.0181465,0.0070906-0.0312014,0.003108-0.0369568-0.0167437
		c-0.0491896-0.0597382-0.1237879-0.0066309-0.1789818-0.0397043c-0.4302292-0.0515776-0.8343353-0.1968031-1.2254019-0.3688908
		c-1.9467421-0.8566542-3.1727018-2.3263474-3.7262297-4.3582382c-0.045496-0.1670079-0.0669174-0.340477-0.0995255-0.5109434
		c0.0117426-0.0553565,0.0320568-0.1114225-0.0136251-0.1620212c-0.0415049-0.0276709-0.022871-0.066781-0.0198708-0.1029172
		c0.0096874-0.0769277,0.0346546-0.1547523-0.0136003-0.2282796C9.572094,6.9456706,9.5997658,6.885335,9.599906,6.8281698
		C9.6190119,6.6080594,9.6190205,6.387949,9.5999012,6.1678386c0.0000629-0.0588608-0.0280046-0.1215901,0.0241909-0.1732807
		c0.0420904-0.0731196,0.0189695-0.1489043,0.0092983-0.2241392c-0.0056133-0.025795-0.0132055-0.0520349,0.0159779-0.0700054
		c0.0523376-0.0491247,0.0282621-0.1061673,0.0170231-0.1618791c0.2571774-1.5822852,0.9973354-2.8973839,2.2326174-3.9288564
		c0.8690739-0.7256856,1.8671265-1.1889299,2.9908628-1.3764696c0.0264053-0.004407,0.0518703-0.0143686,0.077774-0.0217393
		c0.0557928,0.014829,0.111393,0.024215,0.1655893-0.0058075c0.0205088-0.0143552,0.0373621-0.0376417,0.0679398-0.027394
		c0.0751896,0.0102903,0.1508303,0.0303912,0.2236891-0.0101137c0.0409174-0.0497582,0.0941057-0.0244967,0.1433887-0.0231093
		c0.2884798,0.0187308,0.5769558,0.0189834,0.865427-0.0001778c0.0573921-0.0002692,0.1178989-0.0273868,0.1698265,0.0194209
		c0.0742035,0.0482972,0.1528721,0.0232233,0.2305851,0.0138247c0.0263805-0.0055956,0.0532646-0.013118,0.0700474,0.0180257
		c0.0504627,0.0482067,0.1074886,0.0262802,0.1635094,0.015072c0.8214836,0.1452133,1.5952225,0.4205188,2.3038826,0.8595735
		c1.5104027,0.9357778,2.4633312,2.2747202,2.897625,3.9831991c0.0267525,0.1052375,0.0435925,0.2129579,0.0650463,0.3195224
		c-0.0097198,0.0552859-0.0337658,0.1120172,0.01651,0.1612515c0.0203133,0.005908,0.0244083,0.0190892,0.0170326,0.0374146
		c-0.0076752,0.0767841-0.036644,0.1551967,0.0176373,0.2272425c0.0197029,0.0066376,0.0230389,0.0199981,0.0157318,0.0377312
		c-0.0074806,0.1096444-0.0373974,0.2203159,0.0152073,0.327209c0.0354404,0.2352371,0.0475922,0.4702935-0.0055599,0.7048416
		c-0.0403366,0.095685-0.0212479,0.1932111-0.0091362,0.2905211c0.0052242,0.0260921,0.0123711,0.0526781-0.0181522,0.0695815
		c-0.0502815,0.0616713-0.0266094,0.1290112-0.0152054,0.1954107c0.0072479,0.0173588,0.0039215,0.0304108-0.0152969,0.0369859
		C22.2991104,7.5103436,22.3243484,7.5676746,22.3349552,7.6233993z"/>
	<path fill="#1B1B1E" d="M15.4675379,12.8518295c0.1154623-0.0593252,0.2396688-0.0280066,0.3582182-0.0249815
		c0.247036,0.0063038,0.4961815-0.0374804,0.7412148,0.0247116C16.2005005,12.8801641,15.8340216,12.8782682,15.4675379,12.8518295z
		"/>
	<path fill="#141417" d="M16.4336796,0.1448664c-0.2884655,0.0459214-0.5769415,0.0457211-0.865427,0.0001778
		C15.8567286,0.144985,16.1452045,0.1449257,16.4336796,0.1448664z"/>
	<path fill="#151518" d="M9.5999012,6.1678386C9.6452303,6.387949,9.6452389,6.6080594,9.599906,6.8281698
		C9.5999041,6.6080594,9.5999031,6.387949,9.5999012,6.1678386z"/>
	<path fill="#151518" d="M22.4163208,6.1643534c-0.0741749-0.105906-0.0508766-0.2162743-0.0152073-0.327209
		C22.4061832,5.9462137,22.411253,6.055284,22.4163208,6.1643534z"/>
	<path fill="#141417" d="M22.4016247,7.1597161c-0.0505753-0.0957394-0.0262737-0.1961765-0.0182018-0.2954946
		c0.0001335-0.0016537,0.0092964-0.0043254,0.013607-0.0034432c0.0049477,0.0010128,0.0091858,0.0054612,0.013731,0.0084167
		C22.4077148,6.9660354,22.4046707,7.0628757,22.4016247,7.1597161z"/>
	<path fill="#161619" d="M16.6446686,12.8290148c0.0821075-0.0736399,0.1690044-0.0400639,0.2556896-0.0112467
		C16.8151283,12.8215179,16.7298985,12.8252659,16.6446686,12.8290148z"/>
	<path fill="#161619" d="M9.6333904,5.7704186c0.0475321,0.0734873,0.0281677,0.1523061,0.0179787,0.2302365
		C9.6511469,6.0023479,9.6417599,6.004611,9.6373978,6.0035548C9.632515,6.0023732,9.6284895,5.9977074,9.6240921,5.9945579
		C9.6271915,5.9198446,9.630291,5.8451314,9.6333904,5.7704186z"/>
	<path fill="#17171A" d="M15.4248638,0.1681535c-0.0712528,0.0754886-0.1475935,0.0401522-0.2236891,0.0101137
		C15.2757378,0.174896,15.3503008,0.1715248,15.4248638,0.1681535z"/>
	<path fill="#151518" d="M22.3853798,5.7994132c-0.0785828-0.0701871-0.0533772-0.1483116-0.0176353-0.2272425
		C22.373621,5.6479187,22.3795013,5.7236662,22.3853798,5.7994132z"/>
	<path fill="#161619" d="M9.6196814,6.9973388c0.0711565,0.0721831,0.0519409,0.1496701,0.0136003,0.2282801
		C9.6287479,7.1495252,9.6242151,7.073432,9.6196814,6.9973388z"/>
	<path fill="#161619" d="M16.8340912,0.178112c-0.0794334,0.037684-0.157774,0.0573218-0.2305851-0.0138247
		C16.6803684,0.1688955,16.7572289,0.1735038,16.8340912,0.178112z"/>
	<path fill="#151519" d="M15.1674118,12.8184452c0.0627098-0.0472422,0.1315708-0.0285845,0.1995096-0.0176907
		c0.0015755,0.0002527,0.0033579,0.0098772,0.0020628,0.0142632c-0.0014162,0.0047998-0.0063,0.0085926-0.0096712,0.012825
		C15.2953453,12.8247089,15.2313795,12.8215771,15.1674118,12.8184452z"/>
	<path fill="#161619" d="M22.3682652,7.4247084c-0.037796-0.0684228-0.0546894-0.1352434,0.0152054-0.1954107
		C22.3784027,7.2944345,22.373333,7.3595715,22.3682652,7.4247084z"/>
	<path fill="#151518" d="M22.3507118,5.5347562c-0.068512-0.0473943-0.0519066-0.1033754-0.01651-0.1612515
		C22.3397045,5.4272552,22.3452091,5.4810061,22.3507118,5.5347562z"/>
	<path fill="#151518" d="M9.6663914,5.5385342C9.7030973,5.5968847,9.719986,5.653182,9.6493683,5.7004132
		C9.6550426,5.6464539,9.660718,5.592494,9.6663914,5.5385342z"/>
	<path fill="#17171A" d="M9.6531525,7.3285356c0.0643749,0.0490499,0.0506153,0.1045732,0.0136242,0.1620212
		C9.6622353,7.4365492,9.6576939,7.3825426,9.6531525,7.3285356z"/>
	<path fill="#151518" d="M17.0676479,0.2112098c-0.0583763,0.0363553-0.1147594,0.0514435-0.1635094-0.015072
		C16.958643,0.2011617,17.0131435,0.2061857,17.0676479,0.2112098z"/>
	<path fill="#161619" d="M15.133235,0.2056612c-0.0534792,0.0501769-0.1089077,0.0456-0.1655893,0.0058073
		C15.0228415,0.2095328,15.0780392,0.207597,15.133235,0.2056612z"/>
	<path fill="#151518" d="M14.7179346,12.7286291c0.0612354,0.0062399,0.1331339-0.0348759,0.1789818,0.0397043
		C14.8395672,12.7448339,14.7680063,12.7844448,14.7179346,12.7286291z"/>
	<path fill="#161619" d="M14.9338732,12.7850771c0.0583849-0.0362186,0.1147909-0.0514259,0.1634903,0.015173
		C15.0428667,12.7951927,14.988369,12.7901344,14.9338732,12.7850771z"/>
	<path fill="#151519" d="M16.9380016,12.8007994c0.0455627-0.0690413,0.1029034-0.049057,0.1613083-0.0210209
		C17.0455418,12.7867851,16.9917698,12.7937918,16.9380016,12.8007994z"/>
	<path fill="#151518" d="M22.3349552,7.6233993c-0.0361538-0.0585289-0.054039-0.1150527,0.0180149-0.161705
		C22.3469658,7.5155954,22.3409595,7.5694976,22.3349552,7.6233993z"/>
	<path fill="#FE0048" d="M18.5151119,6.3518071c0.0076599,0.4005427-0.0814037,0.7761097-0.315506,1.1063342
		c-0.5296669,0.7471418-1.5384293,0.7490072-2.0759411,0.0079236c-0.4307165-0.5938449-0.4305067-1.6172514,0.000452-2.2107339
		c0.5603447-0.7716594,1.6340809-0.7271938,2.1290188,0.0891418C18.4407768,5.653964,18.520853,5.9921288,18.5151119,6.3518071z"/>
	<path fill="#EE00A6" d="M17.90271,1.7997137c0.3300476,0.0971438,0.624733,0.2632617,0.9051285,0.4572405
		c0.0543346,0.171747,0.1707325,0.3079472,0.2700233,0.4526339c0.5913029,0.8616562,1.1775303,1.7266922,1.7643452,2.5913486
		c0.0386963,0.0570192,0.0573788,0.1545806,0.1660233,0.1294971c0.073473,0.2262855,0.0907631,0.4605546,0.1003704,0.6959152
		c0.0286217,0.1091318,0.0061741,0.2203364,0.0136147,0.3300786c-0.0117397,0.0870118-0.0613022,0.0624423-0.1041946,0.0300255
		c-0.0444736-0.0336123-0.070776-0.0844727-0.101656-0.1302605c-0.7883282-1.1689415-1.5871983-2.3308325-2.3751049-3.5000689
		c-0.191515-0.2842069-0.3907375-0.5634294-0.5782795-0.8503165C17.9236088,1.9455831,17.8519363,1.8884678,17.90271,1.7997137z"/>
	<path fill="#FE0048" d="M15.1465206,6.3597488c-0.0000048,0.473567-0.0045023,0.9472046,0.002965,1.4206553
		c0.0020189,0.1280112-0.0387735,0.1584964-0.1629219,0.1590376c-0.5263891,0.0022931-0.526371,0.0063477-0.526371-0.5089803
		c-0.0000019-0.5247631-0.0088625-1.0497537,0.0047722-1.5741677c0.0048161-0.185164-0.0594378-0.2407432-0.2292051-0.2145424
		c-0.0125904,0.0019431-0.0257492,0.0002599-0.0386438,0.0002542c-0.2733936-0.0001221-0.3501253-0.1056852-0.2812109-0.3698053
		c0.0206842-0.0792685,0.0830879-0.0750175,0.1325521-0.0869346c0.15522-0.037395,0.307869-0.0976205,0.3931942-0.2264161
		c0.1101761-0.1663079,0.251297-0.1826167,0.4264421-0.176064c0.2781219,0.0104051,0.2784243,0.0027847,0.27843,0.2714543
		C15.146534,5.4894099,15.1465254,5.9245791,15.1465206,6.3597488z"/>
	<path fill="#EB00A9" d="M17.90271,1.7997137c0.1262913,0.2898494,0.3318386,0.5305244,0.5037003,0.7916952
		c0.2905922,0.4415956,0.5943546,0.8746412,0.8915615,1.3119609c0.5634003,0.8290005,1.1256161,1.6587934,1.690403,2.4868598
		c0.0288944,0.0423627,0.0467701,0.1045361,0.1157646,0.1078901c0.0321693,0.1346812,0.0233746,0.2698011,0.0043964,0.4050298
		c0.0024223,0.009975-0.0001354,0.0184755-0.0076694,0.0255013c-0.1277065,0.0420966-0.1644573-0.0676427-0.211153-0.137423
		c-0.2919521-0.4362645-0.5934277-0.8660812-0.8883095-1.300343c-0.1548805-0.2280879-0.2948036-0.4665561-0.4719372-0.6794515
		c-0.1693916-0.2964044-0.3599777-0.5790505-0.5625916-0.8538902c-0.3854637-0.5668535-0.7780571-1.1289184-1.1586514-1.6990399
		c-0.0982819-0.1472223-0.2020607-0.2910036-0.2933559-0.4425483c-0.0316982-0.0526197-0.0902252-0.1233604,0.0271606-0.1564672
		C17.6622543,1.7062298,17.7824841,1.7529716,17.90271,1.7997137z"/>
	<path fill="#A600F2" d="M13.0962791,9.7735338c-0.090766,0.1207027-0.1854362,0.2380714-0.296279,0.3416204
		c-0.2204084-0.2475233-0.3819904-0.5365515-0.571249-0.8058186c-0.3576632-0.5088634-0.6921453-1.0336208-1.052125-1.5411062
		c-0.0393782-0.0555134-0.0605421-0.1343875-0.1493464-0.1393566c-0.0666685-0.1921935-0.0881376-0.3919668-0.1009722-0.5931883
		c-0.028944-0.0970716-0.0070267-0.196413-0.0129347-0.2945371c-0.0019312-0.032084-0.0077467-0.0708027,0.0298834-0.0868421
		c0.0408497-0.0174117,0.0747137,0.0056553,0.1046762,0.0321169c0.0334806,0.0295677,0.0573282,0.0668788,0.0823479,0.103137
		c0.6416235,0.9298558,1.2756128,1.8648262,1.9048586,2.802969C13.0716963,9.6470308,13.1144123,9.7004108,13.0962791,9.7735338z"/>
	<path fill="#F200A2" d="M21.0082302,5.4304338c-0.0059757,0.0306535,0.0094051,0.0742631-0.0282745,0.0870862
		c-0.0422459,0.0143762-0.0526829-0.0337324-0.0691013-0.0574884c-0.2130527-0.3082418-0.4239559-0.6179476-0.6351547-0.9274526
		c-0.4658871-0.6827455-0.932766-1.3648314-1.3955746-2.0496271c-0.043642-0.0645735-0.1349564-0.1239452-0.0722885-0.2259972
		c0.544672,0.3308547,0.9820843,0.7764487,1.3578072,1.2811151c0.3460159,0.4647655,0.5966702,0.9804215,0.7584858,1.5370259
		C20.9581585,5.1921496,20.936142,5.3222618,21.0082302,5.4304338z"/>
	<path fill="#A300F6" d="M11.0272799,7.6288729c0.0586662-0.0600882,0.0601139-0.0610662,0.1189899,0.024807
		c0.2923212,0.4263611,0.5840359,0.8531313,0.8755293,1.2800503c0.2263288,0.3314819,0.4530048,0.6627407,0.6770668,0.9957294
		c0.0391502,0.0581827,0.0952473,0.1090078,0.1011333,0.1856918c-0.1630754,0.2171383-0.1277466,0.20257-0.3077869,0.0351429
		c-0.272542-0.2534485-0.4927835-0.5498734-0.7181587-0.843996c-0.3569384-0.4658175-0.5686216-0.994257-0.7295465-1.5483603
		C11.0325308,7.7167006,11.0327377,7.6719761,11.0272799,7.6288729z"/>
	<path fill="#AB00ED" d="M10.9342136,5.9675169c-0.0133247-0.2522893,0.0609684-0.4901061,0.1223984-0.7300472
		c0.1223307-0.0399227,0.1498909,0.0701413,0.1947317,0.1329122c0.2329235,0.3260684,0.43958,0.6703892,0.6826124,0.9892979
		c0.1153698,0.151391,0.2093325,0.3033013,0.1910076,0.5013599c0.0332918,0.170114,0.0653934,0.3404689,0.1002836,0.5102592
		c0.0241413,0.1174879,0.0521297,0.2341981,0.0783978,0.3512554c-0.1326303,0.0109577-0.1748934-0.0991936-0.2297907-0.180172
		c-0.3159037-0.4659796-0.643652-0.9240322-0.9506302-1.3959517C11.0741167,6.0709367,11.0204315,6.0030379,10.9342136,5.9675169z"
		/>
	<path fill="#AF00E8" d="M12.1249638,6.8610396c-0.0227289-0.3019238-0.2562742-0.4879661-0.4046431-0.7201838
		c-0.159111-0.249033-0.3250656-0.4939027-0.4938297-0.7366185c-0.0446167-0.0641661-0.077219-0.1477785-0.169878-0.1667671
		c0.0538025-0.2293243,0.1160679-0.4557524,0.2307196-0.6642547c0.0909367-0.0204024,0.1298189,0.0491176,0.1678209,0.1051855
		c0.2226658,0.3285265,0.4546757,0.6506929,0.6754675,0.9804621c0.0376606,0.0562487,0.0681257,0.1144543,0.0357056,0.1843514
		C12.1095476,6.1807685,12.1307631,6.5214448,12.1249638,6.8610396z"/>
	<path fill="#E600AE" d="M21.0341015,7.4253759c-0.0205421,0.2183127-0.0759907,0.4280052-0.1581898,0.6310921
		c-0.1079102,0.0179949-0.1390896-0.0728278-0.185276-0.1348491c-0.2305031-0.3095212-0.4411907-0.6327424-0.6506882-0.9562826
		c-0.0498371-0.0769644-0.1727905-0.1178045-0.1380939-0.2426853c0.0259972-0.3200531-0.042738-0.634356-0.0586414-0.9518661
		c0.1787796,0.1351385,0.2796078,0.3326945,0.4051476,0.5089064C20.5170631,6.6568527,20.7572842,7.0534954,21.0341015,7.4253759z"
		/>
	<path fill="#E600AE" d="M16.6089039,1.4614693c0.1939754,0.0050588,0.381916,0.0441545,0.567049,0.0990744
		c-0.0872459,0.0611209-0.0578651,0.1230619-0.0090065,0.1944087c0.2709274,0.3956295,0.5488472,0.7866234,0.8094463,1.1891023
		c0.0475254,0.0734022,0.1311436,0.1456795,0.0574551,0.2495742c-0.2519608-0.1561024-0.533474-0.2504282-0.7996368-0.3768446
		c-0.1143818-0.0912464-0.1741734-0.2242134-0.2556992-0.339416c-0.1876163-0.2651207-0.3656311-0.5370435-0.545023-0.8078511
		c-0.0381241-0.0575486-0.1118526-0.1193502-0.0712433-0.1892378c0.0405846-0.0698458,0.1315155-0.0210468,0.1993618-0.0313228
		C16.5779896,1.4464751,16.5940666,1.4537249,16.6089039,1.4614693z"/>
	<path fill="#A900EF" d="M10.9342136,5.9675169c0.0932007-0.0587182,0.1251841,0.0146303,0.165659,0.0741425
		c0.3396292,0.4993653,0.6804695,0.99792,1.0191736,1.4979014c0.0500393,0.0738668,0.1021948,0.1426706,0.1845932,0.1829925
		c0.2225103,0.5043335,0.4220695,1.0217533,0.8261719,1.4222431c0.0470257,0.0466051,0.089469,0.0979652,0.1382303,0.1426077
		c0.1504354,0.1377277,0.1512251,0.136879-0.0042849,0.2903671c-0.1200447,0.0074444-0.1550694-0.0935192-0.2038851-0.1670465
		c-0.4923153-0.7415628-1.0041523-1.4700809-1.4974966-2.2109241c-0.189992-0.2853079-0.3828163-0.5687609-0.5882454-0.8432555
		c-0.0866919-0.1158361-0.0652838-0.2375369-0.0477505-0.3626189C10.9239635,5.9836535,10.9265747,5.9748507,10.9342136,5.9675169z"
		/>
	<path fill="#A800F0" d="M10.9263792,5.993926c-0.0560865,0.2668443,0.1528206,0.4198341,0.2740602,0.6051998
		c0.2888184,0.4415789,0.5925388,0.8735423,0.8893394,1.3099933c0.3462601,0.5091825,0.6920862,1.0186572,1.0365362,1.5290456
		c0.037714,0.0558853,0.0780802,0.1061668,0.1374416,0.1396065c-0.0558262,0.0652542-0.1116514,0.1305084-0.1674776,0.1957626
		c-0.3437853-0.5439177-0.7106876-1.0725431-1.0749092-1.602973c-0.317584-0.4625068-0.6328449-0.9265857-0.9492092-1.3899174
		c-0.0296431-0.0434146-0.0497446-0.1169548-0.1152039-0.0941148c-0.054328,0.0189557-0.023591,0.087944-0.0268068,0.1345015
		c-0.0049248,0.0712962-0.0029087,0.1430655-0.0038404,0.2146444c-0.0567093-0.2490239-0.0202913-0.5015879-0.0252638-0.7523804
		C10.8991528,6.1877871,10.8718014,6.086062,10.9263792,5.993926z"/>
	<path fill="#EA00AA" d="M18.0338478,3.1936288c0.0097141-0.0768955-0.0279751-0.1359553-0.069191-0.1963782
		c-0.2905903-0.426019-0.5766373-0.855128-0.8707809-1.2787011C17.008667,1.59585,17.0351772,1.5552957,17.1759472,1.560546
		c0.1276913,0.0123432,0.2504559,0.042626,0.3660793,0.0989443c-0.097662,0.0886203,0.0120239,0.1428221,0.0452232,0.192646
		c0.4300156,0.6453278,0.8663292,1.2865255,1.3021088,1.9280593c0.0373631,0.055007,0.0805664,0.1057146,0.0775185,0.1773419
		C18.6818428,3.6716497,18.3762016,3.4105511,18.0338478,3.1936288z"/>
	<path fill="#EA00AA" d="M21.0341015,7.4253759c-0.0782986-0.0062137-0.1058178-0.0684414-0.1430855-0.1232095
		c-0.2900944-0.4263372-0.5834732-0.8504887-0.8713036-1.2783184c-0.057478-0.0854321-0.1464462-0.1491895-0.1765003-0.2530637
		c-0.0799141-0.3277307-0.1889915-0.6460648-0.3137417-0.9593515c0.0922318,0.0186749,0.1291313,0.0959268,0.174963,0.1634021
		c0.4095192,0.6029582,0.8191357,1.2058496,1.2279034,1.809309c0.0434017,0.064074,0.0818214,0.1313419,0.1685295,0.1445069
		C21.1083736,7.0981674,21.0937042,7.2647467,21.0341015,7.4253759z"/>
	<path fill="#E200B2" d="M19.9018536,6.722651c0.28722,0.4126549,0.5736122,0.8258834,0.862999,1.2370353
		c0.027401,0.0389304,0.0735912,0.0648308,0.1110592,0.0967808c-0.0368462,0.1891785-0.1203423,0.360198-0.2090607,0.5291862
		c-0.0807018,0.0921078-0.1148911-0.0009031-0.1469955-0.0441618c-0.1048565-0.141284-0.1985664-0.2904873-0.2968426-0.4364605
		c-0.1197567-0.1778727-0.2357101-0.3583255-0.3713303-0.5252209c-0.0377159-0.0464115-0.0813065-0.0932579-0.0499134-0.1616893
		C19.8351288,7.1862974,19.8684921,6.954474,19.9018536,6.722651z"/>
	<path fill="#B400E4" d="M12.1663265,5.8432145c0.0155029-0.0963364-0.0636759-0.1474242-0.1078539-0.2129607
		c-0.2050743-0.304213-0.415678-0.6047521-0.6214924-0.9084811c-0.040885-0.0603361-0.0833149-0.1152868-0.1496468-0.1485562
		c0.0523872-0.1896033,0.1544971-0.3559408,0.2496176-0.5255475c0.0809946-0.0391092,0.1088085,0.0327978,0.140029,0.0750413
		c0.2245102,0.3037829,0.4210329,0.6266069,0.6396618,0.9345102c0.033823,0.047636,0.0424023,0.0995088,0.015563,0.1540384
		C12.2769117,5.4219108,12.2216187,5.6325626,12.1663265,5.8432145z"/>
	<path fill="#E200B2" d="M16.6089039,1.4614693c-0.0733757,0.0170301-0.1818428-0.0375886-0.2148323,0.0323533
		c-0.0291672,0.0618347,0.0606518,0.1297106,0.102644,0.1916527c0.2099743,0.3097183,0.423172,0.617293,0.6319637,0.9277891
		c0.0424042,0.0630558,0.0707226,0.1354394,0.1055336,0.2035215c-0.1799393-0.0368865-0.3612537-0.0683002-0.5343113-0.1325126
		c-0.085638-0.0114484-0.1496334-0.0456281-0.2000351-0.1244593c-0.1992836-0.3116927-0.4028893-0.6207985-0.6206579-0.9203497
		c-0.0259867-0.0357471-0.0526781-0.0719728-0.0632563-0.1155342c-0.015729-0.064769-0.0001621-0.1117549,0.0785894-0.1083164
		c0.1157618,0.0050545,0.2325029-0.0158377,0.3473558,0.0126976C16.3630981,1.4517639,16.4908047,1.4042299,16.6089039,1.4614693z"
		/>
	<path fill="#DE00B7" d="M19.8017693,7.4181209c0.0428162,0.1410856,0.1658401,0.226954,0.2422199,0.3456168
		c0.1631432,0.253459,0.3354874,0.5011063,0.5056763,0.7500496c0.0269909,0.0394783,0.0352535,0.1173706,0.1171894,0.0718651
		c-0.0485191,0.1859627-0.1573048,0.3401852-0.2646847,0.4951468c-0.061615,0.0160198-0.0936222-0.0271025-0.1209068-0.0667686
		c-0.2275658-0.3308363-0.4471588-0.6670532-0.6807499-0.9938364C19.6675987,7.8195033,19.734684,7.6188121,19.8017693,7.4181209z"
		/>
	<path fill="#DF00B6" d="M16.2418976,1.4283112c-0.0883503,0.0009177-0.1768112-0.000465-0.2650089,0.0036947
		c-0.0461912,0.0021783-0.1065588-0.0232464-0.132266,0.0368263c-0.0207806,0.0485576,0.0261889,0.0797606,0.0496931,0.1144251
		c0.2027721,0.2990364,0.4079952,0.5964401,0.6098442,0.896086c0.0539722,0.0801256,0.0869656,0.1774001,0.1957436,0.2049329
		c-0.0791111-0.0028477-0.1621037,0.021306-0.2337971-0.0331249c-0.0150127-0.0075667-0.0313663-0.0146027-0.0476894-0.0111957
		c-0.2734241,0.0570755-0.4390631-0.0675833-0.5720835-0.2969322c-0.1325798-0.228586-0.294385-0.4409235-0.4386244-0.6634009
		c-0.040741-0.0628402-0.1174517-0.1362644-0.0085058-0.2102796C15.6786366,1.4260335,15.957222,1.3655437,16.2418976,1.4283112z"/>
	<path fill="#DB00BB" d="M19.6005135,8.0201931c0.1471081,0.0840454,0.2085533,0.2383146,0.3037701,0.3649235
		c0.1714764,0.2280102,0.291851,0.4920483,0.4978867,0.6956835c-0.0736904,0.1622105-0.1610126,0.3154707-0.2928619,0.4394999
		c-0.0222092-0.0053787-0.0415916-0.0166054-0.0541553-0.0350761c-0.2280178-0.335247-0.4704418-0.6607256-0.6896038-1.0019732
		C19.4438705,8.3288984,19.522192,8.1745462,19.6005135,8.0201931z"/>
	<path fill="#DB00BA" d="M15.3992033,1.4693428c-0.0475092,0.0627357-0.0098791,0.1139472,0.0241594,0.164165
		c0.2094851,0.3090543,0.4213991,0.6165088,0.6279049,0.9275056c0.0376339,0.056674,0.0833759,0.0589554,0.140049,0.0636587
		c0.0916367,0.0076041,0.1881142-0.0301082,0.2747955,0.0264823c-0.1563854-0.0021632-0.312767-0.004323-0.4691477-0.0064831
		c-0.016305-0.0032597-0.0332947-0.0080285-0.0493212-0.0047858c-0.3115149,0.0630386-0.5071392-0.070646-0.6460562-0.3434258
		c-0.1019773-0.2002449-0.2560835-0.3712376-0.3797131-0.5600425c-0.049551-0.0756723-0.1001234-0.161449,0.0432014-0.2007852
		C15.1042519,1.4778377,15.2497883,1.4610767,15.3992033,1.4693428z"/>
	<path fill="#D600BF" d="M19.365551,8.4832506c0.1686459,0.1105356,0.2325115,0.3010111,0.3493767,0.4510508
		c0.1451092,0.1863031,0.2773209,0.3811131,0.3943806,0.5859966c-0.0796585,0.1380053-0.1725807,0.2651291-0.3018017,0.3624783
		c-0.0884418-0.0380383-0.1187954-0.1271305-0.1691017-0.1965675c-0.1900158-0.2622709-0.3760643-0.527463-0.5412273-0.8062973
		C19.1866341,8.7476921,19.2760925,8.6154718,19.365551,8.4832506z"/>
	<path fill="#BB00DD" d="M12.7668371,4.3508563c-0.0780249,0.1320825-0.1560497,0.2641654-0.2340755,0.3962479
		c-0.0478172-0.006886-0.0787525-0.0392389-0.1042414-0.074718c-0.23318-0.3245621-0.4652729-0.6498938-0.6721249-0.9920428
		c0.0924292-0.1204691,0.1661367-0.2551901,0.2785206-0.3604698c0.0626078-0.0129089,0.0885639,0.035816,0.1168795,0.0733907
		c0.2146502,0.2848387,0.3990974,0.5901775,0.6041641,0.8815827C12.7709465,4.296145,12.7832813,4.3227501,12.7668371,4.3508563z"/>
	<path fill="#B700E0" d="M11.7563953,3.6803434c0.1195784,0.0631983,0.1600571,0.1902897,0.2326231,0.2901874
		c0.1857138,0.2556617,0.3630543,0.5173147,0.5437431,0.7765729c-0.0668526,0.154717-0.1337061,0.3094325-0.2005577,0.4641519
		c0.0168133-0.0969687-0.0644979-0.1470718-0.1083536-0.2123389c-0.201417-0.2997484-0.4085531-0.5957088-0.6128445-0.8935623
		c-0.0191031-0.0278544-0.0359716-0.0553136-0.0740557-0.0576854C11.6100988,3.9252267,11.6832466,3.8027852,11.7563953,3.6803434z"
		/>
	<path fill="#C500D1" d="M13.6383505,3.4211035c-0.1124401,0.1005545-0.2248802,0.2011092-0.3373194,0.3016639
		c-0.0053635-0.0013838-0.0127697-0.0009844-0.0157976-0.0044055c-0.2597923-0.2934084-0.4605761-0.6274192-0.6668415-0.9575741
		c-0.0080528-0.0128908,0.0002422-0.0320971,0.0082941-0.0469689c0.0806322-0.1079247,0.1871729-0.1863542,0.2990112-0.2587519
		c0.0608444-0.0210388,0.0948029,0.0211728,0.1216974,0.0598342c0.1973047,0.2836208,0.3885355,0.5713379,0.5809011,0.858278
		C13.63694,3.3860719,13.6359425,3.4048548,13.6383505,3.4211035z"/>
	<path fill="#C200D5" d="M12.6266861,2.7138188c0.224781,0.3363154,0.449563,0.6726308,0.6743441,1.0089476
		c-0.0995913,0.0999637-0.1991835,0.1999259-0.2987757,0.2998886c-0.0358458-0.0050502-0.0611353-0.0276072-0.0796556-0.055017
		c-0.2129297-0.3151245-0.4369469-0.6229942-0.6321793-0.9497197C12.3955107,2.9089286,12.4808168,2.7783854,12.6266861,2.7138188z"
		/>
	<path fill="#BE00D9" d="M12.2904196,3.0179183c0.074811,0.0270953,0.1028671,0.0974126,0.1422577,0.1556392
		c0.1909723,0.2822893,0.3799143,0.5659311,0.5695763,0.8490956c-0.0784712,0.1094012-0.1569452,0.218801-0.2354183,0.3282018
		c-0.2246513-0.3246999-0.4490614-0.6495667-0.6744995-0.9737294c-0.0151663-0.0218077-0.0381002-0.0382924-0.0574207-0.0572524
		C12.1131859,3.2134712,12.1897383,3.1056371,12.2904196,3.0179183z"/>
	<path fill="#D300C3" d="M19.0971756,8.8799114c0.0678005,0.0256691,0.0958519,0.0875759,0.1324024,0.1421089
		c0.1924171,0.2870674,0.3852425,0.573864,0.5779285,0.860755c-0.0933723,0.0952396-0.152729,0.2207079-0.2676983,0.2967501
		c-0.0161457-0.004509-0.0335007-0.010375-0.0425854-0.0236454c-0.2228737-0.3256178-0.4666672-0.6371946-0.6670361-0.9779234
		C18.9191837,9.0786076,19.0081787,8.9792604,19.0971756,8.8799114z"/>
	<path fill="#D800BE" d="M14.9650755,1.5356323c-0.0517387,0.0409513-0.0817451,0.07684-0.0309029,0.1486474
		c0.2031994,0.2869862,0.4013443,0.5775785,0.5965223,0.8700178c0.0411692,0.0616846,0.0924578,0.066174,0.1552362,0.0701816
		c0.1036673,0.0066185,0.2100449-0.0249996,0.3110371,0.0201952c-0.2297888,0.0158548-0.4595737,0.0317125-0.6893587,0.0475698
		c-0.0960445,0.0378287-0.1595039-0.009263-0.209754-0.082665c-0.1831532-0.2675331-0.3642998-0.5364306-0.5416307-0.8077854
		c-0.0339155-0.0518963-0.0860977-0.1145178,0.0083408-0.1644303C14.6951141,1.5919939,14.8250074,1.544077,14.9650755,1.5356323z"
		/>
	<path fill="#C900CD" d="M13.6383505,3.4211035c-0.2293043-0.2559288-0.3888111-0.560432-0.5895529-0.8362887
		c-0.0358906-0.0493202-0.0627966-0.1043384-0.1230984-0.1297472c0.1043491-0.0875514,0.2129211-0.1690788,0.3350077-0.2313256
		c0.0522947-0.0223157,0.0687895,0.0217712,0.0876989,0.0511456c0.1723967,0.2677896,0.3574762,0.5269926,0.5383568,0.7890465
		c0.0307436,0.0445414,0.0655527,0.0903835,0.0444279,0.1510844C13.8410053,3.2941129,13.7449427,3.3649776,13.6383505,3.4211035z"
		/>
	<path fill="#D000C6" d="M14.5336113,2.9162288c-0.1004658,0.0442257-0.2009335,0.0884511-0.3013992,0.1326766
		c-0.2364063-0.323133-0.4805641-0.6410737-0.6747904-0.9924612c0.0972509-0.0835892,0.2114534-0.1333188,0.3346605-0.1650605
		c0.0636988-0.0209137,0.0916576,0.0277214,0.1176939,0.0664625c0.1751223,0.2605746,0.3591785,0.5151093,0.5326023,0.7767379
		C14.5799456,2.7912583,14.6307192,2.8604977,14.5336113,2.9162288z"/>
	<path fill="#CC00CA" d="M13.5574217,2.0564442c0.2483234,0.3151505,0.4932013,0.6326091,0.6747904,0.9924612
		c-0.0889359,0.075732-0.1924515,0.1254339-0.3010206,0.1661139c-0.2234955-0.330426-0.4469891-0.6608508-0.6704836-0.9912765
		C13.356185,2.1619897,13.4452457,2.0890219,13.5574217,2.0564442z"/>
	<path fill="#D500C0" d="M14.5645657,1.6373634c-0.0486746,0.0588714-0.003583,0.0989729,0.02701,0.1443706
		c0.1813011,0.2690303,0.3629265,0.5378754,0.5406847,0.8092074c0.0434923,0.0663877,0.0945148,0.1055498,0.1753378,0.1012998
		c-0.1465015,0.0342782-0.2930145,0.0685534-0.4395275,0.1028287c-0.2282448-0.2956164-0.4225874-0.614048-0.629673-0.9238758
		c-0.0329218-0.0492549-0.0449047-0.1031746,0.0263329-0.1368817C14.3603249,1.6887422,14.4580107,1.6495407,14.5645657,1.6373634z"
		/>
	<path fill="#D200C3" d="M14.2647305,1.7343124c-0.05474,0.0667796,0.0025339,0.111078,0.0341501,0.158617
		c0.1642551,0.2469841,0.3290634,0.4936153,0.4953346,0.739266c0.0343132,0.0506938,0.0682735,0.1000295,0.0738544,0.1628704
		c-0.1114855,0.0403914-0.2229729,0.0807791-0.3344584,0.1211648c0.0189791-0.0341458,0.0368404-0.0680947,0.0090332-0.1064599
		c-0.2201996-0.3037901-0.4048338-0.6323981-0.6505585-0.9183844C14.0060425,1.8150574,14.1324081,1.7677242,14.2647305,1.7343124z"
		/>
	<path fill="#D000C7" d="M18.8301868,9.1779556c0.1577663,0.1128683,0.220232,0.2967939,0.3344154,0.4422007
		c0.1390781,0.1771069,0.2637215,0.3639336,0.375206,0.5593681c-0.1977634,0.1516237-0.201149,0.1491642-0.3494205-0.0324135
		c-0.1589375-0.1946421-0.3132076-0.3945589-0.4883118-0.5741177c-0.1106205-0.1134367-0.1244774-0.1914129,0.0055218-0.2862883
		C18.7515507,9.2546263,18.7894974,9.2144375,18.8301868,9.1779556z"/>
	<path fill="#EA00AA" d="M21.1085358,6.9031496c-0.0014534-0.1350098-0.0029049-0.2700191-0.0043774-0.4050293
		c0.0014648-0.1239171,0.0029488-0.2478337,0.0044365-0.3717604C21.151392,6.3852863,21.1512852,6.6442199,21.1085358,6.9031496z"/>
	<path fill="#1F1F22" d="M16.4921417,6.3227191c-0.0063572-0.2451253,0.0435219-0.5120225,0.2205219-0.7411838
		c0.2413254-0.3124404,0.645649-0.3132687,0.8906307-0.0048747c0.3090782,0.3890829,0.307848,1.1846304-0.0024261,1.5716224
		c-0.2460575,0.3068943-0.6487007,0.3022332-0.8911476-0.0103178C16.5605354,6.9456453,16.491869,6.6998854,16.4921417,6.3227191z"
		/>
</g>
</svg>
