<?xml version="1.0" encoding="utf-8"?>
<!-- Generator: Adobe Illustrator 23.0.0, SVG Export Plug-In . SVG Version: 6.00 Build 0)  -->
<svg version="1.2" baseProfile="tiny" id="Слой_1"
	 xmlns="http://www.w3.org/2000/svg" xmlns:xlink="http://www.w3.org/1999/xlink" x="0px" y="0px" width="32px" height="13px"
	 xml:space="preserve">
<g>
	<path fill="#1F1F22" d="M22.7093315,5.5496068c0.0204487,0.0059452,0.0245628,0.0192161,0.0171413,0.0376592
		c-0.0077229,0.0772862-0.0368862,0.1562123,0.0177555,0.2287292c0.0198326,0.0066805,0.0231876,0.0201302,0.0158329,0.0379772
		c-0.0075302,0.1103621-0.0376434,0.2217579,0.0153065,0.32935c0.0356712,0.2367764,0.0479031,0.4733706-0.0055962,0.7094536
		c-0.0406017,0.0963111-0.021389,0.1944747-0.0091953,0.2924218c0.0052567,0.0262628,0.0124512,0.0530229-0.0182724,0.0700369
		c-0.0506096,0.0620747-0.026783,0.1298552-0.0153046,0.1966896c0.0072956,0.0174723,0.0039482,0.0306091-0.0153961,0.0372272
		c-0.0542145,0.0489674-0.0288048,0.1066737-0.0181332,0.1627631c-0.1234627,0.63381-0.3194618,1.2432928-0.6261139,1.8144875
		c-0.9476032,1.7650747-2.4083958,2.8665895-4.3674679,3.3217783c-0.0913353,0.0212202-0.1841812,0.036046-0.2763214,0.0538511
		c-0.0549812,0.0005522-0.1142406-0.03125-0.1623631,0.0211592c-0.0059452,0.0203037-0.0193138,0.0243826-0.0378895,0.0170794
		c-0.0863705-0.0092583-0.1734657-0.0347576-0.2573643,0.0113211c-0.0181122,0.0345783-0.0482178,0.0284328-0.0782051,0.0226917
		c-0.3688793-0.0129452-0.7377548-0.0136843-1.1066275,0.0002718c-0.0386391,0.0023022-0.0808277,0.0203791-0.1089325-0.0241432
		c-0.06248-0.0414734-0.1280212-0.0213785-0.1931562-0.0094595c-0.0264711,0.0051565-0.0534248,0.0121393-0.070507-0.0183134
		c-0.0507545-0.0485992-0.1081839-0.0263462-0.1645603-0.0152731c-0.0182657,0.0071373-0.0314045,0.0031281-0.037199-0.0168524
		c-0.049511-0.0601292-0.1245975-0.0066748-0.1801519-0.0399647c-0.4330454-0.0519133-0.8397942-0.1980934-1.2334204-0.3713064
		c-1.9594812-0.8622589-3.1934633-2.3415689-3.7506113-4.386755C9.9967842,7.8643875,9.9752235,7.6897845,9.9424028,7.5182023
		C9.9542255,7.4624839,9.9746685,7.4060516,9.928688,7.3551216C9.8869123,7.32727,9.9056683,7.2879033,9.9086876,7.2515311
		c0.0097523-0.0774312,0.0348806-0.1557655-0.0136881-0.229773C9.8471003,6.9697518,9.8749523,6.9090214,9.8750944,6.8514824
		C9.8943233,6.629931,9.8943338,6.4083805,9.8750887,6.1868296C9.8751526,6.1275835,9.8469009,6.0644431,9.8994389,6.012414
		c0.042367-0.0735974,0.0190935-0.1498766,0.0093584-0.2256036C9.9031477,5.7608466,9.895504,5.7344351,9.92488,5.7163467
		c0.05268-0.0494461,0.0284472-0.1068616,0.0171347-0.1629381c0.2588606-1.5926378,1.0038605-2.9163413,2.2472258-3.9545624
		c0.8747606-0.7304331,1.8793421-1.1967093,3.0104294-1.3854772c0.0265799-0.0044359,0.0522108-0.0144625,0.0782852-0.0218814
		c0.0561581,0.0149261,0.1121216,0.0243737,0.1666727-0.0058452C15.46527,0.1711933,15.482233,0.1477551,15.513011,0.1580692
		c0.0756826,0.0103581,0.1518183,0.0305889,0.2251539-0.0101798c0.0411844-0.0500837,0.0947218-0.024657,0.1443272-0.0232605
		c0.2903671,0.0188533,0.5807304,0.0191075,0.8710899-0.000179c0.057766-0.0002709,0.1186695-0.0275659,0.1709366,0.019548
		c0.074688,0.0486136,0.1538734,0.0233748,0.2320957,0.0139151c0.0265503-0.0056323,0.0536118-0.0132038,0.0705032,0.0181437
		c0.0507946,0.048522,0.1081924,0.0264521,0.1645794,0.0151706c0.8268604,0.1461637,1.6056614,0.4232709,2.3189583,0.865199
		c1.5202885,0.9419013,2.4794483,2.2896063,2.9165859,4.009264c0.0269241,0.1059251,0.0438766,0.2143483,0.0654697,0.321609
		C22.68293,5.4429479,22.6587219,5.500051,22.7093315,5.5496068z"/>
	<path fill="#1B1B1E" d="M15.7811174,12.9145546c0.1162186-0.0597134,0.2412367-0.0281906,0.3605623-0.0251455
		c0.2486515,0.0063457,0.4994297-0.0377245,0.7460651,0.0248737C16.5188751,12.9430752,16.1499996,12.9411669,15.7811174,12.9145546
		z"/>
	<path fill="#141417" d="M16.753582,0.1244498c-0.2903538,0.0462219-0.5807171,0.0460201-0.8710899,0.000179
		C16.1728554,0.1245691,16.4632187,0.1245095,16.753582,0.1244498z"/>
	<path fill="#151518" d="M9.8750887,6.1868296c0.0456257,0.2215509,0.0456352,0.4431019,0.0000057,0.6646528
		C9.8750916,6.6299314,9.8750906,6.4083805,9.8750887,6.1868296z"/>
	<path fill="#151518" d="M22.7753677,6.1833224c-0.0746593-0.1065989-0.0512104-0.2176895-0.0153065-0.32935
		C22.7651634,5.9637556,22.7702656,6.0735393,22.7753677,6.1833224z"/>
	<path fill="#141417" d="M22.7605762,7.1851978c-0.0509071-0.0963655-0.0264473-0.1974597-0.018322-0.2974281
		c0.0001354-0.0016642,0.0093575-0.0043535,0.0136948-0.0034652c0.004982,0.001019,0.0092468,0.0054965,0.0138226,0.0084715
		C22.7667046,6.9902496,22.7636414,7.0877237,22.7605762,7.1851978z"/>
	<path fill="#161619" d="M16.96595,12.8915911c0.0826473-0.0741224,0.1701126-0.0403261,0.2573643-0.0113211
		C17.1375256,12.8840446,17.0517387,12.8878174,16.96595,12.8915911z"/>
	<path fill="#17171A" d="M15.7381649,0.1478893c-0.0717201,0.0759826-0.1485586,0.0404146-0.2251539,0.0101798
		C15.5880623,0.1546759,15.6631136,0.1512826,15.7381649,0.1478893z"/>
	<path fill="#161619" d="M9.9087973,5.7868104C9.9566422,5.8607783,9.937149,5.9401126,9.9268942,6.0185533
		C9.926671,6.020257,9.9172201,6.0225358,9.9128304,6.021472C9.907917,6.0202808,9.9038658,6.0155845,9.8994389,6.012414
		C9.9025583,5.9372129,9.9056778,5.8620119,9.9087973,5.7868104z"/>
	<path fill="#161619" d="M17.1566143,0.1579129c-0.0799561,0.0379304-0.1588078,0.0576968-0.2320957-0.0139151
		C17.0018845,0.1486361,17.0792484,0.1532745,17.1566143,0.1579129z"/>
	<path fill="#151518" d="M22.7442284,5.8159952c-0.0791073-0.0706458-0.0537281-0.1492825-0.0177555-0.2287292
		C22.7323933,5.6635089,22.7383099,5.7397518,22.7442284,5.8159952z"/>
	<path fill="#161619" d="M9.8949995,7.0217581c0.0716219,0.0726552,0.0522814,0.1506495,0.0136881,0.229773
		C9.9041252,7.1749401,9.8995619,7.0983486,9.8949995,7.0217581z"/>
	<path fill="#151519" d="M15.4790287,12.8809519c0.0631199-0.0475512,0.132432-0.0287714,0.2008152-0.0178061
		c0.001585,0.0002546,0.0033789,0.0099411,0.0020761,0.0143566c-0.0014257,0.0048313-0.006341,0.0086489-0.0097351,0.0129089
		C15.6077995,12.8872576,15.5434141,12.8841047,15.4790287,12.8809519z"/>
	<path fill="#161619" d="M22.7269974,7.4519243c-0.038044-0.0688705-0.0550461-0.1361289,0.0153046-0.1966896
		C22.7372017,7.3207979,22.7320995,7.3863611,22.7269974,7.4519243z"/>
	<path fill="#161619" d="M15.4446278,0.1856425c-0.0538292,0.0505044-0.1096201,0.0458986-0.1666727,0.0058454
		C15.3335123,0.1895395,15.3890705,0.187591,15.4446278,0.1856425z"/>
	<path fill="#151518" d="M17.3916969,0.1912272c-0.0587559,0.0365927-0.115509,0.0517799-0.1645794-0.0151706
		C17.2819786,0.1811135,17.3368378,0.1861704,17.3916969,0.1912272z"/>
	<path fill="#151518" d="M22.7093315,5.5496068c-0.0689487-0.0477057-0.0522594-0.1040511-0.0166206-0.1623077
		C22.6982517,5.441402,22.7037926,5.4955044,22.7093315,5.5496068z"/>
	<path fill="#151518" d="M9.9420147,5.5534086C9.97896,5.6121407,9.9959593,5.6688066,9.92488,5.7163467
		C9.9305916,5.662034,9.9363041,5.6077213,9.9420147,5.5534086z"/>
	<path fill="#17171A" d="M9.928688,7.3551216c0.0647974,0.0493708,0.0509462,0.1052575,0.0137138,0.1630812
		C9.9378309,7.4638424,9.93326,7.409482,9.928688,7.3551216z"/>
	<path fill="#151518" d="M22.69347,7.6519146c-0.0363884-0.0589118-0.0543976-0.1158066,0.0181332-0.1627631
		C22.7055569,7.543406,22.6995125,7.5976601,22.69347,7.6519146z"/>
	<path fill="#151518" d="M15.0266104,12.7905483c0.0616369,0.006279,0.1340036-0.0351,0.1801519,0.0399647
		C15.1490383,12.806859,15.0770102,12.8467293,15.0266104,12.7905483z"/>
	<path fill="#161619" d="M15.2439613,12.8473654c0.0587673-0.0364552,0.1155424-0.0517616,0.1645603,0.0152731
		C15.3536682,12.8575478,15.2988148,12.8524561,15.2439613,12.8473654z"/>
	<path fill="#151519" d="M17.2612038,12.8631907c0.0458603-0.0694923,0.1035767-0.0493784,0.1623631-0.0211582
		C17.3694458,12.8490849,17.3153229,12.8561373,17.2612038,12.8631907z"/>
	<path fill="#313134" d="M16.2768154,1.389927c1.1347198,0.0199382,2.1747742,0.3328426,3.0898819,1.0083953
		c0.6578159,0.4856124,1.1874504,1.0875254,1.5584908,1.8161724c0.2523193,0.4955039,0.4299049,1.0164495,0.5021553,1.5720601
		c0.0385971,0.2967844,0.0749588,0.5923357,0.0615845,0.8913298c-0.0283909,0.6346369-0.1576004,1.2477021-0.4138126,1.8318954
		c-0.2469254,0.5630159-0.568655,1.0761404-1.0104046,1.5119991c-0.0859852,0.0848379-0.1565056,0.181921-0.2541771,0.2598152
		c-0.0892944,0.0712137-0.1371975,0.0648098-0.2040443-0.0133038c-0.2089577-0.2441864-0.4200287-0.4866056-0.6316071-0.72857
		c-0.0805759-0.0921488-0.0019569-0.1415796,0.0526428-0.1917343c0.3484955-0.3201323,0.6241093-0.69559,0.8248348-1.1196175
		c0.2046108-0.4322286,0.3243771-0.8868823,0.3677464-1.3688703c0.0642204-0.7136884-0.0584068-1.3895845-0.3602219-2.0292501
		C19.57407,4.2244883,19.1478062,3.7261841,18.58708,3.3428361c-0.6972694-0.4766979-1.4634132-0.7146015-2.310276-0.6945815
		c-0.039856-0.0450041-0.043993-0.1007659-0.0445461-0.1561706c-0.0031586-0.3153255-0.0031643-0.6306667,0.0000038-0.9459922
		C16.2328167,1.4906894,16.2369404,1.4349228,16.2768154,1.389927z"/>
	<path fill="#E7B906" d="M16.2768154,1.389927c-0.0000076,0.4194448-0.0000134,0.8388897-0.0000153,1.2583312
		c-1.2313805,0.009222-2.2267685,0.5052402-3.0020466,1.4446359c-0.6522388,0.7903113-0.9167585,1.7080922-0.8510056,2.717351
		c0.0346003,0.5310745,0.1680412,1.0430245,0.4345026,1.5136123c0.0510025,0.0900726,0.1129961,0.1788902,0.1113319,0.2901468
		c-0.1376047,0.1732302-0.3480473,0.2447405-0.5231276,0.365365c-0.1400919,0.0965204-0.2888737,0.1811008-0.429388,0.2777719
		c-0.3241053-0.378396-0.482708-0.8360281-0.6331244-1.29812c-0.194521-0.5975857-0.2387333-1.2137761-0.195776-1.8328876
		c0.0545969-0.7868352,0.2975349-1.5222883,0.7041378-2.20121c0.2425308-0.4049649,0.5294552-0.7779133,0.8752022-1.1015606
		c0.7379141-0.6907487,1.6090012-1.1300434,2.6015358-1.332391C15.6682472,1.4299731,15.974225,1.4237759,16.2768154,1.389927z"/>
	<path fill="#F2C203" d="M15.906662,6.0070481c0.2646713-0.1094313,0.5136108-0.1327477,0.7647133-0.0871615
		c0.5960979,0.1082158,0.9808941,0.5377469,1.0099678,1.1167593c0.0311184,0.6196938-0.3099327,1.1164751-0.9076271,1.2708921
		c-0.6341438,0.1638355-1.2140121,0.0314999-1.730196-0.3760958c-0.1173077-0.0926313-0.1228867-0.1655726-0.0050535-0.2527332
		c0.0176153-0.0130315,0.0316772-0.0308032,0.0473461-0.0464172c0.1044445-0.1040764,0.1916494-0.2521367,0.31779-0.3008199
		c0.1488113-0.0574331,0.2197342,0.1467218,0.3465309,0.2089429c0.2507668,0.123054,0.5011902,0.1759281,0.7695065,0.0801616
		c0.2327709-0.0830803,0.3694515-0.2921648,0.3540764-0.5289063c-0.0156193-0.2405295-0.1720505-0.4265156-0.4135094-0.4853449
		c-0.2609825-0.0635872-0.4978733-0.0181537-0.704711,0.1598091c-0.0907612,0.0780916-0.5377598,0.0859265-0.6223869,0.0147595
		c-0.0484915-0.040781-0.0297709-0.0950384-0.0267506-0.1430616c0.0387154-0.6155825,0.0822544-1.2308822,0.1173601-1.8466587
		c0.0064135-0.1124535,0.0568047-0.1281843,0.1525564-0.1277514c0.643899,0.0029116,1.2878408,0.0044537,1.9317064-0.0010524
		c0.1220646-0.0010433,0.1434155,0.0441103,0.1468067,0.1535654c0.0181084,0.584651,0.0211372,0.5845528-0.5574799,0.5845623
		c-0.2738476,0.0000043-0.5478191,0.004858-0.8214855-0.0021186c-0.1240768-0.0031619-0.175786,0.0390048-0.1705074,0.1633368
		C15.9111948,5.7001853,15.906662,5.8390903,15.906662,6.0070481z"/>
	<path fill="#F2C511" d="M12.017067,9.2571411c0.0081778-0.1234989,0.1285028-0.1299458,0.2012949-0.177947
		c0.2457294-0.1620483,0.5001307-0.3111391,0.7512188-0.465188c0.1777954,0.2116547,0.3282108,0.4451141,0.5245342,0.6421671
		c0.2137041,0.2144976,0.2115812,0.2151585,0.010932,0.4442625c-0.1609669,0.1837959-0.3238592,0.3661938-0.4775667,0.5558624
		c-0.0635948,0.078475-0.1032696,0.0710268-0.1707516,0.0076485C12.5352993,9.9620686,12.2465715,9.63416,12.017067,9.2571411z"/>
</g>
</svg>
