<?xml version="1.0" encoding="utf-8"?>
<!-- Generator: Adobe Illustrator 23.0.0, SVG Export Plug-In . SVG Version: 6.00 Build 0)  -->
<svg version="1.2" baseProfile="tiny" id="Слой_1"
	 xmlns="http://www.w3.org/2000/svg" xmlns:xlink="http://www.w3.org/1999/xlink" x="0px" y="0px" width="32px" height="13px"
	 xml:space="preserve">
<g>
	<path fill="#1F1F22" d="M9.8948631,6.9769931C9.847271,6.9253197,9.8749447,6.8649778,9.8750858,6.807807
		c0.0191069-0.2201333,0.0191164-0.4402661-0.0000057-0.660399C9.875144,6.088541,9.8470736,6.0258045,9.8992748,5.9741087
		C9.941371,5.9009824,9.9182463,5.8251905,9.9085741,5.7499485C9.9029589,5.7241511,9.8953676,5.6979084,9.9245529,5.6799359
		c0.0523443-0.04913,0.028265-0.1061778,0.0170259-0.1618953c0.2572041-1.5824461,0.9974451-2.8976772,2.2328625-3.929255
		c0.8691692-0.7257591,1.8673334-1.1890496,2.9911909-1.3766106c0.0264091-0.0044077,0.051877-0.0143701,0.0777845-0.0217416
		c0.0557995,0.0148305,0.1114054,0.0242176,0.1656075-0.0058079c0.0205116-0.0143567,0.0373669-0.0376455,0.0679474-0.0273969
		c0.0751982,0.0102914,0.1508474,0.0303941,0.2237139-0.0101147c0.0409212-0.0497632,0.0941162-0.0244992,0.143405-0.0231117
		c0.2885122,0.0187327,0.5770197,0.0189853,0.8655214-0.0001778c0.0573978-0.0002692,0.1179123-0.0273896,0.1698456,0.0194229
		c0.0742111,0.0483027,0.1528893,0.0232252,0.2306118,0.0138261c0.0263824-0.0055963,0.0532684-0.0131192,0.0700531,0.0180276
		c0.0504704,0.0482115,0.1075001,0.0262828,0.1635284,0.0150736c0.8215752,0.1452281,1.5953999,0.4205611,2.3041363,0.859661
		c1.5105686,0.9358757,2.463604,2.2749515,2.8979435,3.9836054c0.0267544,0.105248,0.0436001,0.2129779,0.0650539,0.3195529
		c-0.0097198,0.0552917-0.0337677,0.1120286,0.0165119,0.1612682c0.0203152,0.0059085,0.0244122,0.0190916,0.0170345,0.0374188
		c-0.0076733,0.0767913-0.0366516,0.1552119,0.0176392,0.2272649c0.0197067,0.0066381,0.0230427,0.02,0.0157356,0.037735
		c-0.0074844,0.1096559-0.0374031,0.2203383,0.0152073,0.3272424c0.0354443,0.235261,0.0475979,0.4703412-0.0055599,0.7049131
		c-0.0403423,0.0956945-0.0212517,0.1932306-0.0091362,0.2905502c0.0052242,0.0260949,0.0123711,0.0526838-0.0181561,0.0695887
		c-0.0502853,0.0616779-0.0266132,0.1290245-0.0152073,0.1954312c0.0072498,0.0173602,0.0039234,0.0304132-0.0152969,0.0369892
		c-0.0538692,0.0486536-0.0286217,0.1059909-0.0180168,0.1617212c-0.1226749,0.6297531-0.3174229,1.2353344-0.6221142,1.8028736
		c-0.9415455,1.7537785-2.3929996,2.8482437-4.33955,3.3005199c-0.0907536,0.0210857-0.1830063,0.0358181-0.2745609,0.0535088
		c-0.0546284,0.0005493-0.1135101-0.0310497-0.1613235,0.0210238c-0.0059071,0.020174-0.0191917,0.0242271-0.0376472,0.0169706
		c-0.0858192-0.0091991-0.1723576-0.0345364-0.2557201,0.0112486c-0.0179958,0.0343571-0.0479107,0.0282507-0.0777054,0.0225468
		c-0.3665218-0.0128622-0.7330399-0.0135975-1.099555,0.0002699c-0.0383921,0.0022869-0.0803108,0.0202484-0.1082354-0.0239897
		c-0.0620813-0.0412073-0.1272039-0.0212412-0.1919231-0.0093985c-0.0263014,0.0051241-0.0530825,0.0120621-0.070056-0.0181961
		c-0.0504303-0.0482883-0.1074924-0.0261784-0.1635084-0.0151758c-0.0181484,0.0070925-0.0312042,0.003109-0.0369606-0.0167446
		c-0.0491953-0.0597439-0.1238012-0.0066319-0.1790018-0.0397081c-0.4302778-0.0515804-0.8344269-0.1968231-1.2255363-0.368928
		c-1.9469547-0.8567429-3.1730509-2.3265839-3.7266407-4.3586807C9.9959993,7.8142323,9.974576,7.6407447,9.9419651,7.4702606
		c0.0117464-0.0553622,0.0320587-0.1114335-0.0136271-0.1620369C9.8868284,7.28055,9.9054651,7.241436,9.9084654,7.205296
		C9.9181538,7.1283603,9.9431238,7.0505276,9.8948631,6.9769931z"/>
	<path fill="#1B1B1E" d="M15.7433634,12.8320789c0.1154766-0.0593309,0.2396955-0.0280104,0.3582582-0.0249853
		c0.2470627,0.0063057,0.4962368-0.0374823,0.7412968,0.0247154C16.476408,12.8604164,16.1098881,12.8585205,15.7433634,12.8320789z
		"/>
	<path fill="#141417" d="M16.7096119,0.1238245c-0.2884979,0.0459261-0.5770054,0.0457257-0.8655214,0.0001778
		C16.132597,0.1239431,16.4211044,0.1238838,16.7096119,0.1238245z"/>
	<path fill="#151518" d="M9.8750801,6.147408c0.0453348,0.2201328,0.0453434,0.4402661,0.0000057,0.660399
		C9.8750839,6.5876741,9.875083,6.3675408,9.8750801,6.147408z"/>
	<path fill="#151518" d="M22.6929131,6.1439233c-0.0741825-0.105917-0.0508823-0.2162962-0.0152073-0.3272424
		C22.6827736,5.9257617,22.6878433,6.0348425,22.6929131,6.1439233z"/>
	<path fill="#141417" d="M22.6782169,7.1393867c-0.050581-0.0957484-0.0262794-0.1961961-0.0182056-0.2955241
		c0.0001354-0.0016537,0.0092983-0.0043259,0.013607-0.0034437c0.0049496,0.0010133,0.0091896,0.0054617,0.0137348,0.0084176
		C22.6843052,6.9456863,22.6812611,7.0425367,22.6782169,7.1393867z"/>
	<path fill="#161619" d="M16.9206238,12.8092623c0.082119-0.0736485,0.1690254-0.0400686,0.2557201-0.0112486
		C17.0911026,12.8017635,17.0058651,12.8055124,16.9206238,12.8092623z"/>
	<path fill="#17171A" d="M15.7006855,0.1471141c-0.0712605,0.0754962-0.1476097,0.0401563-0.2237139,0.0101147
		C15.5515432,0.1538572,15.6261139,0.1504856,15.7006855,0.1471141z"/>
	<path fill="#161619" d="M9.9085741,5.7499485C9.956111,5.8234434,9.9367447,5.9022698,9.9265537,5.9802089
		C9.9263325,5.9819021,9.9169426,5.9841642,9.9125814,5.9831071c-0.0048819-0.001183-0.0089083-0.0058484-0.0133066-0.0089984
		C9.9023743,5.8993888,9.9054737,5.8246689,9.9085741,5.7499485z"/>
	<path fill="#151518" d="M22.6619701,5.7789459C22.583374,5.7087517,22.6085854,5.630619,22.644331,5.551681
		C22.6502113,5.6274362,22.6560917,5.7031913,22.6619701,5.7789459z"/>
	<path fill="#161619" d="M17.1100693,0.1570735c-0.079443,0.0376877-0.1577911,0.0573276-0.2306118-0.0138261
		C16.9563293,0.1478561,17.0331974,0.1524648,17.1100693,0.1570735z"/>
	<path fill="#161619" d="M9.8948631,6.9769931c0.0711651,0.0721903,0.0519466,0.1496854,0.0136023,0.2283034
		C9.9039316,7.1291947,9.8993969,7.0530944,9.8948631,6.9769931z"/>
	<path fill="#151519" d="M15.4432049,12.7986908c0.0627174-0.0472469,0.1315861-0.0285873,0.1995325-0.0176916
		c0.0015755,0.0002527,0.0033569,0.0098772,0.0020628,0.0142641c-0.0014162,0.0048008-0.0063009,0.0085936-0.0096722,0.012826
		C15.5711536,12.8049555,15.5071802,12.8018236,15.4432049,12.7986908z"/>
	<path fill="#161619" d="M22.6448517,7.4044065c-0.0377998-0.0684299-0.0546951-0.1352577,0.0152073-0.1954312
		C22.6549911,7.2741189,22.6499214,7.3392625,22.6448517,7.4044065z"/>
	<path fill="#161619" d="M15.4090242,0.1846257c-0.0534849,0.0501812-0.1089191,0.0456049-0.1656075,0.0058079
		C15.2986193,0.1884976,15.3538227,0.1865616,15.4090242,0.1846257z"/>
	<path fill="#151518" d="M22.6272964,5.5142622c-0.0685196-0.0473995-0.0519123-0.1033864-0.0165119-0.1612682
		C22.6162891,5.4067497,22.6217937,5.4605064,22.6272964,5.5142622z"/>
	<path fill="#151518" d="M9.9415789,5.5180407C9.9782877,5.5763965,9.9951792,5.6327,9.9245529,5.6799359
		C9.9302292,5.6259708,9.9359045,5.5720057,9.9415789,5.5180407z"/>
	<path fill="#151518" d="M17.3436508,0.1901747c-0.058382,0.0363584-0.1147709,0.0514487-0.1635284-0.0150736
		C17.2346325,0.1801257,17.2891407,0.1851502,17.3436508,0.1901747z"/>
	<path fill="#17171A" d="M9.9283381,7.3082237c0.0643826,0.0490546,0.050621,0.1045833,0.0136251,0.1620374
		C9.9374218,7.4162483,9.9328794,7.3622355,9.9283381,7.3082237z"/>
	<path fill="#151518" d="M22.6115398,7.603117c-0.0361576-0.0585346-0.0540504-0.1150651,0.0180168-0.1617212
		C22.6235504,7.4953027,22.6175442,7.5492096,22.6115398,7.603117z"/>
	<path fill="#161619" d="M15.2096405,12.7653189c0.0583916-0.0362215,0.1148033-0.0514297,0.1635084,0.0151758
		C15.3186464,12.7754364,15.264143,12.7703772,15.2096405,12.7653189z"/>
	<path fill="#151519" d="M17.2139912,12.7810431c0.0455666-0.0690479,0.1029148-0.0490618,0.1613235-0.0210228
		C17.3215408,12.7670279,17.267765,12.7740355,17.2139912,12.7810431z"/>
	<path fill="#151518" d="M14.9936781,12.7088661c0.0612421,0.0062408,0.1331491-0.0348797,0.1790018,0.0397081
		C15.115324,12.7250719,15.0437555,12.7646875,14.9936781,12.7088661z"/>
	<path fill="#FE0000" d="M17.1036148,2.737781c-0.3542786-0.0789478-0.7143459-0.0871577-1.0740871-0.0716136
		c-0.8144913,0.0351942-1.5417271,0.3087623-2.1813059,0.8109775c-0.6731787,0.528599-1.1275072,1.2023437-1.3503227,2.0253909
		c-0.1272659,0.4701047-0.1563826,0.9457111-0.1049242,1.433681c0.0563221,0.5340924,0.2351437,1.017756,0.472023,1.4947639
		c0.1751871,0.3527756,0.4144936,0.6445332,0.6971874,0.9081936c0.070837,0.0660677,0.0866938,0.106823,0.0158567,0.184576
		c-0.1825037,0.2003222-0.3531914,0.4112072-0.5341234,0.6129951c-0.1319094,0.1471148-0.1833744,0.1460304-0.3234558,0.013876
		c-0.2629385-0.2480564-0.4779711-0.5351515-0.6966667-0.8211193c-0.473897-0.6196737-0.7240257-1.3287926-0.8397837-2.0838566
		c-0.0902033-0.5883803-0.0686045-1.1811218,0.0557718-1.7681355c0.1729822-0.8164043,0.5349817-1.5417371,1.0583105-2.1892791
		c0.4065828-0.5030878,0.9052038-0.8993578,1.4699535-1.2158391c0.5153151-0.2887793,1.0679398-0.4804459,1.6479654-0.5786837
		c0.6799622-0.1151644,1.3605537-0.1040815,2.0301666,0.0872389c0.1040287,0.0211716,0.1140213,0.0937697,0.0873547,0.1745521
		c-0.0976543,0.2958113-0.1811695,0.5961646-0.2878265,0.8889712C17.2239532,2.7041941,17.1952591,2.7735655,17.1036148,2.737781z"
		/>
	<path fill="#313134" d="M20.7920685,6.5110307c0.1610374-0.0000811,0.3223324,0.0054092,0.4830208-0.0019798
		c0.1100349-0.0050592,0.1479111,0.0345802,0.1415787,0.1424346c-0.0366135,0.6235871-0.1598663,1.2272148-0.4120274,1.801857
		c-0.2451687,0.5587177-0.5648041,1.0675659-1.0014019,1.5020189c-0.0929298,0.092473-0.1708698,0.1971836-0.278698,0.2783117
		c-0.0746307,0.0561504-0.1139145,0.042141-0.1645088-0.0161352c-0.216383-0.2492409-0.4341927-0.4972668-0.6496716-0.7472715
		c-0.071394-0.0828342,0.003788-0.1314831,0.0542641-0.1776009c0.334137-0.3052998,0.6004772-0.6630907,0.7986565-1.0655012
		c0.2198181-0.4463487,0.3714199-0.9153419,0.3859997-1.419384c0.0021973-0.0759692,0.02421-0.151186,0.0331345-0.2272048
		c0.0083179-0.0708742,0.0590839-0.0692344,0.1098881-0.0693374C20.4588909,6.510901,20.6254807,6.5111113,20.7920685,6.5110307z"/>
	<path fill="#FE0300" d="M17.2369003,6.3187556c0.3102608,0.2048426,0.5400524,0.4467773,0.5694408,0.82162
		c0.0495415,0.6319494-0.383625,1.1251197-1.1096821,1.2348399c-0.3911705,0.0591135-0.7765646,0.016818-1.1270695-0.1901054
		c-0.7174215-0.4235344-0.7542953-1.3217397-0.074852-1.8006186c0.0290775-0.0204945,0.0580387-0.0411496,0.0992441-0.0703764
		c-0.228466-0.1822143-0.4142818-0.3786044-0.4438438-0.6721377c-0.0417128-0.4141803,0.1724234-0.7909718,0.5757713-0.9980063
		c0.3862143-0.1982403,0.7870569-0.2122626,1.1956644-0.0737271C17.6275597,4.8096042,18.0145741,5.6930737,17.2369003,6.3187556z"
		/>
	<path fill="#FE4700" d="M20.3144608,6.4391699c-0.1261616,0.0353317-0.1804371-0.0269742-0.1885567-0.1422205
		c-0.0080109-0.1136827-0.0098228-0.2277946-0.0143547-0.3417187c-0.028923-0.0823259-0.0119152-0.1622267,0.0127716-0.2417946
		c0.150074-0.4837174,0.3165913-0.9620781,0.4796696-1.4415207c0.0243378-0.0715451,0.0241013-0.1724243,0.1395626-0.1778579
		c0.0913944,0.1472135,0.1659088,0.3027258,0.2310047,0.4628673c-0.2239513,0.5226769-0.3532219,1.0771599-0.5491772,1.6091924
		C20.3914776,6.2581697,20.3834476,6.3610535,20.3144608,6.4391699z"/>
	<path fill="#FE4D00" d="M20.3144608,6.4391699c-0.003933-0.0558796,0.0107975-0.1075654,0.0282822-0.1605811
		c0.1718483-0.521018,0.340292-1.0431476,0.5137291-1.5636406c0.0205231-0.0616007,0.0171375-0.1512871,0.1180859-0.1580234
		c0.0627308,0.163126,0.1517353,0.3174286,0.1690025,0.495821c-0.1302528,0.2500319-0.1939812,0.5236721-0.2806187,0.7889023
		c-0.0494175,0.1512823-0.0972481,0.3031783-0.1479874,0.4540792c-0.0190258,0.0565825-0.0327663,0.1184206-0.0991879,0.1434422
		C20.5153313,6.4391694,20.4148941,6.4391699,20.3144608,6.4391699z"/>
	<path fill="#FE4000" d="M20.7435532,4.0940576c-0.0716362,0.03406-0.0709705,0.1092329-0.09091,0.1689038
		c-0.1552773,0.4646716-0.3064957,0.9306803-0.4592018,1.3961997c-0.0319633,0.0974312-0.1028309,0.1842017-0.0818882,0.2960539
		c-0.0559654-0.2337995-0.1119289-0.4676151-0.1678905-0.7014308c0.1683369-0.441987,0.2895069-0.8994851,0.4495029-1.3440976
		c0.0238571-0.0663004,0.0230694-0.1764135,0.1499672-0.1477385C20.625452,3.8634288,20.6997604,3.9696722,20.7435532,4.0940576z"/>
	<path fill="#FE1300" d="M18.4750633,3.3333635c-0.0997162-0.0644002-0.1994286-0.1288002-0.2991447-0.1932001
		c-0.0331001-0.0440202-0.0295296-0.0921271-0.0139828-0.1404569c0.0985813-0.3064642,0.2015152-0.6114974,0.3067627-0.9157648
		c0.0147095-0.0425291,0.040329-0.0770726,0.0770435-0.1034693c0.1198196,0.0480365,0.2368317,0.1010586,0.3357925,0.1861614
		c0.0381393,0.0527806,0.014122,0.105551-0.0009995,0.1577008c-0.0842724,0.2905753-0.1783371,0.5781181-0.2798138,0.8631284
		C18.5789814,3.2485263,18.5749817,3.3344774,18.4750633,3.3333635z"/>
	<path fill="#FE0400" d="M17.1036148,2.737781c0.0777378-0.0071371,0.0909729-0.0688491,0.1095867-0.1266921
		c0.0922985-0.2868049,0.181942-0.5745106,0.2794933-0.859548c0.0257015-0.0750861,0.0150356-0.1260173-0.0465164-0.1705985
		c0.1633835,0.0167322,0.3181496,0.0628414,0.465414,0.1345116c0.0409164,0.0527571,0.0131798,0.1057845-0.0029716,0.1562583
		c-0.0919857,0.287472-0.1941071,0.5716372-0.2857952,0.859251c-0.0174084,0.0546057-0.0314846,0.122844-0.1179829,0.1067247
		C17.3710995,2.8043859,17.2373581,2.7710834,17.1036148,2.737781z"/>
	<path fill="#FE1A00" d="M18.4750633,3.3333635c0.1538525-0.2491992,0.1976128-0.5388498,0.299469-0.8071945
		c0.0442657-0.1166282,0.0718441-0.2394972,0.1070004-0.3595333c0.1225071,0.0510228,0.2270794,0.1296945,0.3300285,0.2108679
		c-0.0408039,0.2446132-0.1494617,0.4684169-0.2197819,0.7040215c-0.0345306,0.1157084-0.07584,0.229502-0.1157589,0.3435705
		c-0.0195198,0.0557797-0.0309238,0.1192589-0.0987453,0.143137C18.6765366,3.4899428,18.5758018,3.411653,18.4750633,3.3333635z"/>
	<path fill="#FE0D00" d="M18.545742,1.9804724c-0.1127529,0.3898658-0.27668,0.7636536-0.3698235,1.1596862
		c-0.1111984-0.0559027-0.2223969-0.1118097-0.3335953-0.1677172c-0.0324402-0.0744643,0.0096111-0.1389329,0.0305748-0.2049222
		c0.1009808-0.3178754,0.2195148-0.6301732,0.307188-0.9522965C18.3213959,1.8279614,18.4200668,1.9336513,18.545742,1.9804724z"/>
	<path fill="#FE0900" d="M18.1800861,1.8152227c0.0296078,0.043982,0.0299187,0.0860859,0.0116348,0.1381655
		c-0.1189671,0.3388178-0.233448,0.6791871-0.3493977,1.0190508C17.722168,2.94643,17.6092968,2.9024575,17.5048485,2.8376837
		c0.0311756-0.0138562,0.0565891-0.0340176,0.0673332-0.0673566c0.1133175-0.3515687,0.2263203-0.7032366,0.3394108-1.0548749
		C18.0099316,1.7252719,18.0926247,1.7765728,18.1800861,1.8152227z"/>
	<path fill="#FE3A00" d="M20.5431328,3.7619481c-0.0773354,0.0127559-0.0818176,0.079118-0.1001701,0.134831
		c-0.1298962,0.3943129-0.259798,0.7886243-0.3890419,1.1831474c-0.0221252,0.0675483-0.0359631,0.1393213-0.1102581,0.1738572
		c-0.0439949-0.1096044-0.0879917-0.2192092-0.1319866-0.328814c0.1347237-0.447103,0.2764015-0.8920178,0.4327984-1.3321362
		c0.016861-0.0474498,0.0317421-0.1115303,0.1095772-0.0992148C20.4127293,3.5860803,20.5143127,3.648757,20.5431328,3.7619481z"/>
	<path fill="#FE5200" d="M20.6157665,6.4391694c0.1421566-0.4264178,0.2831287-0.8532329,0.428196-1.2786727
		c0.0154057-0.0451813-0.005312-0.1382866,0.0995979-0.1077504c0.0742645,0.1692014,0.1216698,0.3450708,0.1335144,0.5297704
		c-0.1233845,0.2171512-0.1646614,0.4641309-0.2554893,0.6931167c-0.0220509,0.055582-0.0255184,0.1192684-0.0731201,0.1635823
		C20.8375664,6.4392004,20.7266655,6.4391851,20.6157665,6.4391694z"/>
	<path fill="#FE2900" d="M19.6532555,2.7318103c0.0764122,0.0540576,0.1423264,0.1187205,0.1982994,0.1934216
		c0.0267773,0.0937123-0.0311089,0.1706321-0.0541096,0.2535398c-0.0809727,0.291851-0.1848335,0.5766368-0.2825775,0.8632057
		c-0.022747,0.0666881-0.0290546,0.1602044-0.1397495,0.1528072c-0.0454769-0.0820026-0.1427402-0.1264763-0.1654797-0.2249579
		c-0.0340958-0.0659695-0.0079517-0.1283381,0.0126114-0.1904743c0.0980854-0.296365,0.1952591-0.5930755,0.2991924-0.887435
		C19.5443592,2.8270164,19.544302,2.7317765,19.6532555,2.7318103z"/>
	<path fill="#FE1F00" d="M18.7772751,3.5682328c0.1133709-0.3334084,0.2265186-0.6668918,0.3403053-1.0001609
		c0.0230064-0.0673902,0.042799-0.1367087,0.0939827-0.1905706c0.0772591,0.0390737,0.1447449,0.0910859,0.2050762,0.1525745
		c0.0159969,0.0436459,0.0105476,0.0870731-0.0041428,0.1293113C19.2986145,2.986846,19.2088432,3.322022,19.0909977,3.648185
		c-0.0167389,0.0463331-0.0323296,0.0944469-0.0803795,0.1207101C18.9328365,3.7020075,18.8550568,3.6351202,18.7772751,3.5682328z"
		/>
	<path fill="#FE2400" d="M19.0106182,3.7688951c0.1353397-0.4129386,0.2706795-0.825877,0.4060192-1.2388175
		c0.080864,0.0649407,0.1811142,0.1074843,0.2366142,0.2017341c-0.0419502,0.0243359-0.0564461,0.0667384-0.0702972,0.108532
		c-0.1247616,0.3763821-0.2489529,0.7529514-0.3733139,1.1294744C19.1432972,3.9028494,19.0769596,3.8358724,19.0106182,3.7688951z"
		/>
	<path fill="#FE2E00" d="M19.3751183,4.1947842c0.0776634-0.0271778,0.078146-0.1037459,0.0979595-0.1627698
		c0.1014233-0.3021278,0.1963043-0.6064138,0.2960072-0.9091227c0.0222588-0.06758,0.0547066-0.1318538,0.082468-0.1976545
		c0.0785027,0.0572462,0.1434021,0.1277726,0.2022953,0.2041636c-0.11203,0.4035408-0.2514439,0.798506-0.3828621,1.1959252
		c-0.0179844,0.0543857-0.0469704,0.1169033-0.129015,0.1013107C19.4863529,4.3493524,19.4307346,4.2720685,19.3751183,4.1947842z"
		/>
	<path fill="#FE3300" d="M19.5419712,4.4266367c0.1479511-0.1229038,0.1447773-0.3109679,0.2051315-0.4713624
		c0.1034222-0.2748499,0.1511536-0.5700555,0.3067436-0.8258722c0.0788174,0.0471244,0.1254616,0.1208699,0.1669922,0.198844
		c-0.130785,0.41908-0.2865524,0.8300781-0.4106255,1.2513895c-0.0167274,0.056797-0.0403214,0.1148801-0.0980358,0.1476216
		C19.6554413,4.6270499,19.5987053,4.5268431,19.5419712,4.4266367z"/>
	<path fill="#FE3700" d="M19.7121773,4.7272573c0.1402588-0.4226818,0.2804527-0.8453851,0.4208584-1.2680194
		c0.0171108-0.0515077,0.0240154-0.1101341,0.087801-0.1309903c0.0693741,0.0353096,0.0963345,0.1042759,0.133213,0.1653724
		c-0.0571423,0.0362403-0.0652218,0.0985508-0.0837574,0.1553056c-0.1190319,0.3644612-0.2384911,0.7287862-0.3567181,1.0935047
		c-0.0220299,0.0679584-0.0442905,0.1346622-0.1018963,0.1825371C19.7785091,4.8590651,19.7453442,4.7931609,19.7121773,4.7272573z"
		/>
	<path fill="#FD5600" d="M20.9484653,6.4392161c0.043314-0.2940907,0.1724529-0.5620146,0.2612686-0.8422241
		c0.0119019-0.0375447,0.0415249-0.0246181,0.0673428-0.0144744c0.0389404,0.2344818,0.0849152,0.4677024,0.1027851,0.7055435
		c0.0087643,0.116653-0.0181313,0.175446-0.1504879,0.1586142C21.1369343,6.4349194,21.0421848,6.4410663,20.9484653,6.4392161z"/>
	<path fill="#201F22" d="M16.3855419,7.6089888c-0.2623978-0.0007629-0.4475908-0.1700711-0.4525509-0.413734
		c-0.0049906-0.2451143,0.1953125-0.4334817,0.458498-0.4311786c0.2575436,0.002254,0.4487343,0.1787224,0.4526939,0.4178357
		C16.8482933,7.4301124,16.6553555,7.6097727,16.3855419,7.6089888z"/>
	<path fill="#1F1F22" d="M16.4094009,5.1364479c0.2063465,0.0006633,0.3526669,0.1307683,0.3557625,0.3163404
		c0.0031796,0.1904831-0.154398,0.3366799-0.3611259,0.3350472c-0.1998749-0.0015788-0.3524551-0.1395288-0.3560085-0.3218751
		C16.0442677,5.273097,16.1948853,5.1357574,16.4094009,5.1364479z"/>
</g>
</svg>
