<?xml version="1.0" encoding="utf-8"?>
<!-- Generator: Adobe Illustrator 23.0.0, SVG Export Plug-In . SVG Version: 6.00 Build 0)  -->
<svg version="1.2" baseProfile="tiny" id="Слой_1"
	 xmlns="http://www.w3.org/2000/svg" xmlns:xlink="http://www.w3.org/1999/xlink" x="0px" y="0px" width="32px" height="13px"
	 xml:space="preserve">
<g>
	<path fill="#1F1F22" d="M16.9439716,12.8846331c-0.0180569,0.0344715-0.048069,0.0283451-0.0779629,0.0226221
		c-0.3677368-0.0129051-0.7354717-0.0136423-1.1032009,0.0002708c-0.0385208,0.0022955-0.0805779,0.0203161-0.1085958-0.0240688
		c-0.0622873-0.0413446-0.1276255-0.0213118-0.1925583-0.0094299c-0.0263891,0.0051403-0.0532589,0.0121021-0.0702887-0.0182571
		c-0.0505972-0.0484486-0.1078491-0.0262642-0.1640511-0.0152254c-0.0182085,0.0071154-0.0313072,0.0031185-0.0370836-0.0168009
		c-0.0493574-0.0599432-0.1242113-0.0066538-0.179595-0.0398397c-0.4317045-0.0517521-0.8371935-0.1974783-1.2296009-0.3701553
		c-1.9534101-0.8595905-3.1835737-2.3343182-3.7389975-4.3731718C9.9963846,7.8729963,9.9748888,7.6989322,9.9421692,7.5278807
		c0.0117865-0.0555463,0.0321655-0.1118035-0.0136719-0.1625757C9.8868504,7.3375392,9.905549,7.298295,9.9085588,7.2620354
		c0.0097208-0.0771914,0.0347729-0.155283-0.0136471-0.2290621C9.8471613,6.9811282,9.8749275,6.9205856,9.8750687,6.8632245
		c0.0191698-0.2208652,0.0191803-0.44173-0.0000048-0.6625948c0.0000629-0.0590625-0.028101-0.1220078,0.0242748-0.1738753
		c0.0422354-0.0733695,0.0190344-0.1494136,0.0093288-0.224906C9.9030352,5.7759652,9.8954172,5.7496357,9.9247007,5.7316036
		C9.9772177,5.6823101,9.9530592,5.6250725,9.941782,5.56917c0.2580585-1.5877075,1.0007534-2.9073112,2.2402678-3.9423187
		c0.8720522-0.7281721,1.8735247-1.1930027,3.0011091-1.3811877c0.0264969-0.0044224,0.0520506-0.0144181,0.0780439-0.0218141
		c0.0559835,0.0148798,0.1117744,0.0242981,0.1661568-0.0058272c0.0205784-0.0144045,0.0374899-0.0377707,0.0681725-0.0274879
		c0.0754471,0.0103257,0.1513472,0.0304952,0.2244558-0.0101483c0.0410566-0.0499287,0.0944281-0.0245807,0.1438799-0.0231885
		c0.2894678,0.018795,0.5789328,0.0190484,0.868392-0.0001784c0.0575886-0.0002701,0.1183033-0.0274806,0.1704082,0.0194875
		c0.0744572,0.0484633,0.1533966,0.0233024,0.2313766,0.0138721c0.0264702-0.0056149,0.0534458-0.0131628,0.0702858,0.0180875
		c0.0506363,0.0483718,0.1078568,0.0263702,0.1640701,0.0151237c0.8243008,0.1457109,1.6006908,0.4219607,2.3117809,0.8625199
		c1.5155773,0.9389853,2.4717693,2.282517,2.9075508,3.9968505c0.026844,0.105597,0.043745,0.213685,0.0652714,0.3206143
		c-0.0097542,0.0554757-0.0338821,0.112401,0.0165653,0.1618047c0.0203819,0.005928,0.0244923,0.019155,0.0170898,0.0375433
		c-0.0076981,0.0770464-0.0367718,0.1557279,0.0177002,0.2280207c0.0197697,0.00666,0.0231171,0.0200658,0.0157852,0.0378599
		c-0.0075073,0.1100206-0.0375271,0.2210712,0.0152588,0.3283305c0.0355606,0.2360435,0.0477543,0.4719048-0.005579,0.7072568
		c-0.0404758,0.0960131-0.0213223,0.1938729-0.0091667,0.2915163c0.0052414,0.0261817,0.012413,0.0528588-0.0182152,0.0698204
		c-0.0504532,0.0618825-0.026701,0.1294532-0.0152569,0.1960807C22.694458,7.4792256,22.6911201,7.492322,22.6718349,7.49892
		c-0.0540466,0.0488157-0.0287151,0.1063433-0.0180759,0.1622586c-0.1230812,0.6318474-0.3184719,1.2394419-0.624176,1.8088694
		c-0.9446697,1.7596083-2.4009361,2.8577127-4.353941,3.3114929c-0.0910549,0.0211573-0.1836128,0.0359364-0.2754707,0.0536861
		c-0.0548115,0.0005512-0.1138878-0.0311527-0.1618595,0.0210943c-0.005928,0.0202398-0.0192547,0.0243073-0.0377731,0.0170259
		C17.1144352,12.8641176,17.0276108,12.8386965,16.9439716,12.8846331z"/>
	<path fill="#1B1B1E" d="M15.7628078,12.907526c0.1158581-0.0595284,0.24049-0.0281038,0.3594456-0.0250683
		c0.2478809,0.0063267,0.4978828-0.0376072,0.7437553,0.0247974C16.4982815,12.9359579,16.1305466,12.9340553,15.7628078,12.907526z
		"/>
	<path fill="#141417" d="M16.7322598,0.157019c-0.2894535,0.0460787-0.5789185,0.0458777-0.868392,0.0001784
		C16.1533318,0.157138,16.4427967,0.1570785,16.7322598,0.157019z"/>
	<path fill="#151518" d="M9.8750639,6.2006297c0.0454845,0.2208648,0.0454931,0.44173,0.0000048,0.6625948
		C9.8750668,6.6423597,9.8750658,6.4214945,9.8750639,6.2006297z"/>
	<path fill="#151518" d="M22.7354031,6.1971335c-0.0744286-0.1062689-0.0510502-0.2170153-0.0152588-0.3283305
		C22.7252312,5.9782462,22.7303162,6.0876904,22.7354031,6.1971335z"/>
	<path fill="#141417" d="M22.7206573,7.1959066c-0.0507488-0.096067-0.0263653-0.1968479-0.0182648-0.2965069
		c0.0001354-0.0016589,0.0093288-0.0043402,0.0136528-0.0034547c0.0049648,0.0010161,0.0092182,0.0054793,0.0137787,0.0084453
		C22.7267666,7.0015626,22.7237129,7.0987349,22.7206573,7.1959066z"/>
	<path fill="#161619" d="M16.9439716,12.8846331c0.0823898-0.0738926,0.1695843-0.0402012,0.256567-0.0112858
		C17.115015,12.8771105,17.0294952,12.8808718,16.9439716,12.8846331z"/>
	<path fill="#17171A" d="M15.7199879,0.1803859c-0.071497,0.0757472-0.1480989,0.0402899-0.2244558,0.0101483
		C15.5703506,0.1871515,15.6451683,0.1837687,15.7199879,0.1803859z"/>
	<path fill="#161619" d="M9.9086666,5.8018484c0.0476961,0.07374,0.028265,0.1528287,0.0180416,0.2310262
		c-0.0002232,0.001699-0.0096436,0.0039687-0.01402,0.0029082C9.9077902,6.034596,9.9037514,6.0299149,9.8993387,6.0267544
		C9.9024477,5.951786,9.9055576,5.8768172,9.9086666,5.8018484z"/>
	<path fill="#161619" d="M17.1340446,0.1903785c-0.0797062,0.0378131-0.1583138,0.0575182-0.2313766-0.0138721
		C16.9797955,0.1811305,17.0569191,0.1857545,17.1340446,0.1903785z"/>
	<path fill="#151518" d="M22.7043591,5.8309431c-0.0788574-0.0704284-0.0535641-0.1488204-0.0177002-0.2280207
		C22.6925583,5.6789293,22.6984577,5.7549362,22.7043591,5.8309431z"/>
	<path fill="#161619" d="M9.8949118,7.0329733C9.9663124,7.1054034,9.947031,7.1831565,9.9085588,7.2620358
		C9.9040098,7.1856809,9.8994608,7.1093273,9.8949118,7.0329733z"/>
	<path fill="#151519" d="M15.4616537,12.8740273c0.0629244-0.0474043,0.1320219-0.0286827,0.2001934-0.0177507
		c0.0015802,0.0002537,0.0033684,0.0099106,0.0020695,0.0143118c-0.001421,0.0048161-0.006321,0.0086222-0.0097046,0.0128689
		C15.5900259,12.8803129,15.5258398,12.8771706,15.4616537,12.8740273z"/>
	<path fill="#161619" d="M22.6871834,7.4618077c-0.0379257-0.0686574-0.0548763-0.1357074,0.0152569-0.1960807
		C22.6973553,7.3310871,22.6922684,7.3964472,22.6871834,7.4618077z"/>
	<path fill="#161619" d="M15.4273596,0.2180223c-0.0536633,0.050348-0.1092806,0.0457565-0.1661568,0.0058272
		C15.3165874,0.2219071,15.371974,0.2199647,15.4273596,0.2180223z"/>
	<path fill="#151518" d="M17.3684006,0.2235898c-0.0585747,0.0364799-0.1151524,0.0516197-0.1640701-0.0151237
		C17.2590218,0.2135073,17.3137093,0.2185486,17.3684006,0.2235898z"/>
	<path fill="#151518" d="M22.669569,5.5653791c-0.0687389-0.0475583-0.0520897-0.1037292-0.0165653-0.1618047
		C22.6585236,5.457509,22.6640472,5.5114441,22.669569,5.5653791z"/>
	<path fill="#151518" d="M9.941782,5.56917c0.0368309,0.0585499,0.0537777,0.1150403-0.0170813,0.1624336
		C9.9303942,5.6774592,9.9360886,5.6233144,9.941782,5.56917z"/>
	<path fill="#17171A" d="M9.9284973,7.3653049c0.0645962,0.0492177,0.0507889,0.1049314,0.0136709,0.1625762
		C9.9376116,7.4736891,9.933054,7.4194965,9.9284973,7.3653049z"/>
	<path fill="#151518" d="M22.653759,7.6611786c-0.036274-0.0587292-0.0542316-0.1154475,0.0180759-0.1622586
		C22.6658096,7.5530062,22.6597824,7.6070924,22.653759,7.6611786z"/>
	<path fill="#151518" d="M15.0106354,12.7839041c0.0614452,0.0062609,0.1335907-0.034996,0.179595,0.0398397
		C15.1326857,12.8001642,15.0608797,12.8399105,15.0106354,12.7839041z"/>
	<path fill="#161619" d="M15.227314,12.8405447c0.0585852-0.0363426,0.1151848-0.0516014,0.1640511,0.0152254
		C15.3366814,12.8506956,15.2819977,12.8456192,15.227314,12.8405447z"/>
	<path fill="#151519" d="M17.2383118,12.8563213c0.0457191-0.0692778,0.1032562-0.0492258,0.1618595-0.0210934
		C17.3462181,12.8422585,17.292263,12.8492899,17.2383118,12.8563213z"/>
	<path fill="#313134" d="M12.7162285,2.9106534c0.2557707-0.2795444,0.5586872-0.50209,0.8786964-0.7011988
		c0.5666046-0.3525416,1.1814756-0.5822695,1.83953-0.7035109c0.8950415-0.1649044,1.7651949-0.0697963,2.6170778,0.2315203
		c0.8371792,0.2961147,1.5381279,0.7944062,2.1225281,1.4509182c0.6042919,0.6788564,0.9969139,1.4690566,1.1772881,2.3582096
		c0.0745392,0.3674402,0.1166153,0.7398734,0.1024227,1.1163683c-0.0238838,0.6337228-0.1505814,1.2458959-0.4025707,1.8293724
		c-0.2451515,0.5676355-0.5676117,1.0854483-1.011488,1.5252838c-0.0935383,0.0926857-0.1689873,0.2004433-0.2795715,0.2802734
		c-0.0723724,0.0522423-0.1119385,0.0510712-0.1655293-0.0108204c-0.2170963-0.250721-0.435564-0.5002689-0.6533203-0.7504272
		c-0.0640125-0.0735397-0.0100536-0.1218519,0.0398808-0.1676006c0.2928162-0.2682676,0.5341587-0.5765944,0.7277164-0.9217043
		c0.2711697-0.4834933,0.4238815-0.9995708,0.4775906-1.5528131c0.0531693-0.5476413-0.0051899-1.0787416-0.1798782-1.5941653
		C19.6157055,4.146997,18.838892,3.3442466,17.6945572,2.91605c-1.0484161-0.3923037-2.0937538-0.3286045-3.1093044,0.1326931
		c-0.3752918,0.1704698-0.7008505,0.4235337-1.0094538,0.6952991C13.5180407,3.74983,13.4836769,3.7103031,13.4495783,3.675534
		C13.2022333,3.4233208,12.9329023,3.1918237,12.7162285,2.9106534z"/>
	<path fill="#E9F203" d="M12.7162285,2.9106534c0.0876827,0.0116282,0.120327,0.0907488,0.1731873,0.1430862
		c0.2305889,0.2283077,0.4578819,0.4598956,0.6863785,0.6902974c0.0279016,0.0725653-0.0383291,0.0969639-0.0736504,0.1328321
		c-0.6061878,0.6155756-0.9549952,1.3512037-1.060833,2.2049868c-0.1003656,0.8096557,0.0299683,1.5756235,0.4155712,2.2976437
		c0.0462198,0.0865421,0.1049185,0.1693897,0.1032524,0.2741051c-0.1393394,0.1697292-0.3481302,0.2422972-0.5218258,0.3638897
		c-0.1388464,0.0971956-0.2877941,0.1807556-0.4278593,0.2771387c-0.3218975-0.3699379-0.4790745-0.8209782-0.6273737-1.2741385
		c-0.1975555-0.6036777-0.2443008-1.2288327-0.1987247-1.8559294c0.0568237-0.7818694,0.2994347-1.5124726,0.7029142-2.1885061
		C12.1194448,3.5870385,12.4058704,3.2396967,12.7162285,2.9106534z"/>
	<path fill="#E9F203" d="M17.2572651,5.6880903c0.0000057,0.295927,0.0059452,0.5920281-0.0028267,0.8876991
		c-0.0036716,0.1237936,0.0267277,0.1851411,0.1588631,0.1591763c0.2128277-0.0418224,0.2667675,0.0611405,0.2377701,0.2486525
		c-0.008316,0.0537887-0.006958,0.110611-0.000248,0.1648493c0.0241089,0.194912-0.0163116,0.3245125-0.257513,0.2776899
		c-0.1106586-0.021481-0.141716,0.0339513-0.1383686,0.1392255c0.0045376,0.1427789,0.0470543,0.333684-0.0265789,0.4168854
		c-0.088438,0.0999346-0.2860661,0.0299864-0.4360447,0.0331535c-0.2717495,0.0057373-0.2718353,0.0016003-0.2718925-0.2743087
		c-0.0000648-0.3158236-0.0000668-0.3158298-0.3168678-0.3158407c-0.3744106-0.0000119-0.7489252-0.0049276-1.1231785,0.0026927
		C14.9520922,7.4305768,14.8999834,7.39013,14.9191837,7.264441c0.0010271-0.0067267,0.0010023-0.0138731-0.0000067-0.020607
		c-0.0629263-0.4195995,0.0713634-0.763061,0.3450537-1.0918107c0.3701792-0.4446511,0.6983452-0.9241452,1.0364056-1.3944483
		c0.0735893-0.102376,0.1507397-0.1412044,0.2742119-0.1336026c0.1657677,0.0102057,0.3333111,0.0115843,0.4988575-0.0002437
		c0.1404266-0.0100322,0.1939411,0.0251288,0.1873283,0.1767421C17.2481518,5.0958447,17.2572594,5.3921628,17.2572651,5.6880903z"
		/>
	<path fill="#F5FD0E" d="M12.0104494,9.2946329c0.0081367-0.1231327,0.128108-0.1295633,0.200675-0.1774044
		c0.2449999-0.1615181,0.498661-0.3100977,0.7490101-0.463623c0.1841412,0.2196903,0.3392439,0.4627409,0.5468616,0.6636639
		c0.1916742,0.1854944,0.1898699,0.1863365,0.0088129,0.3941011c-0.1674042,0.1920958-0.3375063,0.382102-0.4981985,0.5796204
		c-0.0634031,0.0779324-0.1021338,0.0711517-0.169651,0.0077868C12.5272398,9.9977751,12.2393637,9.6706638,12.0104494,9.2946329z"
		/>
	<path fill="#1F1F22" d="M15.8030481,6.6981058c0.22754-0.3097544,0.4317598-0.5877633,0.6359797-0.8657727
		c0.0119934,0.0035796,0.0239868,0.0071588,0.0359802,0.0107379c0,0.2620835-0.0008106,0.5241709,0.0005836,0.7862473
		c0.0003395,0.0636854-0.0375462,0.0693374-0.0867882,0.0691152C16.2062988,6.6976113,16.0237885,6.6981058,15.8030481,6.6981058z"
		/>
</g>
</svg>
