<?xml version="1.0" encoding="utf-8"?>
<!-- Generator: Adobe Illustrator 23.0.0, SVG Export Plug-In . SVG Version: 6.00 Build 0)  -->
<svg version="1.2" baseProfile="tiny" id="Слой_1"
	 xmlns="http://www.w3.org/2000/svg" xmlns:xlink="http://www.w3.org/1999/xlink" x="0px" y="0px" width="32px" height="13px"
	 xml:space="preserve">
<g>
	<path fill="#1F1F22" d="M22.5128002,7.6421962c-0.1217232,0.6248822-0.3149624,1.22578-0.6172962,1.7889276
		c-0.9342556,1.7402124-2.3744678,2.8262119-4.3059425,3.2749891c-0.0900517,0.0209246-0.1815891,0.0355406-0.2724342,0.0530949
		c-0.0542068,0.0005445-0.1126308-0.0308094-0.1600761,0.0208616c-0.0058613,0.0200167-0.0190411,0.0240393-0.0373554,0.016839
		c-0.0851536-0.0091286-0.1710224-0.0342693-0.2537384,0.0111609c-0.0178585,0.034091-0.0475407,0.0280323-0.0771046,0.0223722
		c-0.3636837-0.012763-0.7273636-0.0134916-1.0910397,0.000268c-0.0380955,0.0022697-0.079689,0.020092-0.107398-0.0238037
		c-0.0616007-0.0408888-0.1262188-0.0210772-0.1904364-0.009326c-0.0260973,0.005084-0.0526714,0.0119686-0.0695133-0.0180559
		c-0.0500393-0.0479145-0.1066608-0.0259752-0.1622429-0.0150576c-0.0180073,0.0070372-0.030962,0.0030842-0.0366745-0.0166149
		c-0.0488138-0.0592823-0.1228418-0.0065813-0.1776152-0.0394011c-0.4269447-0.0511827-0.8279648-0.195302-1.2160454-0.3660755
		c-1.9318781-0.8501158-3.1484814-2.3085852-3.6977825-4.3249636C9.9949551,7.8516784,9.9736986,7.679533,9.9413395,7.5103674
		C9.9529953,7.4554338,9.9731512,7.399796,9.9278183,7.3495841C9.886631,7.3221245,9.9051228,7.2833123,9.9080992,7.2474523
		c0.0096149-0.0763407,0.0343895-0.1535711-0.0134954-0.2265368C9.8473797,6.9696422,9.8748398,6.9097672,9.874979,6.8530383
		c0.018959-0.2184305,0.0189686-0.4368606-0.0000057-0.6552906C9.8750362,6.1393361,9.8471832,6.077085,9.8989811,6.0257893
		c0.04177-0.0725608,0.0188246-0.1477661,0.0092268-0.2224259C9.9026356,5.7777648,9.8951035,5.7517257,9.9240637,5.733892
		C9.9760017,5.685142,9.9521093,5.6285353,9.9409571,5.5732489c0.2552137-1.5702043,0.9897203-2.875262,2.2155704-3.8988597
		c0.8624372-0.7201451,1.8528709-1.1798515,2.9680262-1.365962c0.0262051-0.0043734,0.0514774-0.014259,0.0771837-0.0215736
		c0.0553675,0.0147157,0.1105433,0.0240301,0.1643257-0.0057631c0.0203524-0.0142457,0.037077-0.0373543,0.067421-0.0271849
		c0.0746155,0.0102119,0.1496792,0.030159,0.221981-0.0100364c0.0406046-0.0493783,0.0933876-0.0243097,0.1422949-0.0229329
		c0.2862778,0.0185878,0.5725498,0.0188384,0.85882-0.0001765c0.0569515-0.0002671,0.1169987-0.0271777,0.1685295,0.0192727
		c0.0736351,0.0479291,0.1517048,0.0230456,0.2288246,0.0137191c0.0261784-0.005553,0.0528564-0.0130177,0.0695114,0.0178881
		c0.0500793,0.0478386,0.1066685,0.0260794,0.162262,0.014957c0.8152122,0.1441046,1.5830441,0.4173084,2.286293,0.8530117
		c1.4988728,0.9286348,2.4445267,2.2573528,2.8755035,3.9527893c0.0265446,0.1044345,0.0432606,0.2113304,0.0645485,0.317081
		c-0.0096455,0.0548644-0.0335064,0.1111622,0.0163841,0.1600208c0.0201588,0.0058632,0.0242214,0.0189443,0.0169029,0.0371294
		c-0.0076141,0.0761976-0.0363655,0.1540122,0.0175056,0.2255077c0.0195522,0.0065866,0.0228615,0.0198464,0.0156097,0.0374422
		c-0.0074253,0.1088076-0.0371132,0.2186341,0.0150909,0.3247113c0.0351677,0.2334409,0.0472279,0.4667025-0.005518,0.6994605
		c-0.0400295,0.094954-0.0210876,0.1917353-0.0090656,0.2883024c0.0051842,0.0258932,0.0122757,0.0522761-0.0180149,0.0690503
		c-0.0498962,0.0612006-0.0264072,0.1280265-0.015089,0.1939192c0.0071926,0.0172262,0.0038929,0.0301785-0.0151806,0.0367031
		C22.4772282,7.5300035,22.5022793,7.5868969,22.5128002,7.6421962z"/>
	<path fill="#1B1B1E" d="M15.697813,12.8307095c0.1145821-0.0588722,0.2378397-0.0277939,0.355484-0.0247917
		c0.2451496,0.0062571,0.4923935-0.0371923,0.7355556,0.0245237C16.4251804,12.8588285,16.0614986,12.8569469,15.697813,12.8307095z
		"/>
	<path fill="#141417" d="M16.65658,0.2207597c-0.2862644,0.0455708-0.5725384,0.0453719-0.85882,0.0001765
		C16.0840321,0.2208773,16.370306,0.2208185,16.65658,0.2207597z"/>
	<path fill="#151518" d="M9.8749733,6.1977477c0.0449839,0.21843,0.0449924,0.4368606,0.0000057,0.6552906
		C9.8749771,6.6346083,9.8749762,6.4161777,9.8749733,6.1977477z"/>
	<path fill="#151518" d="M22.5935459,6.1942902c-0.0736084-0.1050978-0.0504894-0.2146235-0.0150909-0.3247113
		C22.5834846,5.9778161,22.5885143,6.0860534,22.5935459,6.1942902z"/>
	<path fill="#141417" d="M22.5789623,7.1820531c-0.05019-0.0950079-0.0260754-0.1946783-0.0180645-0.2932382
		c0.0001335-0.0016408,0.0092258-0.0042925,0.0135021-0.003417c0.0049114,0.0010052,0.0091171,0.0054193,0.013628,0.0083528
		C22.5850048,6.9898515,22.5819836,7.0859523,22.5789623,7.1820531z"/>
	<path fill="#161619" d="M16.8659573,12.8080692c0.0814819-0.0730782,0.1677151-0.0397587,0.2537384-0.0111609
		C17.0351143,12.8006287,16.9505367,12.8043489,16.8659573,12.8080692z"/>
	<path fill="#17171A" d="M15.6554651,0.2438691c-0.0707092,0.0749119-0.1464663,0.0398458-0.221981,0.0100364
		C15.5074778,0.25056,15.5814714,0.2472145,15.6554651,0.2438691z"/>
	<path fill="#161619" d="M9.9082079,5.8033633c0.0471687,0.072926,0.0279522,0.1511426,0.0178404,0.2284789
		C9.9258289,6.0335221,9.9165115,6.0357666,9.9121838,6.034718C9.90734,6.0335441,9.9033451,6.0289149,9.8989811,6.0257893
		C9.9020557,5.9516473,9.9051323,5.8775053,9.9082079,5.8033633z"/>
	<path fill="#161619" d="M17.0539341,0.2537515c-0.0788288,0.0373961-0.1565685,0.0568841-0.2288246-0.0137191
		C16.9013844,0.2446054,16.9776592,0.2491784,17.0539341,0.2537515z"/>
	<path fill="#151518" d="M22.5628452,5.8321366c-0.0779934-0.0696507-0.0529728-0.1471796-0.0175056-0.2255077
		C22.5511761,5.681798,22.5570107,5.7569671,22.5628452,5.8321366z"/>
	<path fill="#161619" d="M9.8946037,7.0209155c0.0706129,0.0716319,0.0515451,0.1485276,0.0134954,0.2265368
		C9.9036007,7.1719403,9.8991022,7.0964274,9.8946037,7.0209155z"/>
	<path fill="#151519" d="M15.3999786,12.7975798c0.0622311-0.0468817,0.1305666-0.0283661,0.1979866-0.0175552
		c0.0015631,0.0002508,0.0033321,0.0098009,0.0020475,0.0141544c-0.0014057,0.0047626-0.0062523,0.0085268-0.0095978,0.0127268
		C15.5269356,12.8037968,15.4634581,12.8006878,15.3999786,12.7975798z"/>
	<path fill="#161619" d="M22.5458565,7.4450226c-0.037508-0.0679002-0.0542717-0.1342111,0.015089-0.1939192
		C22.5559158,7.3157434,22.5508862,7.380383,22.5458565,7.4450226z"/>
	<path fill="#161619" d="M15.3660631,0.2810905c-0.053071,0.049793-0.1080761,0.0452521-0.1643257,0.005763
		C15.2565126,0.2849325,15.3112879,0.2830115,15.3660631,0.2810905z"/>
	<path fill="#151518" d="M17.2857075,0.2865966c-0.05793,0.0360771-0.1138821,0.0510507-0.162262-0.014957
		C17.1775341,0.2766253,17.2316189,0.281611,17.2857075,0.2865966z"/>
	<path fill="#151518" d="M22.5284367,5.5694995c-0.0679893-0.0470328-0.0515099-0.1025863-0.0163841-0.1600208
		C22.5175133,5.4628191,22.5229759,5.5161595,22.5284367,5.5694995z"/>
	<path fill="#151518" d="M9.9409571,5.5732489C9.9773817,5.6311536,9.9941416,5.6870213,9.9240637,5.733892
		C9.9296951,5.6803441,9.9353266,5.6267967,9.9409571,5.5732489z"/>
	<path fill="#17171A" d="M9.9278183,7.3495841C9.991703,7.3982592,9.9780464,7.4533587,9.9413385,7.5103679
		C9.9368315,7.4567733,9.9323254,7.4031782,9.9278183,7.3495841z"/>
	<path fill="#151518" d="M22.5128002,7.6421962c-0.0358753-0.0580816-0.0536308-0.1141753,0.0178776-0.1604705
		C22.5247192,7.5352159,22.5187588,7.588706,22.5128002,7.6421962z"/>
	<path fill="#151518" d="M14.9539328,12.7084503c0.0607681,0.0061922,0.1321182-0.0346107,0.1776152,0.0394011
		C15.0746374,12.7245312,15.003623,12.7638397,14.9539328,12.7084503z"/>
	<path fill="#161619" d="M15.1682224,12.7644663c0.0579395-0.0359421,0.1139154-0.0510321,0.1622429,0.0150576
		C15.2763844,12.7745056,15.2223034,12.7694855,15.1682224,12.7644663z"/>
	<path fill="#151519" d="M17.1570511,12.7800694c0.0452156-0.0685139,0.1021175-0.0486832,0.1600761-0.0208607
		C17.2637691,12.7661619,17.2104092,12.7731152,17.1570511,12.7800694z"/>
	<path fill="#313134" d="M11.22927,5.9380393c-0.0779638-0.1120234-0.0128288-0.2287908,0.008481-0.3326507
		c0.1821556-0.8877683,0.5651703-1.6774201,1.1620874-2.3706784c0.4366198-0.5070906,0.9546595-0.9057465,1.5447807-1.20592
		c0.5144396-0.2616776,1.0646296-0.4258235,1.6445532-0.5042701c1.0729122-0.145133,2.0772724,0.0534363,3.0233707,0.5518215
		c0.9021683,0.4752436,1.5941601,1.1690464,2.0891857,2.0574884c0.2658596,0.4771481,0.4476871,0.9837623,0.5447998,1.5181861
		c0.1772327,0.9753532,0.0632343,1.9212208-0.3282776,2.8322167c-0.239399,0.5570383-0.559988,1.0617676-0.9947758,1.4927063
		c-0.088583,0.0877991-0.1637306,0.1861715-0.2638321,0.2663746c-0.08708,0.069768-0.1305199,0.04671-0.1881371-0.0200481
		c-0.2071533-0.2400084-0.4143543-0.47999-0.6236629-0.7181406c-0.0795937-0.0905638-0.0053387-0.139431,0.04916-0.1894197
		c0.3440018-0.3155279,0.6159267-0.6858521,0.8141251-1.1040421c0.2020397-0.4262905,0.3201389-0.8748164,0.363081-1.3501816
		c0.0635929-0.7039866-0.0574532-1.3707457-0.355299-2.001687c-0.2820511-0.5974803-0.7053394-1.0850525-1.2553158-1.4677041
		c-0.7886562-0.5487144-1.6676369-0.7553165-2.6106062-0.6730123c-0.8740501,0.0762892-1.6365891,0.4246294-2.2798052,1.0303535
		c-0.5268278,0.4961207-0.8732977,1.0930068-1.0625982,1.7814209c-0.0446539,0.1623878-0.1241894,0.3292074-0.062294,0.5080781
		c-0.0370321,0.0312719-0.0809765,0.0297155-0.1254873,0.0264168c-0.3296099-0.0244327-0.6579762-0.0628934-0.9876871-0.0862155
		C11.2958565,5.9763551,11.2594566,5.9646587,11.22927,5.9380393z"/>
	<path fill="#03CDF2" d="M11.22927,5.9380393c0.4090548,0.0013709,0.8141851,0.049448,1.2190266,0.1008987
		c-0.1043806,0.8133116,0.0174294,1.5870748,0.4090509,2.3141961c0.0459042,0.0852337,0.1030436,0.1673231,0.1018019,0.270483
		c-0.1377363,0.1679583-0.3442831,0.2396669-0.5160618,0.3599339c-0.1373177,0.096137-0.2846394,0.1787701-0.4231625,0.274106
		c-0.3182526-0.3659334-0.4736128-0.8120499-0.6203537-1.2601819c-0.1954136-0.5967784-0.2252407-1.2136312-0.2000322-1.8350563
		C11.2025843,6.0873513,11.2190342,6.0128193,11.22927,5.9380393z"/>
	<path fill="#03CDF2" d="M16.8781891,6.2621641c0.333744,0.1548986,0.5710335,0.366941,0.6098366,0.7241683
		c0.0457458,0.4211636-0.1514683,0.7270885-0.508707,0.9329166c-0.5465603,0.3149076-1.4408255,0.1900296-1.8944502-0.248785
		c-0.0789232-0.076344-0.0804663-0.1276054,0.0010872-0.1919541c0.0210447-0.0166049,0.0383339-0.037878,0.0574799-0.0568752
		c0.0956993-0.0949521,0.1757154-0.2287364,0.2912197-0.2747679c0.1387138-0.0552812,0.2055559,0.1302629,0.320549,0.1883798
		c0.2432213,0.1229215,0.4865847,0.1610036,0.7419825,0.0596786c0.1577206-0.062573,0.2565422-0.1822162,0.2511024-0.3552814
		c-0.0053596-0.1707144-0.1064186-0.2860718-0.264431-0.348969c-0.155201-0.0617781-0.3196068-0.0543752-0.4812965-0.0463324
		c-0.1170645,0.0058222-0.1774235-0.0189939-0.1652737-0.1522403c0.0127506-0.139812-0.0380154-0.3062139,0.0225668-0.4152312
		c0.0665207-0.1197028,0.2476835-0.0324593,0.3772326-0.0533142c0.2549419-0.0410419,0.4091721-0.1943188,0.3910408-0.4048967
		c-0.01828-0.2123423-0.194315-0.3505774-0.4446182-0.3500185c-0.2114449,0.0004725-0.3773613,0.0995216-0.5132132,0.2478118
		c-0.068574,0.0748525-0.1126823,0.0724669-0.1749077-0.0009332c-0.0564661-0.0666089-0.1223707-0.12537-0.1845121-0.1871982
		c-0.2318125-0.2306442-0.2365379-0.2374668,0.0320721-0.4168653c0.4918327-0.3284869,1.0137291-0.4015102,1.5509357-0.1200433
		c0.2780304,0.1456723,0.4520588,0.3823123,0.4764023,0.7043128C17.3975143,5.8558583,17.2135887,6.0932178,16.8781891,6.2621641z"
		/>
	<path fill="#0ED8FD" d="M12.0199251,9.2576571c0.0080109-0.12181,0.1266947-0.1281395,0.1984568-0.175457
		c0.242301-0.1597652,0.4931717-0.3067255,0.7407665-0.4585819c0.1820345,0.2172737,0.3355093,0.457531,0.5405951,0.6563568
		c0.1896734,0.1838846,0.1879711,0.184557,0.0088663,0.3899498c-0.1655607,0.1898594-0.3336744,0.3777514-0.4925737,0.5729971
		c-0.0628119,0.077178-0.1014986,0.0700693-0.1680841,0.0075502C12.5309286,9.9528227,12.2462015,9.6294794,12.0199251,9.2576571z"
		/>
</g>
</svg>
