<?xml version="1.0" encoding="utf-8"?>
<!-- Generator: Adobe Illustrator 23.0.0, SVG Export Plug-In . SVG Version: 6.00 Build 0)  -->
<svg version="1.2" baseProfile="tiny" id="Слой_1"
	 xmlns="http://www.w3.org/2000/svg" xmlns:xlink="http://www.w3.org/1999/xlink" x="0px" y="0px" width="32px" height="13px"
	 xml:space="preserve">
<g>
	<path fill="#1F1F22" d="M15.7141647,12.8322735c-0.0382023,0.0022755-0.0799131,0.0201483-0.1076994-0.0238705
		c-0.0617733-0.0410032-0.1265717-0.0211363-0.1909695-0.0093517c-0.0261717,0.0050983-0.0528202,0.012002-0.0697088-0.0181065
		c-0.0501804-0.048049-0.1069593-0.0260487-0.1626978-0.0151005c-0.0180588,0.0070572-0.0310488,0.0030928-0.0367775-0.0166616
		c-0.0489511-0.0594492-0.1231871-0.0065994-0.178113-0.0395117c-0.4281416-0.0513277-0.830287-0.1958504-1.2194576-0.3671026
		c-1.9372969-0.8525-3.1573086-2.3150616-3.7081518-4.3370934c-0.0452747-0.1661973-0.0665922-0.3388243-0.099041-0.5084639
		C9.9532375,7.4419236,9.9734488,7.3861299,9.927989,7.3357768C9.8866863,7.3082404,9.9052296,7.26932,9.9082155,7.2333593
		C9.9178562,7.1568046,9.9427013,7.0793576,9.894681,7.006187c-0.0473566-0.0514174-0.0198193-0.1114602-0.01968-0.1683478
		c0.0190125-0.2190433,0.0190229-0.438086-0.0000048-0.6571283c0.0000629-0.0585756-0.0278683-0.1210012,0.0240746-0.172441
		c0.0418873-0.0727644,0.018877-0.148181,0.0092525-0.2230501C9.9027367,5.7595496,9.8951817,5.7334371,9.9242239,5.7155542
		c0.052084-0.0488868,0.0281248-0.1056523,0.0169401-0.1610937c0.2559309-1.5746081,0.9924974-2.883327,2.2217855-3.909795
		c0.8648577-0.7221642,1.8580685-1.1831605,2.9763508-1.3697917c0.0262775-0.0043855,0.0516195-0.0142985,0.0773983-0.0216335
		c0.055522,0.014757,0.1108522,0.0240975,0.1647854-0.0057792c0.0204096-0.0142856,0.0371809-0.0374591,0.0676098-0.0272612
		c0.0748253,0.0102404,0.1500988,0.0302438,0.2226048-0.0100646c0.0407181-0.0495167,0.0936489-0.0243779,0.1426935-0.0229972
		c0.2870789,0.0186399,0.5741558,0.0188912,0.861227-0.000177c0.0571136-0.0002679,0.1173267-0.0272539,0.1690025,0.0193267
		c0.073843,0.0480635,0.1521301,0.0231102,0.2294674,0.0137576c0.0262508-0.0055685,0.0530052-0.0130543,0.069706,0.0179383
		c0.0502186,0.0479728,0.1069679,0.0261527,0.1627159,0.0149989c0.8175011,0.1445087,1.5874844,0.4184794,2.2927074,0.8554047
		c1.5030746,0.9312385,2.4513779,2.2636833,2.883564,3.9638724c0.0266228,0.1047273,0.0433826,0.2119236,0.0647316,0.3179712
		c-0.0096722,0.0550179-0.0336018,0.111474,0.0164299,0.1604695c0.0202141,0.0058794,0.0242901,0.0189972,0.0169487,0.0372338
		c-0.0076332,0.0764108-0.0364685,0.1544433,0.0175533,0.2261391c0.0196075,0.0066051,0.0229282,0.0199008,0.0156555,0.0375481
		c-0.0074463,0.1091127-0.0372162,0.2192473,0.0151329,0.3256216c0.0352688,0.2340956,0.0473614,0.4680114-0.0055313,0.7014217
		c-0.0401421,0.0952206-0.0211468,0.1922736-0.0090923,0.2891116c0.0051975,0.0259652,0.01231,0.0524225-0.0180664,0.0692439
		c-0.0500355,0.0613718-0.0264797,0.1283851-0.015131,0.1944628c0.0072136,0.0172744,0.0039043,0.0302629-0.0152206,0.0368061
		c-0.0536003,0.0484133-0.0284824,0.1054664-0.0179291,0.1609206c-0.1220646,0.6266341-0.3158455,1.2292161-0.6190281,1.7939439
		c-0.9368744,1.7450924-2.3811283,2.8341389-4.3180199,3.2841759c-0.0903034,0.0209808-0.1820965,0.0356379-0.2731953,0.0532417
		c-0.0543594,0.0005455-0.1129475-0.0308962-0.1605263,0.0209188c-0.0058765,0.0200739-0.0190945,0.024107-0.0374603,0.0168867
		c-0.085392-0.0091543-0.1715012-0.0343647-0.2544498,0.0111923c-0.0179062,0.0341873-0.0476723,0.0281115-0.0773201,0.0224352
		C16.4435616,12.8192062,16.0788612,12.8184748,15.7141647,12.8322735z"/>
	<path fill="#1B1B1E" d="M15.7141647,12.8322735c0.1149025-0.0590372,0.2385063-0.0278721,0.3564816-0.0248613
		c0.2458363,0.0062742,0.4937744-0.0372972,0.7376175,0.0245924C16.4435711,12.8604708,16.0788708,12.8585835,15.7141647,12.8322735
		z"/>
	<path fill="#141417" d="M16.6756191,0.1869612c-0.2870655,0.0456986-0.5741425,0.0454993-0.861227,0.000177
		C16.1014671,0.1870791,16.3885441,0.1870202,16.6756191,0.1869612z"/>
	<path fill="#151518" d="M9.8749962,6.1807108C9.9201059,6.3997531,9.9201145,6.6187963,9.875001,6.8378391
		C9.874999,6.6187963,9.8749981,6.3997531,9.8749962,6.1807108z"/>
	<path fill="#151518" d="M22.6292343,6.1772432c-0.0738144-0.1053925-0.0506287-0.2152252-0.0151329-0.3256216
		C22.6191463,5.9601622,22.6241913,6.0687027,22.6292343,6.1772432z"/>
	<path fill="#141417" d="M22.6146107,7.1677766c-0.0503292-0.0952744-0.0261478-0.1952243-0.0181141-0.2940612
		c0.0001335-0.0016451,0.0092506-0.0043039,0.0135403-0.0034261c0.0049248,0.001008,0.0091419,0.0054345,0.0136662,0.0083756
		C22.6206703,6.9750352,22.6176395,7.0714064,22.6146107,7.1677766z"/>
	<path fill="#161619" d="M16.8855839,12.8095694c0.0817108-0.0732832,0.1681862-0.0398693,0.2544498-0.0111923
		C17.0552177,12.8021088,16.9704018,12.8058386,16.8855839,12.8095694z"/>
	<path fill="#17171A" d="M15.6716986,0.2101353c-0.0709076,0.0751223-0.1468773,0.0399575-0.2226048,0.0100646
		C15.5232964,0.2168451,15.597497,0.2134902,15.6716986,0.2101353z"/>
	<path fill="#161619" d="M9.9083223,5.7852197c0.0473022,0.0731311,0.0280313,0.1515675,0.0178928,0.2291198
		C9.9259939,6.0160241,9.9166508,6.0182753,9.9123106,6.0172238C9.9074535,6.0160465,9.9034472,6.011404,9.8990707,6.0082698
		C9.902154,5.9339199,9.9052391,5.8595695,9.9083223,5.7852197z"/>
	<path fill="#161619" d="M17.0740891,0.2200455c-0.0790501,0.0375011-0.1570091,0.0570436-0.2294674-0.0137576
		C16.9211121,0.2108737,16.9975986,0.2154596,17.0740891,0.2200455z"/>
	<path fill="#151518" d="M22.5984459,5.8140736c-0.0782051-0.0698466-0.0531197-0.1475921-0.0175533-0.2261391
		C22.5867443,5.6633139,22.5925941,5.7386937,22.5984459,5.8140736z"/>
	<path fill="#161619" d="M9.894681,7.006187c0.0708113,0.0718327,0.0516891,0.1489439,0.0135345,0.2271729
		C9.9037037,7.1576352,9.8991928,7.0819111,9.894681,7.006187z"/>
	<path fill="#151519" d="M15.4154959,12.7990513c0.0624056-0.0470133,0.1309319-0.0284462,0.1985416-0.0176048
		c0.0015669,0.0002518,0.0033407,0.0098286,0.0020523,0.0141935c-0.0014095,0.004777-0.0062695,0.0085516-0.0096245,0.012763
		C15.5428085,12.8052845,15.4791527,12.8021679,15.4154959,12.7990513z"/>
	<path fill="#161619" d="M22.5814114,7.4314833c-0.037611-0.0680909-0.0544224-0.1345873,0.015131-0.1944628
		C22.5915012,7.3018413,22.5864563,7.3666625,22.5814114,7.4314833z"/>
	<path fill="#161619" d="M15.381484,0.2474612c-0.0532198,0.0499326-0.1083794,0.045379-0.1647854,0.0057792
		C15.2716265,0.251314,15.3265562,0.2493876,15.381484,0.2474612z"/>
	<path fill="#151518" d="M17.3065109,0.2529826c-0.0580921,0.0361789-0.1142006,0.0511939-0.1627159-0.0149989
		C17.1980343,0.2429834,17.2522717,0.247983,17.3065109,0.2529826z"/>
	<path fill="#151518" d="M22.5639439,5.5507007c-0.0681801-0.0471644-0.0516529-0.1028743-0.0164299-0.1604695
		C22.55299,5.4437208,22.5584679,5.497211,22.5639439,5.5507007z"/>
	<path fill="#151518" d="M9.941164,5.5544605c0.0365276,0.0580668,0.0533342,0.1140914-0.0169401,0.1610937
		C9.9298706,5.6618562,9.9355183,5.6081581,9.941164,5.5544605z"/>
	<path fill="#17171A" d="M9.927989,7.3357768c0.0640631,0.0488119,0.0503702,0.1040659,0.0135584,0.1612349
		C9.9370279,7.4432669,9.9325085,7.3895216,9.927989,7.3357768z"/>
	<path fill="#151518" d="M22.5482635,7.62921c-0.0359745-0.0582447-0.0537834-0.1144953,0.0179291-0.1609206
		C22.560215,7.5219293,22.5542393,7.5755701,22.5482635,7.62921z"/>
	<path fill="#151518" d="M14.9681988,12.709671c0.0609379,0.0062094,0.1324883-0.0347071,0.178113,0.0395117
		C15.089241,12.7257967,15.0180283,12.7652159,14.9681988,12.709671z"/>
	<path fill="#161619" d="M15.1830893,12.7658443c0.0581017-0.0360422,0.114234-0.0511761,0.1626978,0.0151005
		C15.2915545,12.7759113,15.2373219,12.7708778,15.1830893,12.7658443z"/>
	<path fill="#151519" d="M17.177494,12.7814903c0.0453434-0.0687056,0.1024055-0.0488186,0.1605263-0.0209179
		C17.2845116,12.7675447,17.2310028,12.7745171,17.177494,12.7814903z"/>
	<path fill="#313134" d="M11.2040863,7.245338c-0.0532465-0.3209252-0.0483007-0.6449122-0.0375967-0.9675498
		c0.0279808-0.8432131,0.2796812-1.6220775,0.7129784-2.3447537c0.2350492-0.3920281,0.5144081-0.7513645,0.847559-1.0655437
		c0.7335634-0.6917887,1.6002207-1.1349447,2.5918026-1.332134c0.3233862-0.0643097,0.6542292-0.1095877,0.9824686-0.096782
		c1.1662693,0.0454998,2.2250347,0.3955033,3.1386776,1.1379082c0.760973,0.6183476,1.3143234,1.3825595,1.6396027,2.3027575
		c0.1328583,0.3758497,0.2064991,0.7664695,0.2504845,1.165843c0.0890045,0.8081098-0.0428352,1.5797935-0.3394527,2.3275361
		c-0.230278,0.5805016-0.5533085,1.1063919-0.9982033,1.5531998c-0.1038361,0.1042843-0.1828575,0.2289486-0.3097439,0.3160706
		c-0.0816727,0.056076-0.1213017,0.047246-0.1765671-0.0166969c-0.2114773-0.2446747-0.4242382-0.4882574-0.6363506-0.7323895
		c-0.079546-0.0915527,0.0036659-0.1403675,0.0567532-0.1890993c0.336525-0.3089132,0.6034126-0.671133,0.8002148-1.0786686
		c0.2106037-0.4361095,0.3329849-0.895822,0.3763714-1.3840179c0.0627556-0.7061543-0.0595417-1.3743591-0.3586407-2.0066648
		c-0.2808037-0.5936303-0.7015591-1.0795207-1.2469006-1.4610701c-0.7940178-0.5555356-1.6812248-0.7685974-2.6323872-0.6803937
		c-1.0690374,0.0991344-1.9513006,0.577343-2.6301432,1.4119372c-0.6449556,0.7929316-0.8928537,1.7066212-0.8408289,2.7118468
		c0.0033541,0.0648012,0.0186625,0.128993,0.028409,0.1934681c-0.0766182,0.0619612-0.1728067,0.0703053-0.2634048,0.0895748
		c-0.2535648,0.0539312-0.5083075,0.1024265-0.762763,0.1521654C11.3324337,7.2643905,11.2667789,7.2870054,11.2040863,7.245338z"/>
	<path fill="#00FE60" d="M11.2040863,7.245338c0.4066925-0.0757384,0.8075256-0.1813898,1.2185116-0.2351933
		c0.0316906,0.4413023,0.174571,0.8499656,0.3597383,1.2487016c0.2003717,0.4314766,0.4598932,0.8175707,0.8251181,1.1287775
		c0.045887,0.0390997,0.0538177,0.0705929,0.0094166,0.1212969c-0.2174025,0.2482681-0.432188,0.4988356-0.6449604,0.7510328
		c-0.0626554,0.0742636-0.101387,0.0261402-0.1473207-0.0154486c-0.2955179-0.2675734-0.5375042-0.5793753-0.7773371-0.89573
		C11.5720491,8.7219505,11.3319931,8.0069065,11.2040863,7.245338z"/>
	<path fill="#00FE60" d="M16.0183296,7.1758661c0.4243221,0,0.8046932,0.0060582,1.1846943-0.0030937
		c0.1443443-0.0034771,0.192482,0.0334873,0.1910839,0.1843324c-0.0043907,0.4738269,0.0022984,0.4738894-0.4646721,0.473887
		c-0.5592403-0.0000029-1.1185398-0.0043826-1.6776791,0.0030742c-0.1391525,0.0018559-0.1654806-0.0493197-0.1531982-0.171268
		c0.0485983-0.4825439,0.2693729-0.8678522,0.6566076-1.158772c0.1624107-0.1220169,0.334691-0.2310181,0.4989557-0.3507075
		c0.0897713-0.0654097,0.1793556-0.1338887,0.2564735-0.2130322c0.1829395-0.1877441,0.2081718-0.4092875,0.0771713-0.5846672
		c-0.1269398-0.1699471-0.4195175-0.2207079-0.6295872-0.1079669c-0.0944262,0.0506768-0.1783628,0.1201453-0.2279711,0.2118254
		c-0.0615606,0.1137667-0.1293163,0.1035724-0.2206535,0.0467377c-0.0554399-0.0344977-0.1164055-0.060307-0.1751432-0.0895133
		c-0.2691755-0.1338396-0.2699747-0.1371222-0.0884314-0.3861027c0.3859987-0.5293837,1.1837225-0.6646624,1.727807-0.2930036
		c0.5327911,0.363946,0.5635834,1.1395283,0.0624104,1.5995088c-0.184248,0.1691027-0.3977013,0.2999034-0.6009464,0.4440312
		C16.2913437,6.8831868,16.1547718,6.9929476,16.0183296,7.1758661z"/>
</g>
</svg>
