<?xml version="1.0" encoding="utf-8"?>
<!-- Generator: Adobe Illustrator 23.0.0, SVG Export Plug-In . SVG Version: 6.00 Build 0)  -->
<svg version="1.2" baseProfile="tiny" id="Слой_1"
	 xmlns="http://www.w3.org/2000/svg" xmlns:xlink="http://www.w3.org/1999/xlink" x="0px" y="0px" width="32px" height="13px"
	 xml:space="preserve">
<g>
	<path fill="#1F1F22" d="M22.5463257,7.6353455c-0.1228504,0.6306744-0.3178825,1.2371407-0.6230183,1.8055086
		c-0.942915,1.7563419-2.3964787,2.8524094-4.3458557,3.3053455c-0.0908852,0.0211172-0.1832714,0.0358677-0.2749557,0.0535851
		c-0.0547104,0.0005493-0.1136761-0.0310955-0.1615601,0.0210543c-0.0059147,0.0202026-0.0192184,0.0242624-0.0377026,0.0169954
		c-0.0859432-0.0092134-0.1726055-0.0345869-0.2560902,0.0112638c-0.0180225,0.0344076-0.0479794,0.0282927-0.0778179,0.0225801
		c-0.3670559-0.0128813-0.7341061-0.0136166-1.1011534,0.0002699c-0.0384474,0.0022926-0.0804272,0.020278-0.1083927-0.024024
		c-0.062171-0.0412674-0.127388-0.0212717-0.1922007-0.0094118c-0.0263395,0.0051308-0.0531597,0.0120792-0.070158-0.0182238
		c-0.0505037-0.048358-0.1076488-0.0262156-0.1637459-0.0151968c-0.0181751,0.007102-0.03125,0.0031128-0.037015-0.0167694
		c-0.0492659-0.0598316-0.1239805-0.0066414-0.1792612-0.0397663c-0.4309025-0.0516567-0.835639-0.197114-1.2273169-0.3694687
		c-1.9497862-0.8579931-3.1776609-2.3299837-3.7320547-4.3650503C9.9124613,7.8467689,9.8910055,7.6730285,9.858346,7.502296
		c0.0117645-0.0554433,0.0321064-0.1115961-0.0136461-0.1622739C9.8031301,7.3123078,9.8217936,7.2731361,9.8247986,7.2369437
		c0.0097036-0.0770483,0.0347071-0.1549945-0.0136213-0.2286363c-0.0476618-0.0517488-0.019948-0.1121788-0.0198069-0.1694331
		c0.0191345-0.2204552,0.019145-0.4409099-0.0000048-0.6613641c0.0000629-0.0589533-0.0280485-0.1217813,0.024229-0.1735525
		C9.8577518,5.9307241,9.8345938,5.8548222,9.8249073,5.77947C9.8192844,5.7536349,9.8116798,5.727354,9.84091,5.7093554
		c0.0524197-0.049202,0.028306-0.1063333,0.0170498-0.1621323c0.2575779-1.5847583,0.9988956-2.9019108,2.2361059-3.9349957
		c0.8704319-0.7268193,1.8700438-1.1907883,2.9955349-1.3786228c0.0264473-0.0044142,0.0519543-0.0143911,0.077899-0.0217735
		c0.0558805,0.0148521,0.1115675,0.0242529,0.1658487-0.0058165c0.0205393-0.0143777,0.0374193-0.0376998,0.0680447-0.0274369
		c0.0753078,0.0103068,0.1510668,0.0304376,0.22404-0.0101295c0.0409803-0.049836,0.0942526-0.024535,0.1436129-0.0231455
		c0.2889299,0.01876,0.577857,0.019013,0.8667803-0.0001781c0.0574799-0.0002696,0.118082-0.0274296,0.1700916,0.0194513
		c0.0743179,0.0483731,0.1531105,0.0232592,0.2309456,0.0138463c0.0264206-0.0056044,0.0533466-0.0131385,0.0701561,0.0180539
		c0.0505428,0.048282,0.1076565,0.0263212,0.163765,0.0150955c0.8227692,0.1454399,1.5977173,0.4211756,2.3074837,0.8609176
		c1.5127621,0.937241,2.4671822,2.2782755,2.902153,3.9894252c0.0267925,0.1054025,0.043663,0.2132897,0.0651493,0.3200207
		c-0.0097332,0.0553732-0.0338211,0.1121941,0.0165386,0.1615047c0.0203476,0.0059156,0.0244389,0.0191212,0.0170555,0.0374727
		c-0.0076809,0.0769038-0.0367069,0.1554394,0.0176678,0.2275972c0.0197334,0.0066476,0.0230732,0.0200305,0.0157547,0.0377893
		c-0.007494,0.1098161-0.0374565,0.2206607,0.0152302,0.3277206c0.0354958,0.2356048,0.0476665,0.4710283-0.0055676,0.7059436
		c-0.0404015,0.0958343-0.0212822,0.1935124-0.0091515,0.2909746c0.0052319,0.0261331,0.0123901,0.0527606-0.0181808,0.0696902
		c-0.0503578,0.0617681-0.0266514,0.1292129-0.0152283,0.1957164c0.0072594,0.017386,0.0039272,0.030458-0.0153198,0.0370436
		C22.5104237,7.5221138,22.5357018,7.5795336,22.5463257,7.6353455z"/>
	<path fill="#1B1B1E" d="M15.6681719,12.8719482c0.1156435-0.0594225,0.2400446-0.0280504,0.358779-0.0250206
		c0.2474213,0.0063124,0.4969578-0.0375376,0.7423744,0.0247507C16.4022808,12.9003277,16.0352287,12.8984289,15.6681719,12.8719482
		z"/>
	<path fill="#141417" d="M16.6358261,0.145125c-0.2889175,0.0459931-0.5778446,0.0457924-0.8667803,0.0001781
		C16.057972,0.1452437,16.346899,0.1451844,16.6358261,0.145125z"/>
	<path fill="#151518" d="M9.7913656,6.1775103c0.0453997,0.2204542,0.0454092,0.4409094,0.0000048,0.6613641
		C9.7913685,6.6184196,9.7913675,6.3979645,9.7913656,6.1775103z"/>
	<path fill="#151518" d="M22.6278172,6.1740203c-0.0742893-0.1060715-0.0509548-0.2166123-0.0152302-0.3277206
		C22.6176643,5.9555397,22.6227417,6.0647802,22.6278172,6.1740203z"/>
	<path fill="#141417" d="M22.6130981,7.1709385c-0.0506535-0.0958886-0.0263157-0.1964827-0.0182304-0.2959561
		c0.0001354-0.0016561,0.0093117-0.0043321,0.013628-0.0034485c0.0049572,0.0010142,0.009201,0.0054693,0.0137539,0.00843
		C22.6191978,6.9769549,22.616148,7.073947,22.6130981,7.1709385z"/>
	<path fill="#161619" d="M16.8471432,12.8490982c0.0822372-0.0737543,0.1692696-0.0401268,0.2560902-0.0112638
		C17.0178699,12.841589,16.9325085,12.8453436,16.8471432,12.8490982z"/>
	<path fill="#17171A" d="M15.625433,0.1684486c-0.0713654,0.0756063-0.1478243,0.0402147-0.22404,0.0101294
		C15.4760733,0.1752016,15.5507526,0.1718251,15.625433,0.1684486z"/>
	<path fill="#161619" d="M9.8249073,5.77947C9.8725157,5.8530717,9.8531189,5.932014,9.8429136,6.010066
		C9.8426924,6.0117617,9.8332882,6.014029,9.8289204,6.0129704C9.8240309,6.0117855,9.8199997,6.0071125,9.8155947,6.0039577
		C9.8186989,5.9291286,9.8218031,5.8542991,9.8249073,5.77947z"/>
	<path fill="#161619" d="M17.0368633,0.1784225c-0.0795593,0.0377427-0.15802,0.0574114-0.2309456-0.0138463
		C16.8829002,0.1691916,16.9598808,0.1738071,17.0368633,0.1784225z"/>
	<path fill="#161619" d="M9.8111773,7.0083075c0.0712671,0.0722957,0.0520229,0.1499043,0.0136213,0.2286363
		C9.8202581,7.1607318,9.8157177,7.0845194,9.8111773,7.0083075z"/>
	<path fill="#151518" d="M22.5968323,5.8085103c-0.0787163-0.0702963-0.053463-0.1485438-0.0176678-0.2275977
		C22.5850525,5.6567788,22.5909443,5.7326446,22.5968323,5.8085103z"/>
	<path fill="#151519" d="M15.3675785,12.8385124c0.062808-0.0473166,0.1317768-0.0286293,0.1998215-0.0177183
		c0.0015774,0.0002527,0.0033627,0.0098925,0.0020666,0.0142851c-0.0014191,0.0048075-0.0063105,0.0086069-0.0096874,0.012845
		C15.4957123,12.8447866,15.4316454,12.8416491,15.3675785,12.8385124z"/>
	<path fill="#161619" d="M22.5796871,7.4363451c-0.0378551-0.0685296-0.0547752-0.1354547,0.0152283-0.1957164
		C22.5898399,7.3058677,22.5847626,7.3711066,22.5796871,7.4363451z"/>
	<path fill="#161619" d="M15.3333483,0.2060149c-0.0535631,0.0502545-0.1090784,0.0456715-0.1658487,0.0058164
		C15.2227821,0.2098926,15.2780657,0.2079538,15.3333483,0.2060149z"/>
	<path fill="#151518" d="M17.2707844,0.211572c-0.058466,0.0364117-0.1149387,0.0515237-0.163765-0.0150955
		C17.1616077,0.2015084,17.2161942,0.2065402,17.2707844,0.211572z"/>
	<path fill="#151518" d="M22.562109,5.5434403c-0.0686092-0.0474701-0.052002-0.1035361-0.0165386-0.1615047
		C22.5510845,5.4357705,22.5565968,5.4896054,22.562109,5.5434403z"/>
	<path fill="#151518" d="M9.8579597,5.5472231C9.8947229,5.6056643,9.9116383,5.6620498,9.84091,5.7093554
		C9.8465939,5.6553111,9.8522768,5.6012673,9.8579597,5.5472231z"/>
	<path fill="#17171A" d="M9.8446999,7.3400221c0.064476,0.0491261,0.0506945,0.1047363,0.0136452,0.1622744
		C9.853797,7.4482045,9.8492479,7.3941131,9.8446999,7.3400221z"/>
	<path fill="#151518" d="M22.5463257,7.6353455c-0.036211-0.0586205-0.0541229-0.115232,0.0180435-0.1619568
		C22.5583515,7.5273738,22.5523376,7.5813599,22.5463257,7.6353455z"/>
	<path fill="#151518" d="M14.9173985,12.7485561c0.0613317,0.0062475,0.1333408-0.0349264,0.1792612,0.0397663
		C15.0392218,12.7647858,14.9675493,12.8044586,14.9173985,12.7485561z"/>
	<path fill="#161619" d="M15.1336746,12.8050919c0.0584764-0.0362749,0.1149702-0.051506,0.1637459,0.0151968
		C15.2428389,12.8152237,15.1882563,12.8101568,15.1336746,12.8050919z"/>
	<path fill="#151519" d="M17.1409359,12.8208389c0.0456352-0.069149,0.1030655-0.0491343,0.1615601-0.0210533
		C17.248642,12.8068027,17.194788,12.8138208,17.1409359,12.8208389z"/>
	<path fill="#313134" d="M11.8536673,9.2620239c-0.2816401-0.4761477-0.5127716-0.9719505-0.6447191-1.5125914
		c-0.1264172-0.5179763-0.1895542-1.0430222-0.1482229-1.5712328c0.084609-1.0813036,0.4592552-2.0554743,1.1582661-2.8993409
		c0.4720192-0.5698361,1.0319681-1.0323179,1.7001076-1.3560714c0.5361118-0.2597779,1.0998116-0.4307055,1.6982832-0.4931484
		c0.7153664-0.0746399,1.4185867-0.0326701,2.1041279,0.1824173c0.6733303,0.2112564,1.2843399,0.5393044,1.8251839,0.9977649
		c0.8511353,0.7214897,1.4093456,1.6197381,1.6786995,2.694304c0.1057739,0.4219894,0.1690235,0.855504,0.1518898,1.2891293
		c-0.047451,1.2009249-0.4219112,2.2843566-1.2196083,3.2097573c-0.152504,0.1769171-0.3247967,0.3326263-0.4798775,0.5053902
		c-0.0724144,0.0806684-0.1269855,0.0868177-0.1988182,0.0000591c-0.2250614-0.2718258-0.4515781-0.5425892-0.683836-0.8083363
		c-0.0649014-0.0742579-0.0348797-0.1091166,0.023304-0.1595478c0.5276928-0.4573936,0.8777504-1.0305843,1.08885-1.6874866
		c0.1408787-0.4383845,0.1996574-0.892293,0.1695156-1.3520064c-0.0521355-0.7952309-0.314827-1.5154634-0.8139133-2.1448526
		c-0.4719753-0.5951974-1.0633183-1.0293903-1.7869949-1.275018c-0.3198471-0.1085601-0.6500969-0.1643863-0.9901905-0.1954079
		c-0.5134773-0.0468366-1.0110149,0.0117657-1.4860134,0.1828587c-1.462676,0.5268497-2.3557615,1.5487695-2.60536,3.084229
		c-0.144618,0.8896446,0.0326099,1.7313805,0.4848261,2.5140533c0.0215626,0.0373173,0.0523758,0.0693665,0.0788813,0.1038704
		C12.5927858,8.805728,12.2263565,9.0388031,11.8536673,9.2620239z"/>
	<path fill="#ECECEC" d="M15.9134703,5.5122533c-0.2755814,0.1430383-0.5511627,0.2860765-0.8267441,0.4291153
		c-0.0871954-0.0049925-0.1323032-0.0566607-0.1356239-0.1374359c-0.006999-0.170197-0.0354328-0.3430758,0.0430126-0.5064216
		c0.3653746-0.23141,0.7213039-0.4797692,1.099822-0.687592c0.2120914-0.116446,0.4683647-0.033824,0.7045536-0.0384665
		c0.0522442-0.0010266,0.0440235,0.065011,0.0439072,0.1062765c-0.0034618,1.2292995-0.007473,2.4585977-0.0114002,3.6878963
		c-0.2745476,0.0518608-0.549284,0.0472641-0.8241558,0.0027075c-0.0436039-0.2352352-0.0164757-0.4725761-0.0180531-0.7087517
		c-0.0045109-0.6753364,0.0000038-1.3507366-0.0062389-2.0260453c-0.0029278-0.0280271,0.0417538-0.1508517-0.0699921-0.1207037
		C15.9125576,5.5128322,15.9134703,5.5122538,15.9134703,5.5122533z"/>
	<path fill="#EDEDED" d="M11.8536673,9.2620239c-0.0017033-0.0383587,0.0214958-0.0578442,0.0519943-0.0767498
		c0.325119-0.2015266,0.6496859-0.4039364,0.9736767-0.6072435c0.0270357-0.0169649,0.051549-0.0149927,0.0787096-0.0072136
		c0.164156,0.2844896,0.3767061,0.530777,0.6215067,0.747879c0.091486,0.0811348,0.1106873,0.1297922,0.0183649,0.2290678
		c-0.2218685,0.238575-0.4336681,0.4868889-0.6397524,0.7391424c-0.0761204,0.093173-0.1172037,0.1064053-0.2139664,0.0183859
		C12.4022636,9.9942522,12.1160355,9.6387291,11.8536673,9.2620239z"/>
</g>
</svg>
