<?xml version="1.0" encoding="utf-8"?>
<!-- Generator: Adobe Illustrator 23.0.0, SVG Export Plug-In . SVG Version: 6.00 Build 0)  -->
<svg version="1.2" baseProfile="tiny" id="Слой_1"
	 xmlns="http://www.w3.org/2000/svg" xmlns:xlink="http://www.w3.org/1999/xlink" x="0px" y="0px" width="32px" height="13px"
	 xml:space="preserve">
<g>
	<path fill="#1F1F22" d="M22.322464,7.6508551c-0.1229115,0.6309795-0.3180351,1.2377386-0.6233177,1.8063831
		c-0.9433708,1.7571907-2.3976383,2.8537865-4.3479576,3.306942c-0.0909309,0.0211287-0.1833611,0.0358877-0.2750931,0.0536137
		c-0.0547352,0.0005493-0.1137295-0.0311108-0.1616383,0.0210638c-0.0059185,0.0202131-0.019228,0.0242748-0.0377197,0.017004
		c-0.0859852-0.0092173-0.1726913-0.0346031-0.2562141,0.0112696c-0.0180321,0.0344248-0.0480042,0.028306-0.0778561,0.0225916
		c-0.3672314-0.012888-0.7344599-0.0136242-1.1016855,0.0002699c-0.0384674,0.0022917-0.0804672,0.0202875-0.1084461-0.0240364
		c-0.0622015-0.0412874-0.12745-0.0212822-0.1922941-0.0094166c-0.0263519,0.0051336-0.0531855,0.0120859-0.0701914-0.0182314
		c-0.0505285-0.0483818-0.1077013-0.0262289-0.163826-0.0152044c-0.0181837,0.0071049-0.0312643,0.0031137-0.0370321-0.016778
		c-0.0492907-0.0598602-0.1240416-0.0066452-0.179348-0.0397854c-0.4311104-0.0516825-0.8360434-0.1972075-1.227911-0.3696461
		c-1.9507294-0.8584099-3.1792011-2.3311119-3.733861-4.3671646C9.6824827,7.8623805,9.6610174,7.6885557,9.6283436,7.5177402
		c0.0117693-0.05547,0.0321207-0.11165-0.0136538-0.1623521c-0.0415897-0.0277276-0.0229177-0.0669179-0.0199118-0.103128
		C9.6044855,7.1751747,9.6295042,7.0971909,9.581151,7.0235128C9.5334654,6.9717393,9.5611935,6.9112797,9.5613346,6.8539977
		c0.0191431-0.220562,0.0191536-0.441123-0.0000057-0.661684C9.5613928,6.1333318,9.533268,6.0704732,9.5855703,6.0186768
		C9.6277475,5.9454079,9.604579,5.8694687,9.5948877,5.7940803C9.589262,5.7682323,9.5816545,5.7419386,9.610898,5.7239318
		C9.6633425,5.674706,9.6392174,5.617547,9.6279564,5.5617213c0.2577038-1.5855258,0.9993782-2.903316,2.2371893-3.9369009
		c0.8708534-0.7271718,1.8709497-1.191364,2.9969854-1.3792906c0.0264606-0.0044161,0.0519772-0.0143978,0.0779352-0.0217835
		c0.0559072,0.0148595,0.1116209,0.0242648,0.1659288-0.0058191c0.0205507-0.0143846,0.0374384-0.0377188,0.068078-0.0274502
		c0.0753441,0.0103114,0.1511402,0.0304535,0.2241478-0.0101344c0.0410013-0.0498601,0.0942993-0.0245468,0.1436825-0.0231566
		c0.2890711,0.0187691,0.5781374,0.0190222,0.8671999-0.0001782c0.0575085-0.0002697,0.1181393-0.0274428,0.1701736,0.0194607
		c0.0743542,0.0483967,0.1531849,0.0232704,0.2310581,0.013853c0.0264339-0.0056072,0.0533714-0.0131447,0.0701904,0.0180627
		c0.0505657,0.0483053,0.107708,0.0263339,0.1638432,0.0151029c0.8231659,0.1455107,1.5984898,0.4213795,2.3085995,0.861334
		c1.5134964,0.9376937,2.4683781,2.279377,2.9035625,3.9913535c0.026804,0.1054544,0.0436802,0.2133946,0.0651779,0.3201785
		c-0.0097408,0.0553994-0.0338345,0.1122465,0.0165443,0.1615825c0.0203533,0.0059199,0.0244579,0.0191283,0.017065,0.0374913
		c-0.0076866,0.0769405-0.0367222,0.1555142,0.0176754,0.2277074c0.019743,0.0066509,0.0230865,0.0200386,0.0157642,0.0378084
		c-0.0074978,0.109869-0.0374756,0.220767,0.0152378,0.327879c0.0355129,0.2357192,0.0476894,0.4712567-0.0055714,0.706285
		c-0.0404205,0.095881-0.0212917,0.1936064-0.0091534,0.2911158c0.0052338,0.0261459,0.012394,0.0527864-0.0181923,0.0697241
		c-0.0503826,0.0617976-0.0266628,0.1292753-0.0152359,0.1958113c0.0072632,0.0173945,0.003931,0.0304728-0.0153275,0.0370612
		C22.2865429,7.5375676,22.3118401,7.5950165,22.322464,7.6508551z"/>
	<path fill="#1B1B1E" d="M15.4409819,12.8899927c0.1156998-0.0594463,0.24016-0.0280647,0.3589525-0.025034
		c0.2475414,0.0063181,0.4971981-0.0375547,0.742733,0.0247641C16.1754456,12.9183855,15.8082161,12.9164858,15.4409819,12.8899927z
		"/>
	<path fill="#141417" d="M16.4091034,0.1570079c-0.2890587,0.0460154-0.578124,0.0458147-0.8671999,0.0001782
		C15.8309698,0.1571267,16.1200371,0.1570673,16.4091034,0.1570079z"/>
	<path fill="#151518" d="M9.5613289,6.1923137c0.0454226,0.220561,0.0454311,0.4411225,0.0000057,0.661684
		C9.5613327,6.6334362,9.5613308,6.4128747,9.5613289,6.1923137z"/>
	<path fill="#151518" d="M22.4039955,6.1888218c-0.0743256-0.106123-0.0509796-0.2167172-0.0152378-0.327879
		C22.393837,5.9702358,22.3989162,6.0795288,22.4039955,6.1888218z"/>
	<path fill="#141417" d="M22.3892708,7.1862226c-0.0506802-0.0959349-0.026329-0.1965775-0.01824-0.2960997
		c0.0001335-0.0016565,0.0093155-0.004334,0.0136337-0.0034499c0.0049591,0.0010147,0.0092049,0.0054722,0.0137596,0.0084338
		C22.3953724,6.9921455,22.3923206,7.0891843,22.3892708,7.1862226z"/>
	<path fill="#161619" d="M16.6205235,12.8671312c0.0822773-0.0737906,0.1693516-0.0401459,0.2562141-0.0112696
		C16.7913322,12.8596191,16.7059288,12.8633757,16.6205235,12.8671312z"/>
	<path fill="#161619" d="M9.5948868,5.7940803c0.0476294,0.0736384,0.0282259,0.1526184,0.0180159,0.2307086
		c-0.0002222,0.0016966-0.0096302,0.003963-0.0139999,0.0029039c-0.0048914-0.0011854-0.0089254-0.0058599-0.0133324-0.009016
		C9.5886755,5.9438114,9.5917816,5.8689456,9.5948868,5.7940803z"/>
	<path fill="#17171A" d="M15.398221,0.1803427c-0.0713987,0.0756431-0.1478958,0.0402346-0.2241478,0.0101344
		C15.2487898,0.187099,15.3235054,0.1837208,15.398221,0.1803427z"/>
	<path fill="#151518" d="M22.3729935,5.8231344c-0.0787487-0.0703311-0.0534897-0.1486163-0.0176754-0.2277074
		C22.3612099,5.6713295,22.3671017,5.747232,22.3729935,5.8231344z"/>
	<path fill="#161619" d="M9.581151,7.0235128c0.0713015,0.072331,0.0520468,0.1499767,0.0136271,0.2287478
		C9.5902357,7.1760111,9.5856934,7.099762,9.581151,7.0235128z"/>
	<path fill="#161619" d="M16.8103352,0.1903216c-0.0795975,0.0377611-0.1580982,0.0574391-0.2310581-0.013853
		C16.6562977,0.1810862,16.7333145,0.1857039,16.8103352,0.1903216z"/>
	<path fill="#151519" d="M15.1402416,12.8565397c0.0628386-0.0473385,0.1318407-0.0286427,0.1999187-0.0177259
		c0.0015783,0.0002527,0.0033636,0.0098963,0.0020666,0.0142918c-0.0014191,0.0048094-0.0063124,0.0086107-0.0096912,0.0128508
		C15.2684374,12.8628168,15.20434,12.8596783,15.1402416,12.8565397z"/>
	<path fill="#161619" d="M22.3558407,7.4517579c-0.0378723-0.068563-0.0548-0.1355205,0.0152359-0.1958113
		C22.3659992,7.3212171,22.36092,7.3864875,22.3558407,7.4517579z"/>
	<path fill="#151518" d="M9.6279564,5.5617213C9.6647367,5.6201911,9.6816597,5.6766038,9.610898,5.7239318
		C9.6165838,5.6698618,9.6222706,5.6157913,9.6279564,5.5617213z"/>
	<path fill="#151518" d="M22.338253,5.5579357c-0.0686531-0.047492-0.0520115-0.1035876-0.0165443-0.1615825
		C22.3272228,5.4502139,22.3327389,5.5040751,22.338253,5.5579357z"/>
	<path fill="#151518" d="M17.0443687,0.2234872c-0.0584946,0.0364297-0.114994,0.0515488-0.1638432-0.0151029
		C16.9351406,0.2134186,16.9897537,0.2184529,17.0443687,0.2234872z"/>
	<path fill="#17171A" d="M9.6146898,7.3553882c0.0645075,0.04915,0.0507193,0.1047869,0.0136518,0.1623526
		C9.6237907,7.463623,9.6192398,7.4095054,9.6146898,7.3553882z"/>
	<path fill="#151518" d="M22.322464,7.6508551c-0.0362244-0.0586486-0.0541573-0.1152892,0.0180511-0.1620359
		C22.3344975,7.5428309,22.3284798,7.5968432,22.322464,7.6508551z"/>
	<path fill="#161619" d="M15.1059952,0.2179273c-0.0535889,0.0502788-0.1091309,0.0456937-0.1659288,0.0058192
		C14.9953756,0.2218069,15.0506859,0.2198671,15.1059952,0.2179273z"/>
	<path fill="#151518" d="M14.6898441,12.7665405c0.0613604,0.0062523,0.1334066-0.0349474,0.179348,0.0397854
		C14.8117256,12.7827778,14.7400188,12.8224707,14.6898441,12.7665405z"/>
	<path fill="#161619" d="M14.9062243,12.8231039c0.0585051-0.036293,0.1150265-0.0515308,0.163826,0.0152044
		C15.0154419,12.8332405,14.9608326,12.8281717,14.9062243,12.8231039z"/>
	<path fill="#151519" d="M16.9144573,12.8388577c0.0456562-0.0691814,0.1031151-0.0491571,0.1616383-0.0210629
		C17.0222168,12.8248148,16.9683361,12.8318367,16.9144573,12.8388577z"/>
	<path fill="#FE0300" d="M15.2471085,8.1583261c0.2550888-0.3881922,0.4875488-0.7419486,0.7337017-1.1165428
		c-0.200057-0.0260334-0.3663692-0.0321178-0.5242367-0.0911608C14.8911686,6.7391629,14.563386,6.1794963,14.64709,5.5592418
		c0.0738573-0.547287,0.5854177-1.0025001,1.180685-1.0506344c0.7601309-0.0614662,1.3646631,0.3350453,1.5088739,0.9989214
		c0.0812855,0.3742137-0.0120373,0.7200489-0.217659,1.0359936c-0.3248138,0.4990916-0.6579475,0.9928541-0.9817295,1.4925933
		c-0.0583515,0.0900621-0.1204853,0.1288528-0.2290659,0.1245441C15.7041931,8.1525631,15.4996328,8.1583261,15.2471085,8.1583261z"
		/>
	<path fill="#313134" d="M20.7859173,8.3420839c-0.2612457,0.6120501-0.5886402,1.1808844-1.0674839,1.6561613
		c-0.097044,0.0963202-0.1769066,0.2075157-0.2912521,0.2897329c-0.064621,0.0464611-0.1025295,0.0495815-0.152359-0.0078039
		c-0.220232-0.2536221-0.442524-0.5054893-0.6616344-0.7600584c-0.0713806-0.0829353,0.0064373-0.1315193,0.0564384-0.1774759
		c0.3502674-0.3219433,0.6187382-0.7032833,0.8304043-1.1252174c0.0491123-0.0979042,0.0826778-0.2034922,0.1233978-0.3055444
		c0.1059761-0.0222206,0.1871872,0.0513072,0.2823067,0.0713758C20.1981525,8.1052237,20.5075703,8.1861734,20.7859173,8.3420839z"
		/>
	<path fill="#FE0011" d="M14.6045122,2.8987391c-0.4826565,0.189045-0.9161911,0.4559357-1.2970419,0.8063197
		c-0.6567507,0.4306548-1.3119421,0.86361-1.9605618,1.3062952c-0.0546179,0.0372772-0.1071281,0.0813189-0.173172,0.0962143
		C11.105629,5.12293,11.0597239,5.1074195,11.0910559,5.0227027c0.0142126-0.1419539,0.0858974-0.263504,0.140893-0.3909783
		c0.7208481-0.4384828,1.4052458-0.93134,2.1088905-1.3954995c0.7963514-0.5253136,1.5825777-1.0657554,2.3783751-1.592029
		c0.0508833-0.0336508,0.1016273-0.0674217,0.1498289-0.1049898c0.0740604-0.0577201-0.0155296-0.0638561-0.0289793-0.0939095
		c0.1355305-0.0442992,0.2704935-0.0495198,0.4045782,0.0057834c0.0701847,0.024922,0.142868,0.0055437,0.2140789,0.0119697
		c0.0363045,0.0032763,0.0830746-0.0135335,0.0978107,0.0380032c0.0123882,0.0433176-0.0171871,0.072825-0.0463848,0.098798
		c-0.041441,0.0368651-0.0891933,0.0654418-0.1354485,0.0958171c-0.5692091,0.3737999-1.1302242,0.759631-1.6966972,1.1374415
		C14.6497946,2.8519223,14.624773,2.8721685,14.6045122,2.8987391z"/>
	<path fill="#FE000A" d="M11.6928816,3.7636933c0.2235088-0.3770394,0.5071831-0.7066674,0.8319693-0.9986587
		c0.328989-0.2957685,0.6891088-0.5533612,1.0869904-0.7515459c0.3911171-0.194816,0.7908745-0.3704667,1.229085-0.4377354
		c0.0424309-0.0065135,0.0834122-0.0223193,0.1250677-0.0338115c0.0927086,0.0020847,0.0572033,0.0580103,0.0363989,0.096993
		c-0.032094,0.0601349-0.0913715,0.0952628-0.1469288,0.1320451c-0.9762917,0.6463636-1.9433117,1.3063692-2.9188557,1.953827
		c-0.0552168,0.0366461-0.1076584,0.0813184-0.1756401,0.0917737C11.7257023,3.8220041,11.6757135,3.8313897,11.6928816,3.7636933z"
		/>
	<path fill="#FE000E" d="M15.840064,1.4452966c0.0469379,0.0077769,0.0980263-0.0154258,0.146246,0.0196698
		c-0.0370722,0.0722935-0.0987568,0.114928-0.1633511,0.157971c-0.7632561,0.5086-1.5259228,1.0180767-2.2878962,1.5285678
		c-0.6883574,0.4611707-1.3754482,0.9241998-2.0637617,1.3854315c-0.0721464,0.0483441-0.1394501,0.1134577-0.2393541,0.0947876
		c0.0363111-0.1310205,0.0937052-0.2523608,0.1700859-0.3649836c1.1224022-0.736424,2.2297335-1.4950805,3.3487749-2.2364681
		c0.2496386-0.1653926,0.4997425-0.3307635,0.7378235-0.5120232c0.0801382-0.0610119,0.1686945-0.0415564,0.2510357-0.0672078
		C15.7731323,1.4491267,15.8065987,1.4472117,15.840064,1.4452966z"/>
	<path fill="#FE000E" d="M15.7396669,1.4510417c-0.2380161,0.0582342-0.4048815,0.2351397-0.5991726,0.3632461
		c-0.8218393,0.5418838-1.6361656,1.0949901-2.4535189,1.6435846c-0.367321,0.246541-0.7356052,0.4916701-1.1026525,0.7386112
		C11.5282593,4.234201,11.4734335,4.2704062,11.40203,4.2667408c0.0725584-0.1815777,0.1686001-0.3497767,0.2908545-0.5030456
		c0.0574741,0.0679872,0.1021986,0.0055301,0.1411362-0.0204172c1.0197344-0.6795192,2.0385532-1.3603985,3.0550947-2.0446057
		c0.0461702-0.0310756,0.14431-0.0605282,0.0768843-0.1567256C15.2191753,1.4721489,15.4770184,1.4414551,15.7396669,1.4510417z"/>
	<path fill="#FE0019" d="M17.1789074,1.5834987c0.260006,0.0343721,0.5007553,0.1282461,0.7373123,0.2350783
		c0.1081944,0.0720996,0.0283489,0.1233562-0.0256119,0.1638941c-0.1330528,0.0999564-0.275589,0.1868647-0.4145966,0.2785844
		c-0.1992607,0.1314781-0.3987808,0.2625744-0.5901051,0.4053586c-0.0552521,0.041234-0.1099548,0.0772321-0.1824493,0.0431423
		c-0.3855171-0.0582564-0.7739773-0.034447-1.1613474-0.0410759c0.1285944-0.0931304,0.276082-0.1536148,0.4079142-0.2439511
		C16.3594646,2.1439636,16.7760391,1.8736322,17.1789074,1.5834987z"/>
	<path fill="#FE0013" d="M17.1789074,1.5834987c-0.005825,0.069953-0.05867,0.0993236-0.1104374,0.1338946
		c-0.3764381,0.2513987-0.7522297,0.5037664-1.1266928,0.7580544c-0.1240854,0.0842617-0.2401514,0.1821959-0.3996696,0.1930354
		c-0.286581,0.067898-0.5818033,0.10004-0.8595266,0.2047071c-0.0255928,0.0096452-0.0520267,0.0170894-0.0780697,0.0255525
		c0.0152779-0.0856352,0.0834742-0.1236424,0.1483545-0.1668732c0.5514545-0.3674469,1.1030321-0.7347301,1.6516256-1.1063514
		c0.044487-0.0301374,0.1388702-0.0434332,0.115675-0.1173201c-0.01861-0.0592747-0.0982971-0.0212023-0.1503353-0.0284836
		c-0.0428066-0.0059901-0.0899258,0.0093524-0.1251945-0.0286396C16.5647984,1.4345136,16.872488,1.504583,17.1789074,1.5834987z"/>
	<path fill="#FE0056" d="M19.8873386,8.0115433c-0.0879726-0.0332232-0.1759472-0.0664458-0.2639141-0.0996675
		c0.0673809-0.2089124,0.134758-0.4178267,0.2021351-0.6267405c0.0137749-0.048542,0.0360641-0.0873737,0.0830784-0.1163249
		c0.3345795-0.2060304,0.6563778-0.4314418,0.9860954-0.6448989c0.0325127-0.0210485,0.0650501-0.0435448,0.1033707-0.051928
		c0.0653229-0.0142918,0.1118488,0.0021834,0.1084881,0.0798106c-0.0054417,0.1257339,0.0153503,0.2523642-0.0130196,0.3772931
		c-0.0209541,0.0980759,0.0219364,0.2030544-0.0326519,0.2974925C20.6509933,7.4606409,20.2726231,7.7411833,19.8873386,8.0115433z"
		/>
	<path fill="#FE001F" d="M16.7034569,2.7095563c0.0316811-0.0075445,0.0710449-0.005677,0.0938854-0.0240493
		c0.335413-0.26982,0.7095871-0.4837852,1.0624275-0.7283708c0.0540657-0.0374781,0.1083584-0.0636061,0.056448-0.1385635
		c0.2513905,0.0870665,0.4879074,0.2032819,0.7062721,0.3550634c-0.2666798,0.2254543-0.570713,0.397769-0.8602428,0.5903707
		c-0.0929165,0.0618091-0.1602345,0.1680055-0.2864113,0.1773589C17.2250938,2.8420477,16.9618187,2.7838652,16.7034569,2.7095563z"
		/>
	<path fill="#FE0051" d="M21.0935726,6.9290872c-0.0009441-0.1043296-0.0042896-0.2087069-0.002203-0.3129768
		c0.0023937-0.1194658-0.0279579-0.1540952-0.1413326-0.0769296c-0.2910938,0.198123-0.5871048,0.389122-0.8809853,0.5832167
		c-0.0814648,0.0538034-0.1623497,0.1084714-0.2434959,0.1627402c0.0064354-0.1899734,0.0206985-0.3790302,0.0668736-0.5643616
		c-0.0029926-0.1243238,0.0652485-0.1930695,0.1690826-0.2565222c0.2647057-0.161757,0.517662-0.3420892,0.7783966-0.5103679
		c0.059248-0.0382371,0.1219215-0.1045089,0.1938972-0.0719066c0.0827084,0.0374651,0.0251179,0.1285639,0.039402,0.194334
		c0.0034771,0.0160174,0.0045643,0.0323925,0.0124245,0.0472021C21.1469021,6.3914704,21.1320305,6.6601644,21.0935726,6.9290872z"
		/>
	<path fill="#FE004C" d="M21.0856323,6.1235156c-0.0759811-0.0531073,0.0354958-0.2004309-0.0857239-0.2066455
		c-0.0675735-0.0034652-0.1403198,0.0771804-0.2094707,0.1218524c-0.2635479,0.1702509-0.5228252,0.3474894-0.7921658,0.5081372
		c-0.0776844,0.0463362-0.0590191,0.1239944-0.1058464,0.1739197C19.8897762,6.5910797,19.8871212,6.4613833,19.88447,6.331687
		c-0.0286427-0.1023684-0.0059586-0.2069311-0.0135727-0.3101726c-0.0036354-0.0492682,0.0180206-0.0842338,0.0581379-0.1100149
		c0.3061485-0.1967416,0.6047173-0.4048929,0.9133911-0.5977979c0.0328445-0.0205245,0.0696411-0.0344529,0.1099072-0.0172997
		C21.0259323,5.5674758,21.0991898,5.8386035,21.0856323,6.1235156z"/>
	<path fill="#FE0013" d="M11.0910559,5.0227027c0.050415,0.1362019,0.1143055,0.0293508,0.1573887,0.0008922
		c0.515933-0.3407993,1.026618-0.6894708,1.5443687-1.0274906c0.1644382-0.1073561,0.3097296-0.25264,0.5146532-0.2910464
		c-0.2334328,0.2368276-0.4546843,0.4836791-0.6368437,0.7626884c-0.4853392,0.3216701-0.9733839,0.6393542-1.4515295,0.9716206
		c-0.0408926,0.0284166-0.0813227,0.0612221-0.130785,0.0714827c-0.070261,0.0145764-0.1267776,0.0058842-0.097578-0.0899029
		C10.9816961,5.2776566,11.0519342,5.1540408,11.0910559,5.0227027z"/>
	<path fill="#FE0021" d="M12.0870533,6.2227855c-0.0001688,0.1876874-0.0003386,0.3753753-0.0005083,0.5630627
		c-0.0628672,0.0016546-0.1170511,0.0254874-0.1692019,0.0593467C11.5934191,7.0555,11.2795849,7.2805109,10.9570923,7.4928784
		c-0.0570631-0.1648083-0.0564318-0.3391685-0.0854721-0.5086164c-0.000124-0.0709486,0.0272436-0.1209116,0.0914993-0.1614966
		c0.3085337-0.1948757,0.6081715-0.4032845,0.915266-0.6003709C11.9430838,6.1808729,12.0181007,6.1103506,12.0870533,6.2227855z"/>
	<path fill="#FE0016" d="M10.9907303,5.4209466c0.0288029,0.1239204,0.0887775,0.058816,0.1429176,0.0227418
		c0.43295-0.2884727,0.8659286-0.5769038,1.2983665-0.8661318c0.0739193-0.0494399,0.146244-0.1006093,0.2386045-0.1098108
		c-0.1038256,0.1988535-0.207654,0.397706-0.3114834,0.596559c-0.0421886,0.07967-0.1279497,0.1038585-0.1965694,0.148387
		c-0.3218346,0.2088447-0.6323013,0.4342017-0.9537287,0.6435676c-0.0232897,0.0151715-0.04564,0.0319171-0.0697546,0.0456629
		c-0.0614367,0.0350189-0.127759,0.1075892-0.1944332,0.0635648c-0.0720186-0.0475521-0.0334463-0.1388254-0.0206642-0.2128077
		C10.9309444,5.639071,10.9351263,5.5249124,10.9907303,5.4209466z"/>
	<path fill="#FE0047" d="M20.9523335,5.296402c-0.3339844,0.2162256-0.6664791,0.434773-1.0030975,0.6468792
		c-0.0747375,0.047092-0.0597019,0.1097312-0.0617275,0.1733093c-0.0022831,0.0716481-0.0021267,0.143374-0.0030346,0.2150807
		C19.847496,6.0407882,19.812067,5.7496481,19.747261,5.4630804c0.1774445-0.1691837,0.3989639-0.2765646,0.5960674-0.418232
		c0.0944099-0.0678573,0.1940975-0.1282816,0.2886353-0.1962285c0.0477982-0.0343547,0.0934811-0.0830855,0.1636276-0.0536127
		C20.8853607,4.950582,20.9223728,5.122406,20.9523335,5.296402z"/>
	<path fill="#FE005B" d="M19.8873386,8.0115433c0.0011692-0.0492268,0.0307522-0.0824661,0.068037-0.1075468
		c0.3244438-0.2182493,0.6487846-0.4366875,0.9757824-0.6511192c0.0344353-0.0225811,0.0753002-0.0750852,0.1297607-0.0263004
		c-0.0330219,0.386075-0.1538277,0.7508283-0.274992,1.1155005C20.4734421,8.2665854,20.1830444,8.131959,19.8873386,8.0115433z"/>
	<path fill="#FE001D" d="M12.0870533,6.2227855c-0.0686045-0.0547676-0.1191616-0.0117106-0.1764498,0.0262322
		c-0.3162546,0.2094612-0.6330175,0.4182591-0.953372,0.6214347c-0.0483303,0.0306525-0.0579853,0.0755696-0.0856161,0.1138134
		c-0.0027132-0.3221507-0.0374527-0.644907,0.0186453-0.9659357c0.0509129,0.0405927,0.0404177,0.0989175,0.0438223,0.1526885
		c0.0108109,0.1707582,0.0165339,0.1745334,0.166894,0.0762005c0.2875423-0.1880507,0.5640039-0.392426,0.8551178-0.5751534
		c0.0733509-0.0460401,0.1395893-0.11092,0.2358713-0.1100459C12.1569958,5.7822752,12.1220255,6.0025301,12.0870533,6.2227855z"/>
	<path fill="#FE0026" d="M10.9570923,7.4928784c0.003685-0.0399413,0.0155802-0.0758309,0.0533628-0.0968361
		c0.3184328-0.1770306,0.5987921-0.41083,0.9092598-0.5993681c0.0465746-0.0282836,0.1058722-0.1006808,0.1668348-0.0108237
		c0.023983,0.1776047,0.0479698,0.3552122,0.0719566,0.5328197c-0.0732832,0.0056348-0.1392145,0.0294323-0.1987162,0.0733318
		c-0.2311277,0.1705208-0.4733973,0.3249617-0.7140846,0.4814987c-0.0621042,0.040391-0.1002731,0.1009927-0.1536818,0.1479073
		C11.0283413,7.8499365,10.9699259,7.6771393,10.9570923,7.4928784z"/>
	<path fill="#FE0035" d="M12.4594698,8.214819c0.1102715,0.1236324,0.1515636,0.2814817,0.2155447,0.4280767
		c-0.0135231,0.046361-0.0524216,0.0695229-0.0891981,0.0934668c-0.2453156,0.1597109-0.4858036,0.3264208-0.7270985,0.4919739
		c-0.0407095,0.0279312-0.0811567,0.0585308-0.1346235,0.0584602c-0.1402531-0.1319551-0.2407532-0.2891598-0.3033228-0.4704599
		c0.0509386-0.1000509,0.1585264-0.131669,0.2401972-0.1942606c0.1924677-0.1475067,0.3975506-0.2772903,0.6019821-0.4074621
		C12.3229694,8.1763964,12.3945265,8.111002,12.4594698,8.214819z"/>
	<path fill="#FE0029" d="M18.3839092,3.4632208c-0.1449509-0.0987942-0.2898998-0.1975882-0.4348507-0.2963827
		c-0.014986-0.0612607,0.0285854-0.0929782,0.0688114-0.1198595c0.3219967-0.2151649,0.6430321-0.4317791,0.9680424-0.6424766
		c0.1386433,0.1045468,0.2915096,0.1919489,0.4029102,0.32933c0.0176487,0.0373704-0.0016155,0.0677328-0.0285969,0.0853105
		C19.0335274,3.0319629,18.732914,3.2837985,18.3839092,3.4632208z"/>
	<path fill="#FE0024" d="M18.9859123,2.4045022c-0.0750198,0.1332657-0.2192936,0.1819124-0.3333111,0.2671826
		c-0.2296543,0.1717551-0.4961262,0.2920935-0.7035427,0.4951556c-0.1577396-0.0751607-0.3154774-0.1503193-0.4732208-0.2254763
		c0.2500248-0.2266147,0.5459595-0.3886635,0.8249531-0.5742254c0.1038189-0.0690534,0.1863308-0.1755481,0.3216953-0.1935008
		C18.7573223,2.2293565,18.870039,2.319376,18.9859123,2.4045022z"/>
	<path fill="#FE002F" d="M12.4594698,8.214819c-0.0720263-0.0506258-0.1242781-0.001771-0.1794472,0.0346642
		c-0.2863178,0.1890907-0.5728073,0.3779249-0.8592443,0.5668516c-0.0805988-0.1375866-0.1663275-0.2728453-0.1989956-0.4321737
		c0.2881565-0.2802725,0.640604-0.4699049,0.977375-0.6814966c0.0188751-0.0118594,0.0426064-0.0003099,0.0599318,0.0154748
		C12.3258839,7.8836989,12.3926773,8.0492592,12.4594698,8.214819z"/>
	<path fill="#FE0019" d="M12.1919661,5.5620198c-0.3951826,0.2659688-0.7902412,0.5321193-1.1856565,0.797749
		c-0.0763855,0.0513144-0.1115189,0.0236297-0.1127596-0.0618358c-0.0013523-0.0931911-0.0022087-0.1863894-0.0032845-0.2795939
		c0.0211382-0.0873098-0.019803-0.1823783,0.0337248-0.2656431c0.0002985,0.005475-0.000165,0.0111356,0.0010214,0.0164328
		c0.0127172,0.0568118-0.0302658,0.1364188,0.0292826,0.1677709c0.0589609,0.0310426,0.1080637-0.0366168,0.1568174-0.0691619
		c0.334404-0.2232265,0.6687851-0.4465036,1.0014734-0.6722331c0.0779161-0.052866,0.159112-0.0971961,0.2465553-0.1312008
		C12.3148899,5.2340078,12.2634201,5.40132,12.1919661,5.5620198z"/>
	<path fill="#FE002B" d="M12.2590895,7.7181392c-0.183279,0.0465302-0.3036642,0.1934452-0.4587612,0.2855248
		c-0.1983242,0.1177397-0.3861723,0.252862-0.5785398,0.3804951c-0.0711718-0.1110811-0.1045952-0.235465-0.1297626-0.3627548
		c-0.0002213-0.0568938,0.0123796-0.1019392,0.0673151-0.1382208c0.2787037-0.1840677,0.5532122-0.3743939,0.8319807-0.5583649
		c0.0483198-0.0318875,0.1087503-0.0894914,0.1671867-0.0061474C12.1920347,7.4518261,12.2255621,7.5849829,12.2590895,7.7181392z"
		/>
	<path fill="#FE0043" d="M20.7955914,4.7950068c-0.2873459,0.1899357-0.5739498,0.3809948-0.8626556,0.5688691
		c-0.0584545,0.0380387-0.1086788,0.094254-0.1856689,0.0992036c-0.057991-0.1264596-0.1028385-0.257226-0.1309032-0.3934922
		c-0.0198879-0.0740843,0.0337181-0.1128287,0.0810986-0.1457248c0.2664661-0.1850185,0.5373383-0.3636699,0.8107986-0.5383782
		c0.0328922-0.0210137,0.069519-0.0339417,0.1097546-0.0182328C20.6769981,4.5099225,20.7801476,4.6345296,20.7955914,4.7950068z"/>
	<path fill="#FE002F" d="M18.3839092,3.4632208c0.2574463-0.2219284,0.5527382-0.3912661,0.8283691-0.5879149
		c0.0613384-0.0437617,0.1400013-0.0670135,0.1765442-0.1414716c0.1227474,0.0994039,0.2354736,0.20876,0.3343468,0.3318624
		c0.0206337,0.054471-0.018343,0.0831175-0.0536423,0.1065316c-0.3060513,0.2029986-0.6041603,0.4180005-0.921978,0.6032679
		C18.6263371,3.6714044,18.5051231,3.5673127,18.3839092,3.4632208z"/>
	<path fill="#FE003E" d="M20.6180153,4.3672519c-0.3017731,0.1964688-0.604414,0.391654-0.9042797,0.5909538
		c-0.0396976,0.0263858-0.065258,0.0737286-0.0973682,0.1113739c-0.0663548-0.1333447-0.1327038-0.2666969-0.1990528-0.4000492
		c-0.0380459-0.0742679,0.013525-0.1137476,0.0636292-0.1478152c0.2688026-0.1827688,0.5400867-0.3619161,0.8131657-0.5383348
		c0.035881-0.023181,0.0753574-0.0511959,0.1207371-0.0151997C20.4589806,4.1130347,20.5870457,4.2157941,20.6180153,4.3672519z"/>
	<path fill="#FE003A" d="M11.7240944,9.2867966c0.3039484-0.2335701,0.6192875-0.4505672,0.9509087-0.6438961
		c0.0887299,0.1219139,0.1774492,0.2438326,0.2661676,0.3657522c-0.0051918,0.0157337-0.0088634,0.03508-0.0214119,0.0440807
		c-0.2999077,0.2151136-0.5946503,0.438221-0.9291182,0.6006756C11.8801632,9.5466967,11.7938042,9.4227095,11.7240944,9.2867966z"
		/>
	<path fill="#FE0039" d="M20.4148464,3.9681807c-0.3346233,0.180892-0.634613,0.4149094-0.9567642,0.6149602
		c-0.0306664,0.0190439-0.0378113,0.0526023-0.0407658,0.0863838c-0.080677-0.1332092-0.1613541-0.2664242-0.2420311-0.3996391
		c0.1204796-0.1427836,0.289135-0.221981,0.4401588-0.3234172c0.1790962-0.1202903,0.3522606-0.2501662,0.5436192-0.3519661
		C20.255373,3.7116108,20.3421078,3.8351765,20.4148464,3.9681807z"/>
	<path fill="#FE003E" d="M11.9906406,9.653409c0.3007984-0.2382164,0.6343164-0.4289083,0.9505234-0.6447535
		c0.0881386,0.0973148,0.1762705,0.1946316,0.2644024,0.2919502c0.0195313,0.0389528-0.0062256,0.0645943-0.0318289,0.0830317
		c-0.2939014,0.2116461-0.5845804,0.4283428-0.9101229,0.5921116C12.1592035,9.8794994,12.0634766,9.7760038,11.9906406,9.653409z"
		/>
	<path fill="#FE0043" d="M12.2636147,9.975749c0.2023716-0.1854305,0.4494457-0.3075047,0.6708975-0.4659414
		c0.0929785-0.0665207,0.1929588-0.123764,0.2710495-0.2091932c0.1882849,0.1385708,0.1880064,0.1383324,0.0343695,0.3147058
		c-0.178091,0.2044468-0.3597469,0.4060497-0.5312653,0.6158075c-0.0636015,0.0777826-0.1071806,0.0990725-0.1808395,0.0180979
		C12.4426184,10.1555538,12.3350401,10.0828762,12.2636147,9.975749z"/>
	<path fill="#FE0036" d="M20.1590633,3.5945022c-0.0496826,0.1012797-0.1534748,0.1380675-0.2397556,0.1939614
		c-0.2479095,0.1606004-0.4814434,0.343163-0.7440128,0.4814191c-0.0847702-0.0599928-0.1230583-0.1584702-0.1935577-0.2302737
		c-0.0211792-0.0605371,0.0219555-0.0932839,0.0604267-0.121207c0.2766228-0.200778,0.5599041-0.3919652,0.8508377-0.5718293
		c0.0190582-0.0117831,0.0423012-0.011837,0.0640221-0.0156012C20.0460358,3.4024515,20.1112518,3.4919033,20.1590633,3.5945022z"/>
	<path fill="#FE0032" d="M19.9570236,3.3309715c-0.2811832,0.1957424-0.5617352,0.3923893-0.8441315,0.5863929
		c-0.0506287,0.0347822-0.1054249,0.0623329-0.1311531,0.1222427c-0.0780659-0.0880368-0.156126-0.1760762-0.2341881-0.2641129
		c0.0690498-0.121702,0.2033424-0.1615615,0.3070354-0.2395649c0.2177315-0.1637895,0.4696484-0.2798719,0.6685829-0.4702303
		C19.8181915,3.1392963,19.9051495,3.2198997,19.9570236,3.3309715z"/>
	<path fill="#1F1F22" d="M15.4335451,5.7460818c0.006815-0.325057,0.2495337-0.5552225,0.5788984-0.5489578
		c0.3253613,0.0061879,0.5586205,0.2523761,0.5487309,0.5791421c-0.009882,0.3266172-0.2568607,0.5625911-0.578743,0.5529618
		C15.6590605,6.3195524,15.4266968,6.0726871,15.4335451,5.7460818z"/>
</g>
</svg>
