<?xml version="1.0" encoding="utf-8"?>
<!-- Generator: Adobe Illustrator 23.0.0, SVG Export Plug-In . SVG Version: 6.00 Build 0)  -->
<svg version="1.2" baseProfile="tiny" id="Слой_1"
	 xmlns="http://www.w3.org/2000/svg" xmlns:xlink="http://www.w3.org/1999/xlink" x="0px" y="0px" width="32px" height="13px"
	 xml:space="preserve">
<g>
	<path fill="#1F1F22" d="M16.9381752,12.8751869c-0.0180397,0.0344458-0.0480289,0.0283232-0.077898,0.0226049
		c-0.3674278-0.0128956-0.7348537-0.0136328-1.1022758,0.0002708c-0.0384874,0.0022926-0.0805101,0.0202999-0.1085043-0.0240517
		c-0.0622349-0.0413132-0.1275177-0.0212955-0.1923971-0.0094223c-0.0263662,0.0051365-0.0532141,0.0120926-0.0702295-0.0182438
		c-0.0505552-0.0484123-0.1077585-0.0262451-0.1639137-0.015214c-0.0181932,0.0071096-0.0312805,0.0031157-0.0370522-0.0167885
		c-0.0493164-0.0598984-0.1241074-0.006649-0.1794443-0.0398111c-0.4313412-0.0517149-0.8364925-0.1973305-1.22857-0.3698797
		c-1.9517765-0.8589525-3.1809053-2.3325891-3.7358656-4.3699312c-0.0456133-0.1674547-0.067091-0.3413892-0.099782-0.5123129
		c0.011776-0.0555053,0.0321388-0.111721-0.0136604-0.1624551C9.8869696,7.3322072,9.905652,7.2929921,9.9086599,7.2567592
		C9.9183731,7.179625,9.9434042,7.1015916,9.8950253,7.0278668c-0.0477114-0.0518064-0.019968-0.1123042-0.0198269-0.1696224
		C9.894352,6.6375427,9.8943624,6.416842,9.8751926,6.1961412C9.8752565,6.1371222,9.8471165,6.074224,9.8994474,6.0223947
		c0.0422001-0.0733151,0.0190182-0.149303,0.0093222-0.2247391C9.903141,5.7717915,9.8955288,5.745481,9.9247885,5.7274628
		c0.0524731-0.0492568,0.0283346-0.106452,0.017067-0.1623135c0.2578421-1.5865297,0.9999142-2.9051557,2.2383909-3.939395
		c0.8713207-0.7276322,1.871954-1.1921183,2.9985943-1.3801627c0.026474-0.0044189,0.0520058-0.0144069,0.0779762-0.0217976
		c0.0559378,0.0148687,0.1116819,0.02428,0.1660175-0.005823c0.0205622-0.0143937,0.0374594-0.0377427,0.0681152-0.0274676
		c0.0753841,0.0103179,0.1512213,0.0304728,0.224268-0.0101408c0.0410233-0.0498917,0.0943499-0.0245624,0.1437597-0.0231713
		c0.2892256,0.018781,0.5784464,0.0190343,0.8676653-0.0001783c0.057539-0.0002698,0.1182022-0.0274602,0.1702652,0.019473
		c0.0743942,0.0484274,0.1532669,0.0232852,0.2311821,0.0138618c0.0264473-0.0056107,0.0534-0.0131531,0.0702267,0.0180741
		c0.0505943,0.0483359,0.1077671,0.0263506,0.1639328,0.0151124c0.8236065,0.1456029,1.5993462,0.4216464,2.3098392,0.8618795
		c1.514307,0.9382876,2.4697037,2.2808208,2.9051208,3.9938812c0.0268173,0.1055217,0.0437031,0.2135301,0.0652122,0.3203816
		c-0.0097466,0.0554347-0.0338535,0.1123176,0.016552,0.1616845c0.0203648,0.0059237,0.0244713,0.0191407,0.0170765,0.0375156
		c-0.0076923,0.0769892-0.0367432,0.1556125,0.017683,0.2278514c0.0197544,0.0066552,0.0230999,0.0200515,0.0157738,0.0378323
		c-0.0075016,0.1099386-0.0374966,0.2209072,0.0152454,0.3280869c0.035532,0.235868,0.0477142,0.4715548-0.0055733,0.7067323
		c-0.0404415,0.0959415-0.0213051,0.1937289-0.0091591,0.2913003c0.0052357,0.0261621,0.0124016,0.0528193-0.0182018,0.069768
		c-0.0504093,0.0618367-0.0266781,0.1293573-0.0152435,0.1959352c0.007267,0.0174055,0.003933,0.0304918-0.015337,0.0370846
		c-0.0540009,0.0487795-0.0286903,0.1062651-0.0180607,0.1621385c-0.1229782,0.6313791-0.3182068,1.2385235-0.6236515,1.8075275
		c-0.9438782,1.7583036-2.3989258,2.8555937-4.3502922,3.3090372c-0.0909786,0.0211411-0.1834602,0.0359097-0.2752399,0.0536461
		c-0.0547657,0.0005503-0.1137924-0.0311298-0.161726,0.0210781c-0.0059204,0.0202255-0.0192375,0.0242891-0.0377388,0.0170145
		C17.1084957,12.8546867,17.0217438,12.8292847,16.9381752,12.8751869z"/>
	<path fill="#1B1B1E" d="M15.7580013,12.8980627c0.1157618-0.0594845,0.2402887-0.0280828,0.3591442-0.0250502
		c0.2476749,0.0063219,0.4974651-0.0375786,0.7431316,0.0247793C16.4928589,12.9264736,16.125433,12.924572,15.7580013,12.8980627z"
		/>
	<path fill="#141417" d="M16.7266426,0.157013c-0.2892132,0.0460445-0.578434,0.0458438-0.8676653,0.0001783
		C16.1481991,0.1571319,16.4374199,0.1570724,16.7266426,0.157013z"/>
	<path fill="#151518" d="M9.8751926,6.1961412C9.920639,6.416842,9.9206486,6.6375437,9.8751984,6.8582444
		C9.8751965,6.6375437,9.8751945,6.416842,9.8751926,6.1961412z"/>
	<path fill="#151518" d="M22.7247524,6.1926475c-0.0743656-0.1061902-0.0510082-0.2168546-0.0152454-0.3280869
		C22.7145882,5.9739227,22.7196712,6.0832853,22.7247524,6.1926475z"/>
	<path fill="#141417" d="M22.7100201,7.19068c-0.0507069-0.0959959-0.0263443-0.1967025-0.0182495-0.2962875
		c0.0001335-0.0016575,0.0093193-0.0043368,0.0136395-0.0034518c0.0049629,0.0010152,0.0092106,0.0054755,0.0137691,0.0084391
		C22.7161236,6.9964795,22.7130718,7.0935798,22.7100201,7.19068z"/>
	<path fill="#161619" d="M16.9381752,12.8751869c0.0823212-0.0738382,0.1694431-0.0401716,0.2563534-0.0112772
		C17.1090755,12.8676691,17.0236263,12.8714275,16.9381752,12.8751869z"/>
	<path fill="#161619" d="M9.9087687,5.7976556c0.0476551,0.0736852,0.0282402,0.1527152,0.0180254,0.230855
		c-0.0002222,0.0016971-0.009635,0.0039654-0.0140076,0.0029058C9.9078922,6.03023,9.9038563,6.0255527,9.8994474,6.0223947
		C9.9025536,5.9474816,9.9056616,5.8725686,9.9087687,5.7976556z"/>
	<path fill="#17171A" d="M15.7152176,0.1803626c-0.0714369,0.0756911-0.147975,0.04026-0.224268,0.0101408
		C15.5657063,0.1871231,15.6404619,0.1837429,15.7152176,0.1803626z"/>
	<path fill="#151518" d="M22.6937332,5.8267283c-0.0787907-0.0703759-0.0535164-0.1487103-0.017683-0.2278514
		C22.6819439,5.6748271,22.6878395,5.7507777,22.6937332,5.8267283z"/>
	<path fill="#161619" d="M17.1280899,0.1903478c-0.0796413,0.037785-0.1581821,0.0574755-0.2311821-0.0138618
		C16.9739685,0.1811066,17.0510273,0.1857272,17.1280899,0.1903478z"/>
	<path fill="#161619" d="M9.8950253,7.0278668c0.0713396,0.0723767,0.0520744,0.1500721,0.0136347,0.2288928
		C9.9041147,7.1804614,9.8995695,7.1041646,9.8950253,7.0278668z"/>
	<path fill="#151519" d="M15.4570999,12.8645887c0.0628719-0.047369,0.1319113-0.0286617,0.2000256-0.0177383
		c0.0015793,0.0002537,0.0033665,0.0099039,0.0020685,0.0143013c-0.00142,0.0048132-0.0063162,0.0086164-0.009697,0.0128593
		C15.5853643,12.8708696,15.5212326,12.8677292,15.4570999,12.8645887z"/>
	<path fill="#161619" d="M22.6765728,7.4563832c-0.0378933-0.0686064-0.0548306-0.1356063,0.0152435-0.1959352
		C22.6867371,7.3257599,22.681654,7.3910713,22.6765728,7.4563832z"/>
	<path fill="#151518" d="M22.6589737,5.5613613c-0.0686893-0.0475216-0.0520382-0.103653-0.016552-0.1616845
		C22.6479378,5.4535713,22.6534576,5.5074668,22.6589737,5.5613613z"/>
	<path fill="#151518" d="M17.3622494,0.2235344c-0.058527,0.0364528-0.1150551,0.0515814-0.1639328-0.0151124
		C17.2529621,0.2134594,17.3076038,0.2184969,17.3622494,0.2235344z"/>
	<path fill="#151518" d="M9.9418554,5.5651493c0.0368004,0.058507,0.0537329,0.1149554-0.017067,0.1623135
		C9.9304781,5.6733584,9.9361668,5.6192541,9.9418554,5.5651493z"/>
	<path fill="#161619" d="M15.4228344,0.217971c-0.0536175,0.0503107-0.109189,0.0457226-0.1660175,0.0058229
		C15.3121557,0.221853,15.3674955,0.219912,15.4228344,0.217971z"/>
	<path fill="#17171A" d="M9.9285822,7.3599524c0.0645418,0.049181,0.050746,0.1048532,0.0136595,0.1624556
		C9.9376879,7.468256,9.933135,7.414104,9.9285822,7.3599524z"/>
	<path fill="#151518" d="M22.643177,7.6556063c-0.0362434-0.0586853-0.0541859-0.1153617,0.0180607-0.1621385
		C22.6552181,7.547514,22.6491966,7.6015601,22.643177,7.6556063z"/>
	<path fill="#151518" d="M15.0064602,12.7745314c0.0613937,0.0062571,0.1334782-0.0349693,0.1794443,0.0398111
		C15.1284075,12.7907801,15.0566616,12.8304977,15.0064602,12.7745314z"/>
	<path fill="#161619" d="M15.2229567,12.831131c0.0585365-0.0363159,0.1150885-0.0515633,0.1639137,0.015214
		C15.3322334,12.8412743,15.2775946,12.8362017,15.2229567,12.831131z"/>
	<path fill="#151519" d="M17.2322674,12.8468952c0.045681-0.0692263,0.1031704-0.0491886,0.161726-0.0210772
		C17.340086,12.8328438,17.2861748,12.8398695,17.2322674,12.8468952z"/>
	<path fill="#313134" d="M20.5780239,3.7716427c0.1690502,0.1252499,0.2316818,0.3230133,0.321146,0.4960036
		c0.2678928,0.5179753,0.4360733,1.0715709,0.5074959,1.6496649c0.1125507,0.9110055-0.0218048,1.7880869-0.3937092,2.6293893
		c-0.2410278,0.5452442-0.5564175,1.0394583-0.9817295,1.4636316c-0.0931721,0.0929251-0.1687431,0.2002726-0.2792149,0.2799978
		c-0.0722275,0.0521231-0.1117573,0.0511913-0.1653385-0.0106983c-0.2168331-0.2504463-0.4349899-0.4997644-0.6525841-0.7495604
		c-0.0639153-0.0733728-0.0108395-0.1216555,0.0391788-0.1675005c0.2924061-0.2680035,0.5336018-0.5758343,0.7269516-0.9206047
		c0.2708454-0.4829473,0.4239941-0.9982343,0.4774818-1.5509152c0.0590668-0.610292-0.0348759-1.1924896-0.234848-1.7658749
		c-0.0859318-0.2463956-0.244482-0.4572921-0.331871-0.7020106c0.077589-0.0941381,0.1967545-0.1317315,0.2870922-0.2085762
		c0.1011562-0.0634809,0.2024326-0.1267624,0.2953014-0.2022233C20.3244953,3.9367135,20.4472046,3.8477783,20.5780239,3.7716427z"
		/>
	<path fill="#FE4E00" d="M16.8992214,5.4374943c-0.4989929,0-0.9626341-0.0124764-1.4250727,0.0054994
		c-0.2166796,0.0084224-0.2606878-0.0657125-0.2555666-0.2632899c0.0127134-0.4904661,0.0036564-0.4907002,0.4899158-0.490696
		c0.6234608,0.0000048,1.246954,0.0031519,1.8703594-0.0025163c0.1311588-0.0011926,0.1803074,0.0266376,0.1841278,0.1707525
		c0.0088253,0.3329248-0.0413532,0.6376157-0.1991634,0.9436231c-0.4066944,0.7886157-0.7838306,1.5923443-1.1663361,2.3930655
		c-0.0591526,0.123826-0.1278591,0.1804647-0.2712669,0.1711712c-0.201169-0.0130358-0.4038372-0.003293-0.6420155-0.003293
		C15.9581852,7.3822675,16.4205704,6.4266887,16.8992214,5.4374943z"/>
	<path fill="#FE1200" d="M12.5730324,7.8212905c0.0992765,0.2673659,0.2310238,0.522119,0.3581362,0.7749887
		c0.1351318,0.2688217,0.3316298,0.5128193,0.5654125,0.7107363c0.1379528,0.1167898,0.1568346,0.2032814,0.0135994,0.316308
		c-0.0343084,0.027072-0.0632887,0.0608006-0.0947189,0.0914669c-0.0862131-0.0181856-0.1212626-0.0927267-0.1656065-0.1537771
		c-0.5944118-0.8183498-1.1937037-1.6331878-1.7891026-2.4508243c-0.0452738-0.0621734-0.0858526-0.1281757-0.1486578-0.185276
		c-0.0553722,0.0301414-0.0197363,0.1083732-0.0718651,0.1365967c-0.0579987-0.2551799-0.0245867-0.5129485-0.0221319-0.7698407
		c0.0241871-0.0456429-0.0273104-0.1273804,0.049345-0.1416497c0.0828266-0.01542,0.1266689,0.0581603,0.1683254,0.1156635
		C11.8125896,6.7858539,12.1923933,7.3038721,12.5730324,7.8212905z"/>
	<path fill="#FE6A00" d="M19.912426,4.2388344c-0.0911903,0.0764232-0.1850014,0.1486259-0.3014507,0.184329
		c-0.1852951-0.325366-0.4358101-0.5966122-0.7182941-0.839267c-0.0545731-0.0468783-0.1111546-0.0904272-0.1578426-0.1453488
		C18.3806763,2.93291,18.010397,2.4388285,17.645956,1.9405541c-0.0454197-0.0620981-0.0955181-0.1233404-0.1202602-0.1968247
		c-0.020174-0.0599266-0.0335178-0.1278174,0.0743389-0.0988867c0.2045803,0.0520837,0.412817,0.0934128,0.5986404,0.2006381
		c0.0438766,0.1792125,0.1805611,0.3018132,0.2835846,0.4426035C18.9583874,2.9387512,19.42309,3.5977163,19.912426,4.2388344z"/>
	<path fill="#FE6E00" d="M19.912426,4.2388344c-0.047905-0.003015-0.0784016-0.0275135-0.1070652-0.0666933
		c-0.5287991-0.7228189-1.0599384-1.4439528-1.5878639-2.1673965c-0.0315628-0.0432531-0.0864182-0.0980294-0.0188217-0.1592637
		c0.2953739,0.1122273,0.5854073,0.2346543,0.8363781,0.4316605c0.107996,0.2258012,0.2800655,0.4082267,0.4232922,0.6098871
		c0.2300053,0.3238394,0.4659004,0.6436679,0.7003593,0.9644353c0.0424366,0.0580583,0.090229,0.1154246,0.0514793,0.1949296
		C20.1188755,4.122653,20.0211678,4.1891556,19.912426,4.2388344z"/>
	<path fill="#FE0A00" d="M13.1200895,10.0590038c-0.176837,0.2443371-0.1834154,0.2506809-0.381855,0.0478916
		c-0.6263542-0.6400824-1.12362-1.3590021-1.3522673-2.236794c-0.0068741-0.0263863-0.0072241-0.0544467-0.0106153-0.0817266
		c-0.0230827-0.0296392-0.0262737-0.0666766-0.0033703-0.0908237c0.0285273-0.0300784,0.0618629-0.0040812,0.0887327,0.0145521
		c0.0370426,0.0256901,0.0628033,0.0622444,0.088726,0.0983515c0.4977531,0.6932721,1.008152,1.3774762,1.5065041,2.0703168
		C13.0941668,9.9339104,13.1455917,9.9829912,13.1200895,10.0590038z"/>
	<path fill="#FE1500" d="M12.5730324,7.8212905c-0.1807156-0.1199341-0.2759991-0.3116221-0.4000473-0.4777012
		c-0.2672138-0.357758-0.524375-0.7229028-0.7880325-1.0833068c-0.0275946-0.0377183-0.0600643-0.0972848-0.1138248-0.0789099
		c-0.0272074,0.0093002-0.0359497,0.0718365-0.0530357,0.1103001c-0.0143118-0.2596941,0.0317688-0.5118556,0.0963554-0.7617106
		c0.0991926-0.092052,0.1339159,0.0135846,0.1704416,0.0640998c0.2423582,0.3351831,0.4909058,0.6659088,0.7316923,1.0021825
		c0.0649748,0.0907397,0.1713552,0.1614494,0.1557007,0.2947006c0.0710831,0.0956388,0.0329647,0.2113757,0.0543451,0.3167262
		C12.4685469,7.4142056,12.5282593,7.6158895,12.5730324,7.8212905z"/>
	<path fill="#FE6700" d="M17.6000347,1.6448427c-0.1276226,0.0436592-0.0292625,0.1078305-0.0035667,0.1446613
		c0.1699314,0.243566,0.3474426,0.4819117,0.521719,0.7225037c0.1839733,0.2539783,0.3675671,0.5082321,0.5501747,0.7631774
		c0.0347958,0.0485804,0.0782108,0.0953846,0.0664768,0.1633625c-0.2816257-0.1820741-0.5603542-0.3690765-0.8698654-0.5036979
		c-0.2774372-0.3980198-0.5713768-0.7842336-0.8549538-1.1778594c-0.0129719-0.0180051,0.0021648,0.0053155-0.0095253-0.0135218
		c-0.0344696-0.0555398-0.0925655-0.1151758-0.0497284-0.1792394c0.0422535-0.0631866,0.1174469-0.0365431,0.1810093-0.0190089
		C17.2921906,1.5583735,17.4498711,1.5842032,17.6000347,1.6448427z"/>
	<path fill="#FE0E00" d="M11.2402296,7.0615096c0.0165129-0.0720601-0.0423937-0.1838808,0.034297-0.2104959
		c0.0837402-0.0290608,0.1107893,0.0909867,0.1527977,0.1479235c0.5257177,0.7125421,1.046195,1.4288926,1.5683136,2.144053
		c0.1394234,0.1909723,0.2798548,0.3812199,0.4198236,0.5718002c-0.0334539,0.065486-0.0821791,0.1181908-0.1392336,0.1639223
		c-0.1004648,0.0104456-0.1291428-0.0760107-0.1716566-0.134099c-0.3470821-0.4742336-0.692811-0.9494944-1.0428877-1.4215107
		c-0.2508106-0.338172-0.4778032-0.694242-0.7562513-1.0115838c-0.0601377-0.0685391-0.0318661-0.1474137-0.0578356-0.2178545
		C11.245141,7.0829463,11.2426853,7.072228,11.2402296,7.0615096z"/>
	<path fill="#FE1A00" d="M12.372282,6.890945c-0.037425-0.1372242-0.155097-0.2200766-0.2316589-0.3306899
		c-0.2290754-0.3309503-0.4705744-0.6534324-0.7075891-0.9789567c-0.0288734-0.0396576-0.0548916-0.0893555-0.1185884-0.0513353
		c0.0349417-0.2400126,0.0911674-0.4741502,0.1946993-0.6952338c0.2407341,0.3239636,0.4772959,0.6509418,0.7159624,0.9763994
		c0.0441875,0.060256,0.0753736,0.1418762,0.176672,0.1213832C12.3606348,6.25104,12.3805246,6.5714188,12.372282,6.890945z"/>
	<path fill="#FE6200" d="M17.1317749,1.5452203c-0.0522633,0.0098733-0.120306-0.0248542-0.1547089,0.0299032
		c-0.0379982,0.0604813,0.0278416,0.1025317,0.0567265,0.1427364c0.2468758,0.3436102,0.4974976,0.6845905,0.7495842,1.024465
		c0.0438023,0.0590539,0.0844364,0.1157126,0.0815964,0.1925256c-0.2318344-0.0828092-0.4635277-0.1660662-0.7033443-0.2242043
		c-0.2404633-0.3375096-0.4858284-0.6714926-0.7328548-1.0042815c-0.0098801-0.0133115-0.0194073-0.026951-0.0278721-0.0411819
		c-0.0307865-0.0517476-0.0844593-0.1089106-0.0504036-0.1654404c0.0402641-0.0668333,0.1158466-0.0372657,0.1791019-0.0209183
		C16.7321529,1.4846188,16.9358273,1.4803813,17.1317749,1.5452203z"/>
	<path fill="#FE7200" d="M20.2101841,4.0463934c-0.0360336-0.163085-0.1604309-0.2732282-0.2516422-0.4014406
		c-0.2899551-0.4075906-0.589735-0.8082852-0.8832626-1.2133985c-0.0312881-0.0431814-0.09655-0.0854733-0.040226-0.154413
		c0.6405602,0.3697307,1.1239147,0.899394,1.5429668,1.4944904C20.5030746,3.9261043,20.3296833,3.9506991,20.2101841,4.0463934z"/>
	<path fill="#FE5800" d="M15.254446,1.5857089c0.2618685-0.0773827,0.5292797-0.1107674,0.8023052-0.0995901
		c0.0031509,0.025853-0.0108814,0.0415092-0.0329952,0.0499557c-0.1557636,0.0594904-0.1571646,0.0602857-0.0527086,0.2017943
		c0.1708727,0.231485,0.3445616,0.4610031,0.5084925,0.6973629c0.0367985,0.0530574,0.1064587,0.1096151,0.0363159,0.1874044
		c-0.1001186,0.0051327-0.201889-0.0102727-0.2997932,0.0045702c-0.2558975,0.0387962-0.4295149-0.0519452-0.556756-0.2786629
		c-0.1104498-0.1967976-0.2693214-0.3643098-0.3941813-0.5534794C15.2230921,1.7313821,15.1457262,1.6607234,15.254446,1.5857089z"
		/>
	<path fill="#FE1F00" d="M12.4017792,5.9325118c-0.0988455,0.1662736-0.1410227-0.0076299-0.168272-0.0424643
		c-0.1902037-0.2431512-0.3756275-0.4907727-0.5471392-0.7471433c-0.0650129-0.0971794-0.1782303-0.1722231-0.1772232-0.308176
		c0.0524426-0.161952,0.1031027-0.3246522,0.1992292-0.4682922c0.071887,0.0149584,0.1118488,0.0703907,0.1503563,0.123518
		c0.2045994,0.2822719,0.4076509,0.56563,0.6225567,0.8403921c0.0229778,0.029377,0.0512743,0.0600133,0.0323677,0.1036043
		C12.4763622,5.6001372,12.4390717,5.7663245,12.4017792,5.9325118z"/>
	<path fill="#FE5E00" d="M16.5268974,2.6073558c-0.1430435-0.2921007-0.3702641-0.5266781-0.5503979-0.7934396
		c-0.0551958-0.0817386-0.1613417-0.1654693-0.1566572-0.2430835c0.0078125-0.1294239,0.1718092-0.0055742,0.2369108-0.0847151
		c0.1567364-0.0583763,0.3145123-0.0505095,0.4728451-0.0072925c-0.0510731,0.0120405-0.1245308-0.0291787-0.150507,0.0319293
		c-0.022686,0.0533665,0.0340824,0.0988992,0.0660076,0.1426709c0.2010593,0.2756538,0.4031525,0.5505676,0.6033726,0.8268192
		c0.0506649,0.0699036,0.1225338,0.1308961,0.1131573,0.2304013c-0.1330795-0.031028-0.2738724-0.0211105-0.4026871-0.0747714
		C16.6843891,2.6039584,16.6000786,2.6502714,16.5268974,2.6073558z"/>
	<path fill="#FE2400" d="M12.5136538,5.4339504c-0.2684269-0.3558378-0.5368519-0.7116752-0.8052788-1.0675135
		c0.0798092-0.1887226,0.1629982-0.3755581,0.3012495-0.5316496c0.2487659,0.3388977,0.5197058,0.662384,0.7267103,1.0303068
		C12.6621075,5.0547128,12.5878801,5.2443318,12.5136538,5.4339504z"/>
	<path fill="#FE2A00" d="M12.7363348,4.8650942c-0.261384-0.3301263-0.5310535-0.6544933-0.7267094-1.0303047
		c0.0693283-0.1646369,0.1854305-0.2967205,0.3024054-0.4281983c0.1625605,0.1050639,0.2366457,0.2831476,0.3517933,0.4267936
		c0.1302795,0.1625268,0.2429733,0.3390577,0.3733416,0.5022337C12.9368887,4.5121107,12.8366117,4.6886024,12.7363348,4.8650942z"
		/>
	<path fill="#FE0E00" d="M11.2475967,7.0936646c0.0870848,0.2586899,0.2953386,0.4371772,0.4473553,0.6517377
		c0.4867105,0.6869555,0.9907866,1.3617935,1.4892502,2.0405197c0.0254784,0.0346909,0.0611191,0.0620298,0.0920267,0.0927916
		c-0.0419588,0.0687017-0.0928211,0.1298027-0.1561451,0.1802759c-0.2292652-0.3694458-0.5048494-0.7065086-0.7550564-1.0613623
		c-0.2820024-0.3999491-0.5746288-0.7925234-0.8634415-1.1877232c-0.0225887-0.0309105-0.0462399-0.0695-0.0785694-0.0832171
		c-0.0704126-0.0298758-0.0384569,0.0350223-0.0476646,0.0616889C11.29531,7.5635924,11.2525034,7.3320622,11.2475967,7.0936646z"/>
	<path fill="#FE5200" d="M16.5268974,2.6073558c0.0768261,0.0137177,0.1601486-0.0246403,0.232048,0.0285213
		c-0.4459381,0.0008924-0.8926544-0.0121047-1.3337984,0.0739286c-0.0519342,0.0197573-0.0685263-0.023227-0.0880356-0.0528824
		c-0.1722622-0.2618442-0.3703403-0.5053899-0.547473-0.7637093c-0.0358467-0.0522755-0.0926371-0.1027677-0.0358-0.1748043
		c0.1644392-0.053265,0.3253889-0.1195042,0.5006075-0.1327022c-0.0436745,0.0552876-0.0170984,0.1053394,0.0159054,0.1507912
		c0.1942892,0.2675817,0.3925037,0.5323999,0.5834932,0.8022649c0.0426197,0.060219,0.0917759,0.0709915,0.1555719,0.0704169
		C16.1819019,2.6076264,16.3544025,2.607842,16.5268974,2.6073558z"/>
	<path fill="#FE3F00" d="M14.2545185,3.1746116c-0.1092377,0.1125066-0.2638168,0.1601343-0.3804808,0.2620156
		c-0.0818691,0.0086932-0.1169386-0.0536282-0.1542253-0.1058495c-0.1537409-0.2153115-0.3092356-0.4293077-0.4677773-0.6411679
		c-0.0382032-0.0510504-0.0935974-0.1025419-0.0353031-0.1745291c0.1104012-0.1031177,0.2372427-0.1834557,0.3664017-0.2605844
		C13.8288422,2.5454452,14.056427,2.8494258,14.2545185,3.1746116z"/>
	<path fill="#FE3000" d="M13.0371647,4.3356185c-0.1664419-0.053648-0.2065182-0.2225122-0.3021746-0.3381164
		C12.5808697,3.81124,12.451726,3.6046138,12.3120308,3.4065909c0.070179-0.1452191,0.1941261-0.2459505,0.302166-0.3598418
		c0.1416655,0.1330259,0.237237,0.3018703,0.3512707,0.455663c0.1145716,0.1545153,0.2403917,0.3016613,0.338974,0.4677694
		C13.2480898,4.1155906,13.0880947,4.1863027,13.0371647,4.3356185z"/>
	<path fill="#FE4900" d="M15.0576496,2.8091967c-0.1415253,0.0646133-0.281683,0.1327572-0.435277,0.1662316
		c-0.0729103,0.0199387-0.0967741-0.0411549-0.1287117-0.0815144c-0.1789227-0.2260971-0.339921-0.4652557-0.5100183-0.6978087
		c-0.0303249-0.0414629-0.0776186-0.086839-0.0313988-0.1476536c0.1366243-0.0819494,0.2815266-0.1459985,0.4324341-0.1970611
		C14.5663328,2.200201,14.8284521,2.4933016,15.0576496,2.8091967z"/>
	<path fill="#FE4E00" d="M15.0576496,2.8091967c-0.1138506-0.0114059-0.1390047-0.1189952-0.1927586-0.1879044
		c-0.1584339-0.2031078-0.3031521-0.416733-0.454423-0.6253959C14.377697,1.9506918,14.3374119,1.90948,14.3846788,1.8513898
		c0.1164722-0.0623261,0.2387094-0.108887,0.3691597-0.1329812c0.0145245,0.1414077,0.1275263,0.2272367,0.1990404,0.3345864
		c0.1493692,0.2242224,0.313941,0.4384656,0.4722672,0.6568098C15.3074121,2.7602944,15.1825991,2.784996,15.0576496,2.8091967z"/>
	<path fill="#FE3900" d="M13.216732,2.5150807c-0.0177031,0.0851958,0.0512342,0.1285017,0.0938568,0.181494
		c0.1944542,0.2417665,0.3413744,0.5191557,0.5634499,0.7400537c-0.0989618,0.0887687-0.1979237,0.1775386-0.2968845,0.2663085
		c-0.0773363,0.04882-0.1143017-0.0154953-0.1473446-0.0602763c-0.1739149-0.2357044-0.3474989-0.4716694-0.5201473-0.7082961
		c-0.0312176-0.0427873-0.0710983-0.0897312-0.0288639-0.1491673C12.9958239,2.6988928,13.0844688,2.5802598,13.216732,2.5150807z"
		/>
	<path fill="#FE4400" d="M13.9522438,2.0484512c0.1938257,0.3300424,0.419817,0.6371703,0.6701279,0.9269762
		c-0.1181269,0.0745664-0.2336016,0.1539624-0.3678541,0.1991837c-0.1481934-0.1109788-0.228529-0.2775152-0.3327112-0.4215639
		c-0.1172838-0.1621635-0.268177-0.3045049-0.3386726-0.4985521C13.7061701,2.1858141,13.8292065,2.1171324,13.9522438,2.0484512z"
		/>
	<path fill="#FE3500" d="M12.8807983,2.7851973c0.1175222,0.2440641,0.2991953,0.4447172,0.4604244,0.6583974
		c0.0694628,0.0920622,0.0936909,0.2309229,0.2359333,0.2593431c-0.0752697,0.1048026-0.1743069,0.1857059-0.2727137,0.2672436
		C13.1826,3.9210787,13.1369667,3.8013046,13.0705042,3.7062635c-0.153162-0.2190177-0.3445854-0.4123869-0.4563074-0.6595166
		C12.6926775,2.9491332,12.7775488,2.8579359,12.8807983,2.7851973z"/>
</g>
</svg>
